<svg width="48" height="48" viewBox="0 0 48 48" fill="none" xmlns="http://www.w3.org/2000/svg">
<path d="M37.018 7.60791C37.1791 7.74322 37.3401 7.87853 37.5061 8.01794C37.646 8.1321 37.7859 8.24625 37.9301 8.36387C38.9481 9.22536 39.7661 10.2115 40.5783 11.2661C40.6944 11.412 40.8106 11.5579 40.9303 11.7082C41.9249 13.0041 42.6276 14.405 43.3091 15.882C43.3795 16.0314 43.4499 16.1808 43.5225 16.3348C45.1905 20.1593 45.4251 25.0626 44.3332 29.0457C44.2807 29.3019 44.2807 29.3019 44.2272 29.5633C43.4596 33.1973 41.1722 36.294 38.7008 38.9613C38.6086 39.0649 38.5164 39.1684 38.4215 39.2752C35.4628 42.4552 30.3695 44.7808 26.0706 44.9448C25.9017 44.9518 25.7328 44.9588 25.5587 44.966C22.9815 45.0556 20.5285 45.0143 18.0488 44.261C17.8723 44.2074 17.8723 44.2074 17.6922 44.1527C12.4338 42.4885 7.98735 38.6952 5.41863 33.8339C2.83875 28.7565 2.25259 23.0016 3.99987 17.5809C5.9342 11.9113 9.95948 7.54107 15.3012 4.89776C22.3043 1.57762 31.0336 2.69641 37.018 7.60791Z" fill="#010404"/>
<path d="M14.2725 2.62109C22.0972 -1.08858 31.8642 0.160102 38.5557 5.64844V5.64941C38.7397 5.80406 38.9246 5.95785 39.1143 6.11719L39.1191 6.12207C39.2765 6.25048 39.4347 6.37856 39.5967 6.51074V6.51172C40.7184 7.46094 41.6279 8.55349 42.5508 9.75195L42.5557 9.75879C42.6864 9.92298 42.8176 10.0868 42.9521 10.2559V10.2568C44.0532 11.6914 44.8374 13.2499 45.6133 14.9316L45.6152 14.9355C45.6955 15.106 45.7757 15.2766 45.8584 15.4521L45.8594 15.4531C47.7112 19.7093 47.9746 25.1888 46.7559 29.6348L46.751 29.6504L46.748 29.666C46.6883 29.9578 46.6885 29.9591 46.6279 30.2549C45.7793 34.2727 43.2412 37.7297 40.4346 40.7588L40.4277 40.7666C40.3247 40.8824 40.2213 40.998 40.1152 41.1172C36.824 44.6544 31.1282 47.255 26.3477 47.4375H26.3457L25.7607 47.4619C22.8281 47.5638 20.0942 47.5123 17.3438 46.6768C17.1438 46.6161 17.1421 46.6156 16.9414 46.5547H16.9424C11.0618 44.6935 6.0822 40.448 3.20605 35.0049C0.317984 29.3165 -0.333681 22.8819 1.61621 16.8252C3.78051 10.4817 8.28215 5.58771 14.2725 2.62109ZM31.708 2.70898C23.0884 -0.913991 12.8515 2.57993 6.84473 9.18848L6.83691 9.19727L6.83008 9.20605C3.38016 13.3689 1.39845 18.4138 1.42285 23.8447V23.8457C1.42353 24.0861 1.42411 24.3265 1.4248 24.5742V24.5791C1.44649 26.4028 1.61445 28.0901 2.08105 29.875V29.876L2.19531 30.3867L2.19824 30.4004C3.14476 34.1555 5.61846 37.6264 8.25977 40.2764V40.2773C8.42821 40.4483 8.59695 40.6197 8.77051 40.7959L8.7793 40.8047C10.2033 42.178 11.7524 43.168 13.4512 44.0791C13.6324 44.1763 13.6325 44.1762 13.8174 44.2754L13.8213 44.2773C15.7031 45.2652 17.5731 45.849 19.623 46.2744V46.2754C19.8166 46.3195 20.0105 46.3638 20.21 46.4092L20.2217 46.4111C23.0853 46.9904 26.0337 46.792 28.8311 46.1641C29.1671 46.0886 29.5064 46.0206 29.8506 45.9521L29.8682 45.9482C33.1207 45.1796 36.3684 43.3539 38.79 41.083L38.793 41.082L38.7939 41.0801L38.7979 41.0781L38.7988 41.0762L38.8027 41.0742L38.8037 41.0723L38.8057 41.0713L38.8086 41.0684L38.8105 41.0674L38.8115 41.0664L38.8135 41.0654L38.8145 41.0635L38.8184 41.0615L38.8193 41.0596L38.8213 41.0586L38.8242 41.0557L38.8262 41.0547L38.8301 41.0508L38.832 41.0498L38.835 41.0469L38.8369 41.0459L38.8398 41.043L38.8418 41.042L38.8428 41.04L38.8467 41.0381L38.8477 41.0361L38.8496 41.0352L38.8506 41.0342L38.8525 41.0332L38.8555 41.0303L38.8574 41.0293L38.8584 41.0273L38.8623 41.0254L38.8633 41.0234L38.8672 41.0215L38.8682 41.0195L38.8701 41.0186L38.873 41.0156L38.875 41.0146L38.8789 41.0107L38.8809 41.0098L38.8838 41.0068L38.8857 41.0059L38.8887 41.0029L38.8906 41.002L38.8945 40.998L38.8965 40.9971L38.8994 40.9941L38.9014 40.9932L38.9043 40.9902L38.9062 40.9893L38.9072 40.9873L38.9111 40.9854L38.9121 40.9834L38.9141 40.9824L38.917 40.9795L38.9189 40.9785L38.9199 40.9775L38.9219 40.9766L38.9229 40.9746L38.9268 40.9727L38.9277 40.9707L38.9297 40.9697L38.9326 40.9668L38.9346 40.9658L38.9375 40.9629L38.9395 40.9619L38.9434 40.958L38.9453 40.957L38.9482 40.9541L38.9502 40.9531L38.9512 40.9512L38.9551 40.9492L38.9561 40.9473L38.958 40.9463L38.959 40.9453L38.9609 40.9443L38.9639 40.9414L38.9658 40.9404L38.9668 40.9385L38.9707 40.9365L38.9717 40.9346L38.9756 40.9326L38.9766 40.9307L38.9785 40.9297L38.9814 40.9268L38.9834 40.9258L38.9873 40.9219L38.9893 40.9209L38.9922 40.918L38.9941 40.917L38.9971 40.9141L38.999 40.9131L39.002 40.9102L39.0039 40.9092L39.0078 40.9053L39.0098 40.9043L39.0127 40.9014L39.0146 40.9004L39.0156 40.8984L39.0195 40.8965L39.0205 40.8945L39.0225 40.8936L39.0254 40.8906L39.0273 40.8896L39.0283 40.8887L39.0303 40.8877L39.0312 40.8857L39.0352 40.8838L39.0361 40.8818L39.04 40.8799L39.041 40.8779L39.043 40.877L39.0459 40.874L39.0479 40.873L39.0518 40.8691L39.0537 40.8682L39.0566 40.8652L39.0586 40.8643L39.0596 40.8623L39.0635 40.8604L39.0674 40.8564L39.0693 40.8555L39.0723 40.8525L39.0742 40.8516L39.0771 40.8486L39.0791 40.8477L39.0801 40.8457L39.084 40.8438L39.085 40.8418L39.0869 40.8408L39.0898 40.8379L39.0918 40.8369L39.0957 40.833L39.0977 40.832L39.1006 40.8291L39.1045 40.8271L39.1055 40.8252L39.1074 40.8242L39.1104 40.8213L39.1123 40.8203L39.1162 40.8164L39.1182 40.8154L39.1211 40.8125L39.123 40.8115L39.124 40.8096L39.1279 40.8076L39.1289 40.8057L39.1309 40.8047L39.1338 40.8018L39.1357 40.8008L39.1367 40.7998L39.1387 40.7988L39.1416 40.7959L39.1436 40.7949L39.1445 40.793L39.1484 40.791L39.1494 40.7891L39.1514 40.7881L39.1543 40.7852L39.1562 40.7842L39.1602 40.7803L39.1621 40.7793L39.165 40.7764L39.167 40.7754L39.168 40.7734L39.1719 40.7715L39.1748 40.7686L39.1768 40.7676L39.1807 40.7637L39.1826 40.7627L39.1855 40.7598L39.1875 40.7588L39.1885 40.7568L39.1924 40.7549L39.1934 40.7529L39.1953 40.752L39.1982 40.749L39.2002 40.748L39.2041 40.7441L39.2061 40.7432L39.209 40.7402L39.2129 40.7383L39.2139 40.7363L39.2158 40.7354L39.2188 40.7324L39.2207 40.7314L39.2246 40.7275L39.2266 40.7266L39.2295 40.7236L39.2314 40.7227L39.2324 40.7207L39.2363 40.7188L39.2373 40.7168L39.2412 40.7148L39.2422 40.7129L39.2441 40.7119L39.2451 40.7109L39.2471 40.71L39.25 40.707L39.252 40.7061L39.2529 40.7041L39.2568 40.7021L39.2578 40.7002L39.2598 40.6992L39.2627 40.6963L39.2646 40.6953L39.2686 40.6914L39.2705 40.6904L39.2734 40.6875L39.2754 40.6865L39.2783 40.6836L39.2803 40.6826L39.2832 40.6797L39.2852 40.6787L39.2891 40.6748L39.291 40.6738L39.2939 40.6709L39.2959 40.6699L39.2969 40.668L39.3008 40.666L39.3018 40.6641L39.3037 40.6631L39.3066 40.6602L39.3086 40.6592L39.3115 40.6562L39.3135 40.6553L39.3174 40.6514L39.3213 40.6494L39.3223 40.6475L39.3242 40.6465L39.3271 40.6436L39.3291 40.6426L39.333 40.6387L39.335 40.6377L39.3379 40.6348L39.3398 40.6338L39.3408 40.6318L39.3447 40.6299L39.3457 40.6279L39.3496 40.626L39.3506 40.624L39.3525 40.623L39.3535 40.6221L39.3555 40.6211L39.3584 40.6182L39.3604 40.6172L39.3613 40.6152L39.3652 40.6133L39.3662 40.6113L39.3682 40.6104L39.3711 40.6074L39.373 40.6064L39.376 40.6035L39.3779 40.6025L39.3818 40.5986L39.3838 40.5977L39.3867 40.5947L39.3887 40.5938L39.3916 40.5908L39.3936 40.5898L39.3975 40.5859L39.3994 40.585L39.4023 40.582L39.4043 40.5811L39.4053 40.5791L39.4092 40.5771L39.4102 40.5752L39.4141 40.5732L39.415 40.5713L39.417 40.5703L39.4199 40.5674L39.4219 40.5664L39.4258 40.5625L39.4297 40.5605L39.4307 40.5586L39.4326 40.5576L39.4355 40.5547L39.4375 40.5537L39.4414 40.5498L39.4434 40.5488L39.4463 40.5459L39.4482 40.5449L39.4512 40.542L39.4531 40.541L39.4541 40.5391L39.458 40.5371L39.459 40.5352L39.4609 40.5342L39.4619 40.5332L39.4639 40.5322L39.4668 40.5293L39.4688 40.5283L39.4697 40.5264L39.4736 40.5244L39.4746 40.5225L39.4785 40.5205L39.4795 40.5186L39.4814 40.5176L39.4844 40.5146L39.4863 40.5137L39.4902 40.5098L39.4922 40.5088L39.4951 40.5059L39.4971 40.5049L39.5 40.502L39.502 40.501L39.5059 40.4971L39.5078 40.4961L39.5107 40.4932L39.5127 40.4922L39.5156 40.4893L39.5176 40.4883L39.5186 40.4863L39.5225 40.4844L39.5234 40.4824L39.5254 40.4814L39.5283 40.4785L39.5303 40.4775L39.5342 40.4736L39.5381 40.4717L39.5391 40.4697L39.541 40.4688L39.5439 40.4658L39.5459 40.4648L39.5488 40.4619L39.5508 40.4609L39.5547 40.457L39.5566 40.4561L39.5596 40.4531L39.5615 40.4521L39.5625 40.4502L39.5664 40.4482L39.5674 40.4463L39.5693 40.4453L39.5703 40.4443L39.5723 40.4434L39.5752 40.4404L39.5771 40.4395L39.5781 40.4375L39.582 40.4355L39.5898 40.4287L39.5967 40.4219C43.699 36.775 46.2032 31.0445 46.5986 25.6416H46.5996V25.6299C46.9112 19.3841 44.8721 13.4843 40.71 8.81152L40.7061 8.80762C38.3836 6.25625 35.701 4.54569 32.6221 3.13086C32.46 3.0523 32.2978 2.97352 32.1309 2.89258L32.124 2.88965L32.1182 2.88672L31.708 2.70898Z" stroke="#010404"/>
<path d="M27.5489 9.99658C28.1219 10.0332 28.1219 10.0332 28.3169 10.2286C28.3353 10.6182 28.3398 11.0086 28.3391 11.3986C28.339 11.7741 28.339 11.7741 28.339 12.1572C28.338 12.4325 28.337 12.7077 28.336 12.983C28.3356 13.2631 28.3353 13.5431 28.3351 13.8232C28.3344 14.5617 28.3325 15.3001 28.3303 16.0385C28.3283 16.7916 28.3274 17.5446 28.3264 18.2976C28.3244 19.776 28.321 21.2545 28.3169 22.7329C28.886 22.7488 29.4546 22.7604 30.0237 22.7696C30.1846 22.7745 30.3456 22.7794 30.5114 22.7844C31.4155 22.7954 31.9173 22.7868 32.6083 22.1468C32.8014 22.1468 32.9945 22.1468 33.1934 22.1468C33.1291 22.3402 33.0647 22.5336 32.9984 22.7329C32.8053 22.8296 32.8053 22.8296 32.6083 22.9283C32.7068 22.9943 32.8054 23.0603 32.9069 23.1283C33.097 23.259 33.097 23.259 33.291 23.3923C33.4811 23.5215 33.4811 23.5215 33.675 23.6534C33.7736 23.7365 33.8721 23.8196 33.9737 23.9052C33.9737 24.0342 33.9737 24.1631 33.9737 24.296C32.4062 24.1128 32.4062 24.1128 31.6329 23.9052C31.5605 24.2558 31.5605 24.2558 31.4867 24.6135C31.1606 26.0892 30.7447 27.5513 30.2675 28.9851C31.4262 28.8884 31.4262 28.8884 32.6083 28.7897C32.6726 28.9187 32.737 29.0476 32.8033 29.1805C32.6552 29.2041 32.5071 29.2278 32.3545 29.2522C32.1607 29.285 31.9668 29.3177 31.7671 29.3514C31.5747 29.3832 31.3823 29.4149 31.1842 29.4476C30.6185 29.548 30.6185 29.548 30.0725 29.962C29.8789 30.3081 29.8789 30.3081 29.7357 30.716C29.6465 30.9444 29.6465 30.9444 29.5555 31.1774C29.4928 31.3405 29.43 31.5036 29.3654 31.6716C28.016 35.0142 26.1092 37.9838 22.8552 39.731C21.9483 40.0338 21.0706 40.0412 20.1244 39.9264C19.5026 39.5723 19.5026 39.5723 19.1491 38.9495C18.9125 37.7979 19.0443 36.839 19.6124 35.8112C21.6857 32.7611 24.9057 30.8055 28.3169 29.5712C28.51 29.5712 28.7031 29.5712 28.9021 29.5712C28.9308 29.436 28.9594 29.3007 28.989 29.1614C29.4047 27.3448 30.0191 25.5751 30.8527 23.9052C30.0159 23.9052 29.1791 23.9052 28.3169 23.9052C28.3592 24.3283 28.3592 24.3283 28.4023 24.76C28.426 24.998 28.426 24.998 28.4503 25.2408C28.4907 25.672 28.4907 25.672 28.707 26.0544C28.7435 26.58 28.7238 27.0893 28.707 27.6174C28.512 27.8128 28.512 27.8128 27.9268 27.8372C27.3416 27.8128 27.3416 27.8128 27.1466 27.6174C27.1003 27.0589 27.0642 26.504 27.0368 25.9445C27.0284 25.787 27.02 25.6294 27.0113 25.4671C26.9906 25.0768 26.9709 24.6864 26.9515 24.296C25.2757 24.8577 25.2757 24.8577 24.0256 26.0544C23.863 26.7466 23.863 26.7466 24.0256 27.4221C24.4709 27.8864 24.4709 27.8864 25.0009 28.2036C25.1296 28.3325 25.2584 28.4615 25.391 28.5943C24.4463 28.5132 24.0615 28.1133 23.4404 27.4221C23.376 27.3576 23.3117 27.2931 23.2454 27.2267C23.1197 26.171 23.0947 25.3369 23.6355 24.4059C24.6115 23.5708 25.4511 23.0647 26.7564 23.1237C26.7353 22.7863 26.7353 22.7863 26.7138 22.4421C26.5803 20.1917 26.5387 17.9533 26.5614 15.6992C26.4326 15.6992 26.3039 15.6992 26.1713 15.6992C26.1524 15.801 26.1335 15.9027 26.1141 16.0076C25.4027 18.4483 23.6346 20.5887 22.075 22.5375C21.9382 22.7111 21.8014 22.8846 21.6605 23.0634C19.4259 25.7446 15.947 27.5807 12.7121 28.7897C11.944 28.7287 11.944 28.7287 11.3467 28.5943C11.2823 28.3364 11.2179 28.0785 11.1516 27.8128C11.8624 27.4088 12.4995 27.1764 13.2973 26.9947C15.9332 26.2935 17.8625 24.6276 19.7343 22.7329C19.9685 22.5047 19.9685 22.5047 20.2074 22.272C23.1921 19.1921 24.9615 14.8532 26.3785 10.8666C26.6586 10.1886 26.8071 10.0421 27.5489 9.99658Z" fill="#DEDFEF"/>
<path d="M28.5122 29.9619C28.6088 30.1553 28.6088 30.1553 28.7073 30.3527C28.5052 30.9043 28.2898 31.43 28.0489 31.9646C27.978 32.1223 27.9071 32.2801 27.834 32.4427C26.7284 34.8376 25.1957 37.7785 22.8067 39.0715C21.7072 39.4753 21.7072 39.4753 21.0999 39.3402C20.6488 39.0471 20.6488 39.0471 20.3197 38.5586C20.1543 37.3161 20.3991 36.4629 21.0999 35.4326C23.1326 32.8834 25.447 31.0724 28.5122 29.9619Z" fill="#010404"/>
<path d="M28.5121 29.962C27.9046 30.3676 27.2937 30.6613 26.6346 30.9755C24.2275 32.1601 21.9429 33.972 20.7097 36.4095C20.4304 37.2486 20.3143 38.1449 20.7097 38.9617C21.3631 39.2685 21.9909 39.1437 22.6603 38.9495C23.0549 38.6959 23.4461 38.4367 23.8306 38.1679C24.1203 38.2647 24.1203 38.2647 24.4158 38.3633C24.1781 39.0776 24.0161 39.1332 23.3673 39.4746C22.283 39.9872 21.3087 40.1533 20.1245 39.9264C19.5027 39.5722 19.5027 39.5722 19.1492 38.9495C18.9126 37.7979 19.0443 36.839 19.6124 35.8112C20.8912 33.93 25.8368 28.9068 28.5121 29.962Z" fill="#DEDFEF"/>
<path d="M28.5121 29.9619C27.8479 30.4054 27.1502 30.7283 26.4273 31.0609C26.2904 31.1244 26.1535 31.1878 26.0125 31.2532C25.6755 31.4094 25.3383 31.5649 25.001 31.7203C24.9366 31.5269 24.8722 31.3334 24.8059 31.1342C25.2761 30.8993 25.7474 30.6678 26.2201 30.4381C26.3531 30.3713 26.4861 30.3044 26.6232 30.2355C27.3459 29.8876 27.7472 29.7067 28.5121 29.9619Z" fill="#DEDFEF"/>
<path d="M23.8308 38.168C24.0239 38.2324 24.217 38.2969 24.4159 38.3633C24.2209 38.9495 24.2209 38.9495 23.8605 39.1777C23.7179 39.2434 23.5753 39.3092 23.4284 39.3769C23.2854 39.4441 23.1423 39.5114 22.9949 39.5807C22.8293 39.6551 22.8293 39.6551 22.6604 39.731C22.596 39.6021 22.5317 39.4731 22.4653 39.3402C22.8882 38.8955 23.3094 38.4943 23.8308 38.168Z" fill="#DEDFEF"/>
<path d="M25.0009 31.3296C25.0009 31.523 25.0009 31.7164 25.0009 31.9157C24.6595 32.1867 24.6595 32.1867 24.2207 32.4408C24.0758 32.5262 23.931 32.6116 23.7818 32.6995C23.6691 32.7633 23.5565 32.827 23.4404 32.8926C23.4404 32.7637 23.4404 32.6347 23.4404 32.5019C23.3117 32.4374 23.1829 32.3729 23.0503 32.3065C23.3016 32.1426 23.5537 31.98 23.8062 31.818C23.9465 31.7274 24.0868 31.6367 24.2313 31.5433C24.6108 31.3296 24.6108 31.3296 25.0009 31.3296Z" fill="#DEDFEF"/>
<path d="M23.6357 26.2498C23.7001 26.2498 23.7645 26.2498 23.8308 26.2498C23.871 26.4593 23.9113 26.6688 23.9527 26.8847C24.2714 27.7553 24.5937 27.9648 25.3913 28.3989C25.0621 28.5455 25.0621 28.5455 24.611 28.5943C23.9718 28.1774 23.6845 27.9593 23.4407 27.2267C23.526 26.7016 23.526 26.7016 23.6357 26.2498Z" fill="#DEDFEF"/>
<path d="M28.5121 29.9619C27.9296 30.3509 27.4204 30.5366 26.7566 30.7434C26.6278 30.6145 26.4991 30.4855 26.3665 30.3527C27.8155 29.6549 27.8155 29.6549 28.5121 29.9619Z" fill="#DEDFEF"/>
</svg>
