<svg width="609" height="160" viewBox="0 0 609 160" fill="none" xmlns="http://www.w3.org/2000/svg">
<g filter="url(#filter0_n_2851_55)">
<path d="M58.6806 144.286C58.9859 144.014 60.4993 143.216 61.0845 142.808C60.8652 143.746 57.574 145.264 58.6806 144.286ZM86.4478 50.3664C85.688 51.0264 84.9338 51.703 84.2963 52.3327C86.5486 51.1896 89.8484 49.3011 92.7488 48.3464C93.2058 48.1961 92.2914 49.2895 93.3493 48.8835C93.5293 48.8152 93.6649 48.7371 93.7731 48.6505C94.0947 48.3038 93.9261 47.6834 94.7395 47.2625C95.8392 46.6707 101.247 45.2782 103.084 44.6553C109.892 42.228 116.834 39.7842 124.013 38.7222C116.865 40.9567 124.32 40.032 126.316 39.3813C126.762 39.257 126.369 37.4332 133.853 36.7581C137.076 36.5094 136.23 37.8451 137.778 38.02C138.507 38.1084 139.76 37.9393 142.214 37.3047C136.034 36.2086 141.939 35.6461 146.702 35.2573C147.515 35.1657 154.121 35.0596 157.028 34.9532C158.021 34.9047 159.517 33.977 160.838 33.9502C161.752 33.9326 162.441 34.428 163.785 34.4165C170.057 34.3744 176.175 34.6724 182.349 35.4298C178.556 37.4074 185.074 36.6823 185.356 36.845C186.749 37.6181 180.135 37.1278 182.703 37.7809C186.362 38.0668 189.992 38.4401 193.583 38.8923C190.661 38.1759 197.803 37.5395 198.927 38.5262C198.803 36.3035 214.807 43.3977 217.362 43.4926C217.914 43.4975 214.758 41.607 222.52 44.1164C223.357 44.3956 222.883 44.903 223.344 44.9694C223.617 45.0077 225.751 43.5729 227.159 45.1011C227.668 45.6751 223.39 45.6907 232.216 47.8247C229.352 44.7968 244.52 50.6825 247.054 52.2917C246.598 51.8398 246.136 51.3872 245.667 50.9341C248.142 52.6041 248.91 52.1924 249.501 52.4551C251.886 53.5176 255.026 55.4795 257.265 56.3694C257.29 56.3793 257.315 56.3892 257.341 56.3988C259.678 57.2986 260.155 56.1833 262.66 57.7326C262.111 57.2164 261.602 56.7146 261.037 56.1896C262.876 57.0252 264.703 57.8502 266.539 58.6708C261.657 58.3998 267.433 59.1216 267.794 59.2289C268.37 59.4003 267.345 59.6903 268.292 59.9872C268.393 60.0134 268.465 59.3786 269.903 59.8867C272.903 60.9444 272.171 61.4797 273.414 61.9672C273.532 62.0096 273.311 61.3282 275.508 62.0593C282.455 64.3475 275.336 62.4499 275.036 62.4102C274.661 62.3671 276.184 65.4676 270.683 62.391C272.528 63.412 272.385 64.4533 272.586 64.561C272.761 64.6551 276.203 65.8539 276.396 65.8895C278.189 66.2162 276.956 64.9874 277.325 64.9972C277.639 65.0153 281.389 67.436 283.041 65.8277C284.346 68.3856 281.336 67.0586 277.971 66.0693C277.343 66.2539 280.833 68.013 281.003 68.0743C285.662 69.8422 283.603 67.3642 284.954 66.7957C285.653 66.4959 287.187 68.2276 285.915 66.2314C290.165 67.6747 287.344 67.4868 287.579 67.7062C287.923 68.0262 289.524 68.1905 289.694 68.3107C289.94 68.4871 288.834 68.5993 289.852 69.1602C290.031 69.2525 292.007 69.0878 289.926 67.8871C292.836 69.0933 292.821 68.3201 293.371 70.0584C296.263 68.2087 294.33 72.1218 295.089 72.5566C297.126 73.7118 297.152 71.4516 297.303 71.3951C298.271 71.0416 303.991 73.827 305.533 74.0222C304.501 75.288 300.829 72.4141 299.83 72.3709C296.445 72.2317 303.919 74.616 301.099 75.6685C302.201 75.4903 303.307 75.3124 304.394 75.1275C305.74 76.8891 303.147 76.5849 307.914 77.7107C308.983 76.9504 304.589 76.7705 305.645 76.241C306.28 75.9383 308.975 76.7332 309.109 76.5037C309.25 76.2238 306.725 75.7643 307.249 75.4338C308.373 74.7382 316.929 78.5897 310.043 76.9125C311.916 77.516 312.314 79.7988 314.129 79.7126C315.296 79.6519 310.177 75.0453 318.905 78.3863C318.837 79.3763 315.268 77.5268 315.157 77.5639C314.99 77.6227 315.057 79.9317 315.146 80.0723C315.476 80.5655 324.903 82.2785 326.555 83.8687C326.107 82.4529 333.529 85.6598 334.453 85.5067C334.7 85.468 334.05 84.5028 334.307 84.4913C335.899 84.4492 339.596 86.8464 341.455 87.3596C343.532 87.9392 343.409 87.2377 343.525 87.2695C344.435 87.5398 343.607 87.7793 344.17 87.9213C345.013 88.1458 350.822 89.6549 351.132 89.6243C351.223 89.6169 350.418 88.6756 351.713 88.8399C351.937 88.865 351.629 89.6962 355.456 90.1811C360.054 90.7523 352.52 88.4204 354.567 87.9539C357.219 89.8793 357.36 88.5979 358.122 88.8717C358.3 88.9358 359.182 89.6375 360.416 90.2066C361.024 90.4857 361.713 90.7323 362.435 90.8576C361.741 90.7924 361.043 90.724 360.339 90.6525C359.427 90.5605 358.515 90.4652 357.603 90.3668C358.284 90.6031 359.276 90.8173 360.275 91.0211C361.514 91.2742 362.744 91.5061 363.423 91.7613C364.022 91.986 363.377 92.7557 364.717 92.9932C364.997 93.0346 366.465 91.1556 362.809 91.4007C362.653 90.5881 364.245 91.4197 365.042 91.3547C365.164 91.3437 365.815 90.1753 366.66 91.1443C366.871 91.3724 363.746 94.5985 370.818 93.1392C371.042 93.091 370.365 92.5034 370.585 92.4448C370.738 92.4072 372.386 92.8811 372.575 92.8453C372.772 92.8077 372.034 92.1717 372.27 92.1113C373.482 91.8027 374.815 94.0365 372.388 93.484C373.165 93.8641 373.965 94.2422 374.746 94.6131C374.053 92.9866 376.07 94.3968 377.173 94.5102C384.352 95.2226 379.651 93.5868 380.925 93.2607C382.944 92.7197 381.241 95.0636 384.186 94.6571C384.444 94.6069 381.042 93.162 387.84 94.5215C386.842 94.4601 385.83 94.3909 384.803 94.3136C385.306 95.8131 388.462 94.6149 388.677 94.6138C391.352 94.6703 389.575 95.0325 393.512 94.6222C393.853 94.5837 394.617 94.9868 395.382 94.8628C398.507 94.3597 391.296 94.1475 391.116 93.5254C391.043 93.2726 398.762 93.8911 398.979 93.9943C400.089 94.6375 395.53 94.0642 396.386 94.835C396.708 95.1882 407.647 95.0015 409.786 95.1293C412.263 95.3993 413.596 97.1552 413.402 95.1007C414.308 97.0864 414.784 95.6729 415.094 95.6698C418.942 95.6022 418.924 95.6124 422.133 95.078C422.829 94.9579 423.521 95.4787 423.764 95.3443C423.9 95.2647 423.512 94.6659 424.19 94.3776C425.135 94.0239 431.093 93.6995 431.628 93.9061C432.159 94.1638 429.18 94.5288 429.845 94.988C431.992 94.6537 433.965 94.0901 436.056 93.6458C436.932 93.4587 436.606 93.9478 436.987 93.8606C437.166 93.8303 440.018 92.7013 439.853 92.5867C439.479 92.4489 430.266 94.7876 432.526 93.5459C432.936 93.3289 434.889 93.836 434.306 92.8182C442.624 91.2109 450.53 88.6357 458.965 84.8084C454.535 87.8376 449.04 89.3748 444.19 91.0368C443.546 91.2668 441.21 91.8759 441.689 92.3074C445.94 91.1897 450.92 89.0028 455.12 87.4885C455.256 87.4403 455 88.0842 455.523 87.9329C456.491 87.662 459.086 85.5791 459.715 85.4842C459.821 85.4854 458.413 86.8657 459.126 86.9658C460.969 87.2089 460.2 85.0561 461.379 84.5009C462.233 84.132 469.127 81.7271 470.649 80.1655C472.092 78.6004 465.406 82.4389 465.673 81.6287C467.317 80.5009 469.215 79.4581 471.228 78.4654C473.473 77.4153 475.727 76.4302 477.732 75.2182C477.79 75.1822 477.02 75.1102 477.744 74.6185C479.01 73.7535 479.709 74.0609 480.412 73.7466C481.164 73.4206 483.54 71.7697 483.995 71.7258C484.055 71.7214 483.942 72.5403 483.877 72.6045C482.967 73.5183 482.113 73.1038 482.01 73.1584C481.63 73.3655 481.451 73.8457 481.111 74.0372C480.548 74.3528 480.072 74.3099 479.336 74.7235C478.825 75.0083 479.625 75.1757 479.125 75.4454C478.934 75.5564 476.31 75.5979 476.833 76.7926C477.121 77.5296 492.864 67.4542 494.157 65.5344C492.742 66.4982 491.335 67.4198 489.928 68.3008C492.824 66.5652 495.368 63.1731 496.585 64.0205C504.239 57.6964 512.227 50.1088 521.044 42.8178C521.186 42.7034 521.577 42.3231 521.724 42.2169C524.474 40.197 527.169 38.2347 529.87 36.2834C532.022 34.8348 531.359 36.3073 534.607 33.6388C533.554 34.1005 532.539 34.5292 531.509 34.9672C533.333 33.847 541.263 28.5151 542.429 27.5029C542.572 27.3767 542.372 26.6741 544.298 25.2444C545.957 24.0193 546.614 24.1678 547.585 23.6046C548.395 23.1343 549.213 22.4039 549.465 22.2625C549.658 22.1545 549.918 22.3419 550.378 22.0856C551.827 21.2761 550.182 21.3926 552.157 21.1997C551.846 21.461 551.529 21.7268 551.237 21.9746C552.983 20.929 555.461 19.7462 553.199 21.5775C552.804 21.8983 552.986 21.4195 552.673 21.638C540.676 30.1794 550.623 23.7968 554.57 20.5244C555.944 20.0647 561.952 15.6926 562.262 15.6059C562.621 15.5077 561.744 16.4802 563.314 15.777C563.591 15.6007 572.165 9.93876 569.306 12.353C568.722 12.826 564.545 15.3842 563.589 16.0532C566.326 15.2241 571.174 10.75 571.905 10.3973C574.578 8.94579 567.313 13.995 573.222 10.5539C577.849 7.97932 573.255 9.9789 574.898 8.7833C575.783 8.06404 581.845 5.73966 581.458 5.17706C583.594 4.2023 582.492 5.08888 582.769 5.00306C582.933 4.95028 584.562 4.22285 586.124 3.7088C586.236 3.67804 586.562 3.54966 586.676 3.52582C587.739 3.2361 588.906 2.99676 589.535 2.94691C589.727 2.93077 589.22 3.40515 589.421 3.39916C589.865 3.30518 594.213 2.71332 594.311 2.71793C594.419 2.68676 593.384 2.45105 593.783 2.33937C594.298 2.1798 598.098 2.07316 598.27 1.99395C598.586 1.8261 593.879 2.14873 594.612 1.76402C596.892 1.68882 600.245 1.40024 601.568 1.12199C601.257 1.19955 599.241 1.23515 598.528 1.22703C598.845 0.692255 603.137 0.681236 601.691 1.08584C602.608 0.869246 601.964 0.758227 602.474 0.557456C602.613 0.505759 603.927 0.501504 604.162 0.419399C604.201 0.401968 602.833 0.205154 603.1 0.105679C603.587 -0.0803032 607.535 0.024127 607.843 0.0814762C608.747 0.229958 605.577 0.330832 605.304 0.540362C605.279 0.570958 608 1.01103 608.05 1.04659C608.217 1.426 605.203 1.11897 605.554 1.47028C606.311 1.54793 607.06 1.62701 607.803 1.70683C604.966 2.01429 599.555 1.87051 598.123 2.35408C602.57 2.08833 606.976 2.17164 607.022 3.05049C607.03 3.42383 605.209 3.65538 605.286 3.75271C605.581 4.09241 608.091 3.70548 608.195 3.72583C608.275 3.74625 608.312 3.76623 608.312 3.78578C608.312 3.78579 608.312 3.7858 608.312 3.78581C608.307 3.9803 604.711 4.15165 604.521 4.2526C604.226 4.42261 605.874 5.07361 605.881 5.22117C605.824 5.24918 603.258 5.464 604.144 5.70775C605.04 5.94965 607.28 5.91001 607.367 5.93652C607.799 6.07967 603.877 6.31132 603.76 6.41535C603.711 6.46354 605.828 6.695 605.896 6.77632C605.949 6.85734 604.366 7.08349 603.74 7.37395C603.278 7.58877 604.667 7.68901 604.423 7.72885C604.25 7.74972 600.534 7.90646 600.349 7.96002C600.077 8.02719 600.976 8.22034 600.849 8.28737C600.675 8.38215 599.464 8.36494 599.626 8.44573C599.76 8.49682 604.445 9.08622 604.427 9.30635C604.389 9.6716 599.455 9.08382 604.087 10.3036C604.128 10.3104 605.213 10.1508 605.252 10.1583C605.945 10.3888 602.429 10.9864 606.749 10.6878C598.738 11.5999 605.784 11.2928 604.625 11.979C604.175 12.2413 601.089 12.5657 601.083 12.6084C601.398 12.8934 602.365 12.5784 602.717 12.7047C602.895 12.7706 600.17 13.3193 600.803 13.4833C601.122 13.5605 604.061 13.291 604.173 13.3076C605.354 13.42 603.932 13.7376 604.197 13.8596C604.384 13.9391 606.136 13.8164 606.188 13.8305C606.264 13.8572 603.881 14.4169 603.396 14.5972C603.024 14.7325 604.451 14.7754 604.191 14.8423C602.621 15.2398 599.227 14.8737 602.515 15.5389C602.724 15.5786 603.949 15.4442 603.981 15.4537C604.755 15.658 602.493 15.8847 602.114 16.1529C601.447 16.6101 604.66 16.0735 601.996 16.6133C604.014 16.6643 605.149 16.5448 607.531 16.2698C600.937 17.0407 598.77 18.3492 605.988 17.5618C603.676 17.7731 603.964 18.3152 603.281 18.3986C602.843 18.4466 599.548 18.2705 601.126 19.3661C601.329 19.4988 603.3 19.0595 602.698 19.4575C597.949 19.9703 602.599 19.6726 602.617 19.7176C602.555 20.3499 594.201 21.0335 592.199 22.0544L592.77 21.8652C592.257 22.0807 591.884 22.2599 591.678 22.379C590.116 23.2739 588.975 24.8004 588.599 25.0456C587.41 25.8313 588.236 24.8841 587.907 24.9541C587.585 24.9765 584.362 28.0763 584.151 28.2233C583.374 28.626 583.847 27.7568 583.77 27.79C582.759 28.189 578.011 32.3527 576.565 33.4497C576.778 33.6307 579.546 31.3948 578.097 33.154C576.384 35.2421 575.549 34.3489 575.457 34.3505C566.194 42.0922 557.006 50.415 547.839 58.7852C548.474 59.2414 554.087 53.3445 554.258 53.3317C555.455 53.0087 545.354 62.255 543.941 63.195C544.954 62.489 546.048 61.7129 547.083 60.9851C546.299 62.6014 543.823 64.278 541.664 66.0975L542.296 65.539C541.616 66.182 541.007 66.8214 540.535 67.4785C539.957 68.2872 541.489 67.1745 541.475 67.2248C540.972 68.28 539.587 69.3685 540.147 68.0584C538.641 70.3569 538.555 69.7018 537.121 71.2064C537.047 71.2853 537.915 70.8927 536.916 72.2253C536.451 72.8415 533.66 75.9462 533.522 76.6123C533.471 76.8872 535.946 76.3519 535.21 75.2501C538.666 72.3253 535.764 73.7616 536.958 72.4822C537.142 72.2943 537.229 73.2276 539.929 69.7883C540.253 71.2868 536.227 74.3458 535.741 75.1245C534.779 76.6877 540.153 71.6441 540.358 69.99C540.622 71.1572 540.794 69.7031 541.917 68.5544C543.142 67.3031 542.818 68.0741 543.467 67.3831C543.568 67.2768 543.659 67.1774 543.741 67.0843L543.02 67.7217C544.605 66.1479 543.588 66.324 545.498 65.3166C542.687 65.3682 548.18 62.4796 549.733 61.6726C547.73 63.6804 545.705 65.7176 543.655 67.786C543.841 67.7479 544.026 67.7099 544.211 67.6722C543.979 67.8836 543.746 68.0961 543.511 68.3096L544.265 67.6437C543.97 67.9463 543.676 68.249 543.384 68.5516C543.396 68.3977 543.408 68.2439 543.42 68.09C541.347 71.2484 540.247 71.4374 540.035 71.651C537.339 74.501 534.28 77.989 531.484 81.1382C531.055 81.6149 531.857 81.7394 528.351 84.8653C527.223 85.8647 527.81 84.4339 526.712 85.76C526.266 88.3773 525.48 87.5358 525.041 88.0077C523.776 89.3746 523.225 90.4772 523.108 90.6073C521.545 92.3489 519.065 94.8046 517.184 96.7056C517.151 96.7453 518.448 96.1181 517.117 97.2274C516.646 97.6341 511.431 99.9127 508.079 103.545C509.134 102.835 510.176 102.114 511.21 101.377C510.068 102.272 502.13 109.294 504.45 108.118C505.911 107.414 508.126 103.905 509.192 104.618C507.164 106.099 498.606 113.05 493.106 116.458C491.539 117.505 490.238 118.354 489.898 118.477C489.728 118.537 490.425 117.566 490.192 117.655C490.04 117.707 486.826 119.95 486.29 120.099C485.981 120.184 487.309 119.001 487.116 118.943C486.987 118.907 482.637 121.492 482.606 122.139C483.614 121.254 486.636 119.519 485.318 120.914C485.136 121.099 483.941 121.455 483.724 121.677C481.783 123.717 488.497 119.197 489.357 118.607C485.85 121.776 478.538 125.528 473.173 128.956C470.729 129.775 476.148 126.497 473.47 127.547C467.851 129.693 472.333 128.899 472.214 129.032C471.112 130.197 465.49 130.201 466.256 131.952C464.105 132.661 464.731 132.111 461.946 133.658C462.377 133.612 462.807 133.565 463.234 133.516C460.489 136.09 452.583 136.098 453.059 135.647C454.273 134.581 458.068 134.033 458.387 133.863C458.831 133.622 459.34 131.35 464.738 130.754C466.153 128.683 456.87 133.339 460.843 130.577C458.031 132.178 445.43 135.734 443.74 136.709C443.539 136.846 444.915 137.876 441.605 138.113C440.032 138.218 443.622 137.172 442.859 137.066C440.615 137.416 412.236 143.264 406.832 143.051C406.479 143.077 406.591 142.621 406.244 142.648C405.131 142.74 401.414 143.616 399.464 143.463C403.402 144.157 395.819 144.507 393.865 144.397C390.937 144.275 391.179 143.459 389.927 143.28C385.091 142.591 377.61 144.176 374.027 142.065C374.034 143.898 367.749 140.676 364.843 140.316C362.565 140.059 358.98 140.851 362.034 141.958C358.505 141.479 355.04 141.271 351.615 140.908C351.076 140.852 350.544 140.794 350.023 140.731C349.409 140.657 350.346 140.242 349.297 140.132C349.201 140.125 348.975 140.639 348.071 140.555C340.614 139.834 344.422 139.268 343.113 138.709C342.385 138.391 341.836 138.198 341.428 138.094C345.558 138.724 350.344 139.26 351.867 139.455C351.923 139.462 351.975 139.469 352.022 139.476C351.988 139.427 351.943 139.38 351.888 139.335C350.473 138.162 342.41 138.175 340.123 137.426C340.041 137.399 340.468 136.8 340.383 136.78C340.381 136.779 340.379 136.779 340.378 136.779C339.478 136.576 333.649 135.713 334.67 136.719C334.941 136.988 337.61 137.506 340.794 137.998C339.905 137.99 340.398 138.835 340.24 138.839C338.323 138.88 333.977 137.319 332.414 136.901C332.055 136.808 331.976 137.283 331.916 137.272C330.494 136.877 331.392 135.653 329.599 136.738C327.374 134.534 334.553 137.477 334.265 136.275C334.007 135.434 317.389 132.297 317.103 133.57C317.082 133.415 316.901 133.186 316.49 132.876C315.57 132.192 310.979 131.22 310.119 131.261C309.973 131.276 309.674 132.582 309.506 132.552C309.078 132.486 303.802 130.05 301.509 130.252C302.582 130.734 303.646 131.209 304.717 131.681C297.937 129.914 298.879 130.558 301.02 131.554C301.132 131.587 301.228 131.666 301.334 131.7C303.014 132.455 305.172 133.304 305.184 133.416C305.196 133.868 293.612 131.002 296.19 130.385C296.546 130.312 301.698 132.277 299.323 130.712C298.919 130.444 295.421 129.749 295.281 129.605C294.273 128.649 301.944 129.846 301.293 128.699C299.256 129.069 297.057 127.981 294.952 127.627C293.979 127.461 293.552 128.047 293.432 128.027C291.652 127.706 292.831 127.298 292.251 127.151C291.948 127.079 288.086 127.546 289.359 125.726C277.758 123.876 285.791 126.331 292.705 128.174C290.323 128.296 286.162 126.694 284.207 126.288C283.507 126.145 283.694 126.938 282.503 126.726C280.019 126.312 268.999 121.962 266.169 120.779C268.043 121.136 267.773 120.229 266.38 119.82C264.994 119.412 265.796 120.776 265.492 120.792C265.155 120.811 258.863 118.147 257.745 117.889C262.725 119.215 261.893 118.109 257.811 116.599C258.48 116.595 259.176 116.601 259.83 116.59C257.296 116.05 252.68 113.134 251.185 112.963C250.951 112.939 251.486 113.834 251.355 113.821C250.051 113.651 246.154 111.498 245.9 111.642C245.667 111.756 247.219 112.92 246.47 112.934C246.314 112.938 244.939 111.477 243.214 111.065C242.582 110.914 242.72 111.635 242.551 111.61C241.121 111.394 242.288 110.709 239.867 109.973C238.65 109.604 237.444 109.704 236.134 109.416C235.61 109.31 235.052 109.125 234.44 108.784C235.086 109.166 235.599 109.481 236.006 109.739C238.565 111.285 237.584 110.974 235.771 110.328C234.735 109.965 233.27 109.441 232.225 109.213C231.743 109.109 231.728 110.307 229.162 108.809C235.793 108.981 227.851 107.161 226.303 106.645C226.219 106.61 226.444 105.886 225.676 105.617C225.61 105.596 225.538 106.11 224.805 105.91C217.925 104.087 222.429 104.929 221.304 104.038C220.836 103.66 217.294 103.348 216.41 103.119C216.204 103.061 216.454 102.577 215.648 102.368C214.225 102.002 212.828 102.211 211.877 102.004C211.768 101.979 211.986 101.157 210.161 100.966C209.646 100.912 209.013 101.06 209.653 101.475C211.744 102.824 216.563 102.729 218.937 104.287C221.11 105.684 213.553 103.522 213.184 103.459C213.04 103.422 214.621 103.423 213.155 102.934C211.881 102.51 209.189 103.309 207.36 102.534C207.227 102.475 206.016 100.908 206.1 100.854C206.18 100.816 208.573 101.126 208.331 100.699C208.292 100.646 206.816 100.292 206.682 99.9863C206.526 99.6143 206.645 96.3623 206.335 96.2065C205.542 95.8164 205.916 96.6523 205.385 96.4762C204.279 96.098 200.442 94.3029 200.087 95.3705C200.737 95.5719 201.368 95.7721 202.027 95.9818C198.328 95.3147 199.796 96.1145 199.233 96.2078C198.625 96.3153 198.986 95.391 197.752 95.0557C197.499 94.9687 192.245 94.2321 192.279 94.6695C195.248 94.5131 193.985 95.5274 194.108 95.5683C194.598 95.7345 195.366 95.1854 196.038 95.3242C200.745 96.3336 195.766 96.4626 196.829 96.9468C197.186 97.1086 198.072 96.6939 198.23 96.7556C198.741 96.9546 198.594 97.6959 198.959 97.707C199.808 97.7349 199.072 96.4947 199.147 96.4533C200.028 95.9443 202.722 97.3703 200.682 98.1243C201.659 98.7594 202.105 97.4125 202.831 98.1502C204.264 99.6143 201.807 98.7707 201.073 98.8078C198.495 98.9519 197.863 98.2597 194.366 97.8104C193.087 97.6466 191.513 98.0826 190.925 98.0268C190.565 97.985 187.478 95.096 186.826 98.8008C185.553 98.2536 183.803 95.5345 182.39 95.4876C181.128 95.4483 181.376 96.8157 181.253 96.8533C181.07 96.9132 179.598 96.6534 179.075 96.7932C178.462 96.9576 178.705 97.4895 177.752 97.6102C175.4 97.92 175.578 96.5832 175.345 96.4742C172.646 95.2552 173.716 97.2746 173.097 97.3874C172.54 97.4504 164.595 96.399 162.948 96.9399C163.626 96.6686 164.306 96.4017 164.988 96.1391C163.786 95.271 162.483 96.6571 162.465 95.1344C162.209 97.5889 159.716 95.9681 158.959 96.0545C158.663 96.0876 158.695 96.506 158.326 96.5338C156.873 96.6368 153.636 96.4606 152.861 96.7303C149.588 97.8419 158.183 98.8677 158.852 99.0027C157.477 98.9595 150.007 99.9627 153.524 100.935C154.064 101.084 154.949 99.9352 155.249 99.8783C157.265 99.5039 155.71 100.561 155.874 100.647C156.147 100.785 157.444 99.7812 157.807 99.8852C157.925 99.9195 157.196 100.829 159.129 100.798C158.19 101.66 152.779 101.211 152.092 101.488C151.842 101.589 153.555 103.28 148.84 101.879C148.908 102.046 148.977 102.212 149.045 102.378C147.837 102.523 146.63 102.684 145.421 102.861C144.119 103.051 142.834 103.253 141.538 103.469C141.75 103.04 143.055 102.06 141.296 102.471C140.283 102.712 141.176 103.477 141.085 103.515C140.177 103.72 124.213 106.406 121.241 107.48C120.196 107.775 117.578 109.202 117.361 109.281C117.091 109.372 116.665 109.484 116.152 109.609C116.152 109.338 114.034 109.776 113.548 110.076C113.169 110.295 113.899 110.753 113.513 110.875C113.145 110.994 113.18 110.248 113.061 110.267C112.365 110.143 104.801 115.008 102.248 115.863C103.67 115.218 108.89 110.912 108.478 110.628C108.417 110.584 106.731 110.892 106.566 111.264C105.753 111.049 105.016 113.438 103.866 113.696C103.733 113.73 103.609 112.674 101.767 113.541C101.157 113.826 99.9852 115.379 97.8955 115.672C95.8689 117.262 82.4235 124.563 82.1183 125.946C82.126 125.999 84.1537 125.062 83.1804 126.161C81.8798 127.625 82.216 125.333 80.227 126.472C79.932 126.638 74.7456 130.306 74.6305 130.508C73.6324 132.28 78.5527 129.482 78.5527 129.622C78.5849 129.932 74.804 132.602 74.6068 132.654C74.4135 132.708 76.7533 129.69 73.2667 132.554C73.8 132.375 74.3331 132.198 74.8657 132.022C73.2691 133.41 72.5307 132.895 72.0631 133.146C70.6037 133.934 69.9804 135.815 66.7711 136.137C65.9243 136.225 66.575 135.25 66.4617 135.253C65.4081 135.322 65.5053 136.98 63.7433 136.894C63.6126 136.892 65.5847 134.761 61.3782 137.655C61.7366 137.529 62.0948 137.405 62.4536 137.281C62.016 137.856 57.8257 140.869 57.2076 141.23C55.4166 142.275 56.4142 140.763 54.7792 141.99C56.5189 141.931 51.4136 145.536 51.1754 144.77C51.133 145.968 46.2021 148.421 44.0987 149.846C42.7897 150.725 40.3515 152.838 39.9045 153.082C39.3566 153.387 39.1036 152.86 38.0959 153.396C37.7959 153.571 35.3691 155.693 32.533 156.967C31.9868 157.208 30.3856 157.242 31.0802 156.482C32.269 155.161 35.5762 153.734 35.1428 153.359C34.6818 152.949 31.201 155.888 30.1544 156.535C25.2678 159.626 27.5476 157.295 27.2947 157.25C26.6821 157.169 24.207 159.026 24.0666 159.086C23.5126 159.301 25.0754 157.718 24.904 157.527C24.7062 157.249 21.8876 158.693 22.358 158.193C23.022 157.471 25.5411 156.143 25.664 156.023C27.2247 154.389 24.1985 155.748 23.286 156.01C23.0041 156.089 23.6628 155.311 23.473 155.42C20.5579 157.128 23.6959 156.621 21.9034 157.911C20.3142 159.055 21.926 157.154 21.8485 157.175C21.7439 157.222 19.9343 158.64 19.5202 158.763C19.329 158.834 23.3421 154.292 22.8027 154.134C21.4171 155.427 19.9727 156.771 18.5675 158.065C18.0841 157.765 20.4616 156.283 20.6519 156.051C21.0122 155.594 19.5768 156.439 19.5082 156.27C19.4579 156.172 20.6045 154.643 19.1954 155.65C18.7183 155.996 18.0555 157.067 16.1626 158.217C21.4221 152.944 17.3104 156.124 17.0266 156.142C16.7416 156.149 19.0333 153.434 15.896 156.414C15.0187 155.809 15.7298 156.119 16.5126 155.142C17.4441 153.962 14.6425 156.093 18.8616 152.517C18.2406 152.379 15.0947 155.419 14.8778 155.573C14.7054 155.69 15.2521 154.834 14.9383 155.022C11.2979 157.25 13.6449 155.57 12.377 155.991C12.2771 156.01 9.32025 158.687 11.3887 156.487C15.0937 152.509 17.2364 151.445 16.7677 149.656C13.4594 152.09 10.7995 156.261 9.92084 157.152C8.64517 158.497 9.78287 156.926 9.56801 157.033C9.48879 157.079 8.42127 158.225 8.37347 158.244C6.85092 158.36 13.3118 153.029 15.0173 151.037C14.402 151.419 13.8035 151.793 13.199 152.181C13.8461 151.489 14.4885 150.804 15.1489 150.101C11.7752 153.135 14.9373 150.149 15.0418 148.602C15.0576 148.259 13.2792 150.744 15.1793 147.783C13.3664 149.549 13.7661 148.833 12.4368 150.689C12.2022 150.402 15.3301 146.271 16.5444 144.6C11.4793 149.614 15.1637 147.591 10.5299 151.69C10.0798 152.866 12.0024 150.589 11.8996 150.82C11.4782 151.677 9.8942 152.852 8.85199 155.323C8.68667 155.714 10.141 154.801 8.44367 156.601C8.26335 156.788 6.92013 157.707 6.91545 157.676C6.8625 157.313 7.98919 156.228 7.9412 156.099C7.90227 155.97 6.78479 157.313 6.75059 157.304C6.46282 157.091 7.6371 156.11 7.40516 156.199C6.89389 156.367 2.21083 160.616 7.77567 154.555C3.57914 159.98 7.46798 155.512 9.15229 153.374C9.56248 152.846 9.50838 152.558 10.0864 151.775C10.8344 150.761 11.8905 149.738 12.2753 149.235C12.6992 148.673 9.68201 151.239 13.5734 147.056C11.2272 148.842 8.32344 153.14 6.21849 155.047C1.99019 158.995 8.17701 151.31 8.73739 150.505C8.89489 150.281 8.09228 150.758 8.1938 150.605C8.35553 150.349 12.0018 146.194 12.1748 145.554C12.3257 144.929 10.8661 147.147 10.559 147.069C10.3526 147.024 14.3406 141.579 11.9554 144.283C10.3033 146.185 7.93197 150.305 6.90377 150.347C9.14875 147.407 11.3947 144.49 13.6772 141.565C12.1408 142.906 10.6722 144.228 9.1896 145.614C11.6764 142.239 14.1645 139.748 16.2895 136.287C9.58099 142.915 17.5222 133.201 17.5248 132.982C17.4754 132.881 14.4991 135.131 14.0211 135.499C15.7492 132.611 21.8328 124.418 17.3151 128.229C18.1703 127.571 19.2508 124.982 19.1885 124.969C18.5895 124.804 15.4275 129.661 15.6416 128.553C15.8653 127.274 17.3289 126.605 18.2759 125.241C23.1922 118.213 19.539 117.756 25.0848 111.24C24.8985 111.289 24.7126 111.338 24.5272 111.388C30.3223 104.054 36.4207 96.906 42.9154 89.9732C44.5718 86.275 50.8973 78.2989 54.6337 74.8658C55.339 74.1775 59.4362 71.2143 59.7876 71.0736C60.4427 70.7774 57.6858 73.4919 59.2266 72.6411C59.4754 72.4625 66.1244 66.9061 65.2571 66.7073C64.4303 67.2959 62.3971 69.6158 61.9252 69.812C58.1056 71.0976 80.0443 54.2134 82.7863 52.895C82.0175 53.0561 81.2019 53.2547 80.485 53.4076C82.3756 52.3642 84.1852 51.4242 86.4478 50.3664ZM62.5497 139.757C62.2249 140.695 60.0605 141.585 59.0758 142.436C57.7209 143.625 56.6419 146.918 56.2334 144.574C58.3504 142.977 60.4585 141.367 62.5497 139.757ZM94.9078 119.94C93.2429 120.508 93.3606 118.565 94.9186 118.374C95.0908 118.355 97.1375 119.2 94.9078 119.94ZM79.4051 128.976C79.4547 128.92 80.7395 128.126 80.7977 128.116C82.3186 127.834 78.4376 130.215 79.4051 128.976ZM146.291 101.276C144.684 101.537 146.04 103.025 146.96 102.25C147.019 102.2 146.398 101.26 146.291 101.276ZM145.136 101.365C143.693 100.057 141.587 103.331 143.53 102.776C143.715 102.72 145.195 101.428 145.136 101.365ZM89.4597 122.617C89.3021 122.145 90.939 121.377 91.6335 121.08C91.9046 121.435 90.0328 122.188 89.4597 122.617ZM121.303 106.747C121.226 106.302 116.205 107.695 116.053 108.345C116.773 107.869 121.353 107.12 121.303 106.747ZM134.194 103.32C134.049 103.267 132.291 103.71 132.427 104.08C133.4 104.41 134.848 103.553 134.194 103.32ZM160.962 100.711C161.066 100.616 159.645 98.1382 162.975 99.758C163.459 99.9963 161.723 100.644 161.897 100.734C162.257 100.905 162.541 100.986 162.769 101C161.23 101.203 159.66 101.331 159.504 101.184C158.772 100.489 160.92 100.749 160.962 100.711ZM175.582 99.3693C175.938 98.9899 177.989 99.3818 178.447 99.5951C178.524 99.634 178.067 100.652 179.002 100.663C179.754 100.673 178.755 99.482 180.192 99.8034C181.639 100.132 179.594 100.691 179.717 100.761C179.876 100.846 182.206 100.613 182.061 101.233C181.947 101.685 179.565 101.108 178.955 101.153C178.175 101.206 179.024 102.067 177.762 101.782C176.968 101.605 177.545 100.284 177.381 100.2C177.236 100.125 174.362 100.687 175.586 99.374C175.585 99.3724 175.584 99.3709 175.582 99.3693ZM163.184 100.94C163.068 100.986 162.933 101.011 162.769 101C162.908 100.982 163.047 100.96 163.184 100.94ZM66.5278 136.573C67.5132 136.3 65.506 138.115 64.3582 138.388C64.1194 138.153 66.3729 136.617 66.5278 136.573ZM164.622 99.8346C166.915 100.217 165.2 100.647 163.184 100.94C163.828 100.685 163.855 99.7113 164.622 99.8346ZM106.566 111.264C106.7 111.301 106.834 111.398 106.977 111.599C106.615 111.488 106.515 111.38 106.566 111.264ZM111.086 109.483C112.076 108.19 109.261 109.542 109.554 110.011C109.669 110.177 111.056 109.524 111.086 109.483ZM148.37 101.14C148.195 101.08 150.519 98.4273 146.992 100.595C148.991 100.677 146.939 101.149 146.994 101.357C147.133 101.944 150.375 101.052 151.136 101.267C151.631 100.136 148.923 101.338 148.374 101.14C148.372 101.14 148.371 101.14 148.37 101.14ZM202.123 103.981C201.517 104.49 200.056 103.966 199.072 103.726C199.663 103.203 201.133 103.722 202.123 103.981ZM515.984 98.5027C509.45 105.101 507.388 104.49 514.129 99.364C514.262 99.2666 516.277 97.9897 515.984 98.5027ZM448.713 139.162C447.616 138.612 450.389 137.541 452.348 137.194C452.787 137.12 454.594 137.375 452.895 138.194C452.638 137.179 449.749 137.793 448.713 139.162ZM165.94 99.1335C166.638 98.3922 168.693 98.9891 169.786 99.1537C169.078 99.7387 166.908 99.3849 165.94 99.1335ZM491.428 116.455C490.709 116.855 490.611 117.752 490.755 117.725C491.407 117.607 492.397 116.287 491.428 116.455ZM159.279 99.0189C159.173 98.5658 161.908 98.0954 162.103 99.2132C161.511 99.1304 159.353 99.2965 159.279 99.0189ZM200.296 103.242C199.909 102.926 202.257 103.016 202.877 103.39C202.715 103.836 200.553 103.444 200.296 103.242ZM479.437 124.446C478.693 124.83 476.796 125.926 476.734 126.296C476.641 126.776 479.34 125.034 479.437 124.446ZM587.314 28.2063C587.414 28.2196 585.675 30.2405 584.661 30.8672C582.711 32.0263 587.247 28.1388 587.314 28.2063ZM498.742 111.138C501.382 110.039 498.498 111.341 498.969 111.833C500.545 110.768 504.317 107.952 501.355 109.352C500.781 109.622 499.487 110.667 498.742 111.138ZM496.498 112.423C496.374 112.777 495.053 114.507 496.481 113.483C497.136 113.009 497.8 111.613 496.498 112.423ZM574.213 39.1894C572.37 40.2106 579.764 34.149 579.988 34.0957C580.123 34.0325 580.217 34.0007 580.276 33.9906C580.479 33.6531 581.805 32.5335 582.157 32.6656C581.72 32.9836 580.653 33.9063 580.492 33.9931C580.426 34.0275 580.375 34.0509 580.338 34.0632C580.049 34.6481 574.543 38.9889 574.213 39.1894ZM561.935 49.5711C563.345 47.3889 564.33 48.0214 564.208 48.1806C562.571 50.305 563.304 48.5023 563.223 48.5244C563.052 48.5912 561.887 50.1796 561.941 49.5659C561.939 49.5676 561.937 49.5694 561.935 49.5711ZM571.645 41.2105C571.727 41.12 573.216 39.8489 573.315 39.7885C574.778 38.9768 570.434 42.6874 571.645 41.2105ZM186.937 99.0863C188.18 99.4822 186.812 100.092 186.008 99.6923C185.942 99.6553 185.837 98.7396 186.937 99.0863ZM495.436 113.321C495.283 113.375 493.946 114.174 492.346 115.138C490.351 116.36 487.589 118.24 488.142 118.513C488.43 118.263 490.854 116.765 492.622 115.618C494.863 114.206 496.617 112.92 495.436 113.321ZM427.634 143.368C429.43 143.03 427.605 144.315 426.606 144.15C426.24 144.088 427.175 143.453 427.634 143.368ZM155.569 98.1027C154.255 98.7956 154.428 96.6727 155.636 97.3408C155.683 97.367 155.621 98.0757 155.569 98.1027ZM441.865 140.535C435.917 142.701 436.752 139.657 444.771 138.284C444.563 138.48 444.354 138.675 444.143 138.87C453.268 136.389 444.798 138.931 442.638 139.691C441.802 139.996 442.632 140.247 441.872 140.537C441.87 140.536 441.867 140.536 441.865 140.535ZM418.319 144.815C412.211 143.496 423.599 143.43 426.723 142.479C423.799 143.88 419.625 144.408 425.312 144.351C417.184 145.857 420.519 144.435 420.172 144.44C419.787 144.419 418.582 144.871 418.319 144.815ZM433.832 142C434.174 141.866 436.754 141.672 437.699 141.355C436.533 142.389 431.652 142.914 433.832 142ZM549.601 61.4113C549.478 60.9982 549.659 60.4457 551.047 59.3517C550.775 59.8666 550.027 60.7867 549.601 61.4113ZM59.3574 138.764C58.3409 139.422 56.2345 140.659 57.1936 140.614C57.2933 140.597 59.5554 138.983 59.3574 138.764ZM471.843 127.534C471.575 127.661 464.614 131.135 467.246 130.441C468.071 130.267 474.29 126.848 471.843 127.534ZM503.916 106.79C503.402 107.194 501.346 108.861 501.356 108.986C501.436 109.417 503.91 107.27 503.916 106.79ZM54.0016 141.877C53.8421 141.928 50.8508 144.118 51.3419 144.047C52.2752 143.917 54.5723 141.691 54.0016 141.877ZM191.859 98.2193C192.134 98.2393 192.359 99.032 192.45 99.0558C192.663 99.0874 197.655 99.7188 195.588 100.306C195.254 100.375 188.224 98.8249 187.332 98.6376C187.13 97.5715 190.005 98.9802 190.762 99.0028C190.895 99.0043 191.122 98.1742 191.856 98.2232C191.857 98.2219 191.858 98.2206 191.859 98.2193ZM556.077 54.8506C556.057 54.3825 560.822 49.7208 561.006 50.1171C559.383 51.6688 557.741 53.2463 556.077 54.8506ZM553.563 57.0952C552.344 57.8764 554.773 55.5226 555.53 54.9733C555.695 55.1431 553.75 56.9731 553.563 57.0952ZM491.071 113.729C490.828 113.956 491.246 113.937 491.647 113.924C492.093 113.865 492.531 113.803 492.346 113.994C492.276 114.066 492.097 114.175 491.867 114.306C491.422 114.557 490.692 114.929 490.488 115.242C490.42 115.363 491.843 115.134 492.216 114.913C492.236 114.901 492.253 114.89 492.269 114.879C492.872 114.453 492.024 114.408 492.696 113.975C494.901 112.55 497.044 111.516 499.055 110.066C499.238 109.935 497.629 110.662 499.194 109.55C499.431 109.378 501.162 108.765 502.93 107.311C506.003 102.966 509.753 101.833 513.974 97.1568C513.722 97.2214 510.023 100.054 509.789 100.216C505.741 103.518 498.135 109.283 493.427 112.258C492.236 113.03 492.986 112.947 492.475 113.291C492.118 113.528 492.208 112.9 491.384 113.467C491.294 113.531 491.192 113.617 491.071 113.729ZM59.6383 138.134C58.7202 137.984 57.3519 139.44 56.2647 140.157C57.0341 140.314 58.5068 138.749 59.6383 138.134ZM533.191 77.192C532.775 77.6904 531.304 79.0893 531.308 79.3335C531.321 79.6465 533.366 77.5536 533.191 77.192ZM219.626 105.06C219.69 105.054 221.017 105.513 221.056 105.555C222.032 106.598 218.06 105.223 219.626 105.06ZM253.878 117.469C255.097 117.788 256.363 117.946 256.513 118.741C255.816 118.385 253.566 117.879 253.878 117.469ZM305.812 133.357C305.805 132.446 309.3 133.918 309.983 134.163C309.616 134.479 305.834 134.024 305.812 133.357ZM548.347 60.2889C549.97 58.8328 549.139 58.5098 550.387 57.8564C550.589 57.755 552.195 58.5346 550.026 59.6932C549.635 59.9 550.626 58.4442 548.347 60.2889ZM446.048 137.909C446.556 137.238 448.511 136.751 449.827 136.331C449.624 136.789 447.002 137.579 446.048 137.909ZM48.1709 145.364C46.9242 145.535 43.3475 148.577 44.5626 148.168C44.7452 148.099 47.607 145.738 48.1709 145.364ZM170.791 96.4216C172.52 95.8064 169.018 95.4088 167.907 96.0695C168.402 96.0361 170.676 96.4586 170.791 96.4216ZM293.293 129.498C293.399 129.501 295.475 130.147 295.558 130.202C297.081 131.338 291.194 129.513 293.293 129.498ZM242.23 112.024C243.119 111.762 247.788 113.977 248.628 114.872C247.324 115.277 241.058 112.339 242.23 112.024ZM542.555 66.0226C542.587 65.988 542.619 65.9535 542.651 65.9191L541.998 66.497C543.123 65.438 544.237 64.539 545.32 63.7171C545.295 64.0828 542.747 66.162 542.039 66.5462L542.695 65.9659C542.628 66.0061 542.579 66.0264 542.555 66.0226ZM301.02 131.554C301.132 131.587 301.228 131.666 301.334 131.7C301.227 131.651 301.122 131.601 301.02 131.554ZM518.392 91.8916C517.296 92.8136 517.891 93.0316 517.968 92.9817C518.864 92.3523 519.624 90.8457 518.392 91.8916ZM57.7713 138.281C57.0103 138.115 55.5313 139.707 54.4095 140.335C55.0121 140.449 56.9896 138.906 57.7713 138.281ZM411.935 144.204C410.049 143.686 417.488 142.087 419.147 142.276C419.31 142.723 412.237 144.306 411.935 144.204ZM165.613 95.0372C165.504 94.3998 163.081 95.1367 163.592 95.4406C163.914 95.6296 165.666 95.4281 165.613 95.0372ZM422.976 142.007C423.674 141.742 425.389 141.954 424.85 142.355C424.156 142.871 422.795 142.082 422.976 142.007ZM482.746 118.633C482.486 118.724 479.3 121.25 480.937 120.781C482.065 120.458 481.908 119.78 482.132 119.637C482.406 119.479 488.087 116.786 482.746 118.633ZM370.291 143.78C371.83 143.7 373.601 144.077 375.241 144.171C374.528 144.465 370.884 144.285 370.291 143.78ZM175.01 95.3053C174.722 94.9887 166.727 94.4369 171.234 95.4441C171.496 95.4881 175.839 96.1317 175.01 95.3053ZM548.347 60.2889C548.146 60.4695 547.906 60.6692 547.615 60.8906C547.89 60.6546 548.136 60.4599 548.347 60.2889ZM531.929 77.1766C532.07 76.6023 530.312 78.4436 529.908 79.1155C530 79.5304 531.915 77.2507 531.929 77.1766ZM375.415 143.631C376.363 143.47 378.009 143.81 379.136 143.84C378.923 144.199 375.786 144.034 375.415 143.631ZM313.161 133.073C314.813 133.714 316.953 134.104 317.103 133.647C317.119 133.728 317.183 133.824 317.301 133.934C317.42 134.043 319.314 134.253 320.078 134.593C324.604 136.683 301.51 130.749 315.284 132.675C314.576 132.809 313.868 132.941 313.161 133.073ZM236.306 108.497C235.748 107.618 233.141 107.478 233.656 107.93C234.035 108.244 236.88 109.38 236.306 108.497ZM272.062 120.856C271.806 120.661 269.105 120.22 268.94 120.501C270.281 121.299 273.195 121.752 272.062 120.856ZM230.297 105.517C229.818 105.249 228.815 105.961 228.861 106.024C229.264 106.55 230.959 106.343 230.297 105.517ZM544.017 62.157C543.28 62.6067 541.462 64.8509 541.243 65.5867C541.241 65.5869 541.24 65.5872 541.238 65.5874L541.842 65.0537C541.713 65.0798 541.441 65.2212 540.99 65.5218C540.991 65.5206 540.992 65.5194 540.993 65.5182C540.396 65.7498 525.151 82.2599 535.843 71.6649C536.176 71.3394 535.495 71.5436 536.82 70.1979C536.908 70.1092 537.156 70.2737 537.428 69.9999C538.052 69.359 541.376 66.0784 541.87 65.2446C541.901 65.269 541.951 65.2716 542.023 65.2476L541.408 65.7912C541.436 65.783 541.467 65.7714 541.501 65.7562C542.683 65.2206 544.599 61.792 544.017 62.157ZM277.19 122.409C276.733 122.083 275.035 121.715 274.729 122.054C275.494 122.515 278.259 123.173 277.19 122.409ZM174.899 93.4994C173.982 93.0673 171.586 93.6002 172.275 93.999C172.688 94.2351 175.942 93.9869 174.899 93.4994ZM260.748 117.203C266.585 119.73 262.196 117.659 263.324 117.396C262.485 117.34 261.602 117.267 260.748 117.203ZM565.403 44.0255C564.635 44.6036 565.087 43.3437 566.108 42.913C566.426 42.7801 565.844 43.69 565.403 44.0255ZM596.198 21.5895C595.421 21.2618 598.907 20.8966 597.58 21.4511C597.514 21.4701 596.238 21.5944 596.198 21.5895ZM574.971 35.2008C574.72 35.893 574.385 36.2274 572.977 37.3098C574.936 35.5055 572.875 36.8256 574.971 35.2008ZM317.103 133.57C317.107 133.6 317.111 133.622 317.103 133.647C317.097 133.62 317.097 133.595 317.103 133.57ZM225.258 104.004C224.814 103.187 222.934 102.632 223.287 103.417C223.326 103.491 224.838 104.358 225.258 104.004ZM541.243 65.5867C541.328 65.5732 541.347 65.6046 541.313 65.6775L541.922 65.1394C541.912 65.168 541.894 65.2031 541.87 65.2446C541.831 65.2139 541.827 65.1509 541.846 65.0574L541.241 65.5913C541.242 65.5898 541.242 65.5882 541.243 65.5867ZM235.379 107.027C235.252 107.248 235.973 107.699 236.671 108.068C237.345 108.416 238.062 108.718 238.131 108.717C239.613 108.683 238.208 108.054 236.876 107.554C236.322 107.347 235.745 107.155 235.379 107.027ZM156.093 92.4915C155.952 92.5475 156.928 93.7585 157.491 93.2522C157.929 92.8586 156.628 92.2763 156.093 92.4915ZM579.588 31.2209C580.358 30.6036 581.413 29.7746 581.786 29.8314C581.252 30.1915 579.677 31.4059 579.588 31.2209ZM594.94 21.5342C594.322 21.8914 593.414 22.2328 592.375 22.6424L592.981 22.4414C592.528 22.648 592.107 22.8426 591.762 23.0048C591.694 22.8584 592.172 22.5448 592.894 22.2037L592.302 22.3998C593.302 21.9849 594.423 21.7095 594.94 21.5342ZM546.214 60.4075C546.146 60.442 544.109 62.0951 544.597 62.1218C545.318 62.1528 546.873 60.057 546.214 60.4075ZM160.473 93.0393C161.476 92.6043 159.139 91.3298 158.092 92.3679C157.562 92.8934 160.307 93.1063 160.473 93.0393ZM219.71 101.377C218.266 101.305 221.395 102.903 222.03 102.448C221.444 102.211 220.228 101.404 219.71 101.377ZM268.339 117.955C264.212 114.698 265.712 118.612 266.633 118.622C266.763 118.623 268.441 118.033 268.339 117.955ZM36.8557 150.659C36.4101 151.166 38.8503 150.075 38.8639 149.616C38.8654 149.329 37.1362 150.335 36.8557 150.659ZM341.428 138.094C341.214 138.062 341.003 138.03 340.794 137.998C340.955 137.999 341.162 138.027 341.428 138.094ZM208.166 95.6792C210.515 98.9226 210.706 96.9319 210.966 97.0071C211.526 97.1804 212.629 98.1918 213.729 98.3744C212.422 98.3184 211.162 98.2864 209.871 98.257C210.781 98.6384 218.778 101.864 219.042 101.545C219.462 101.048 216.835 100.467 216.766 100.396C216.679 100.294 216.742 98.592 216.513 98.4613C216.16 98.228 209.184 96.321 208.166 95.6792ZM258.368 114.828C259.061 115.274 259.062 115.951 259.472 115.933C259.61 115.926 259.836 115.36 260.295 115.353C259.673 115.186 259.005 115.001 258.368 114.828ZM202.25 96.6972C201.575 95.7593 205.304 96.8881 205.403 97.0079C205.918 97.6585 202.811 97.4547 202.25 96.6972ZM234.164 105.988C234.066 105.901 231.258 104.631 231.149 105.043C231.81 105.609 235.558 107.092 234.164 105.988ZM260.811 115.488C261.918 115.95 263.874 117.267 263.931 116.319C263.93 116.319 263.928 116.318 263.926 116.317C262.909 116.051 261.838 115.763 260.811 115.488ZM163.944 91.0152C162.056 89.4844 162.953 91.4052 164.609 91.9139C165.124 91.2379 164.251 91.2648 163.944 91.0152ZM157.861 89.9394C157.308 89.6564 151.899 90.227 152.775 90.997C153.084 91.2578 156.156 90.384 156.303 90.4416C156.523 90.5166 155.563 91.4414 157.215 91.2069C157.107 90.9078 158.044 90.0252 157.861 89.9394ZM162.377 90.0349C160.469 88.8831 160.069 91.0285 161.484 91.0206C162.037 91.0208 162.647 90.2019 162.377 90.0349ZM170.117 90.3899C169.437 90.1551 167.636 89.7914 166.358 90.4737C168.036 90.5732 169.696 90.6966 171.378 90.8452C171.594 90.4544 170.709 90.5937 170.113 90.3897C170.114 90.3897 170.116 90.3898 170.117 90.3899ZM606.473 17.7139C604.79 17.6433 608.634 17.1885 608.81 17.2331C609.304 17.3728 607.22 17.7424 606.473 17.7139ZM19.1642 151.583C18.7429 151.811 18.2268 151.757 17.6149 152.627C18.5905 152.095 19.5526 151.596 20.5296 151.1C20.6346 150.056 19.6284 151.33 19.1642 151.583ZM14.5909 152.676C14.6842 152.559 13.4156 152.437 15.2156 151.545C16.4499 150.96 11.8121 156.207 10.6095 156.853C11.4918 155.681 13.7651 153.686 14.5909 152.676ZM3.45504 159.036C3.373 159.037 5.01585 156.95 5.25948 156.739C6.49648 155.692 4.02673 158.904 3.45504 159.036ZM9.17338 152.66C8.23411 153.468 9.94235 151.312 10.5818 150.745C10.7595 150.816 9.31179 152.539 9.17338 152.66ZM587.368 8.30546C585.707 8.25938 584.95 9.95058 587.015 8.88446C587.108 8.8368 587.44 8.31043 587.368 8.30546ZM4.54387 156.444C5.46398 155.599 3.77711 157.782 3.16231 158.375C3.02285 158.311 4.39714 156.58 4.54387 156.444ZM585.831 7.35136C583.698 7.70295 584.991 8.77274 585.235 8.72984C585.737 8.64162 586.673 8.20987 587.613 7.77604C587.674 7.7593 587.851 7.68942 587.913 7.67644C589.026 7.23368 590.25 6.78305 590.633 6.63978C589.26 6.95468 588.373 7.19879 587.806 7.31793C587.74 7.33185 587.55 7.40678 587.484 7.42474C585.806 7.90972 586.582 7.24259 585.831 7.35136ZM577.882 12.1387C576.42 13.1606 580.516 11.1652 581.15 10.4215C580.341 10.8429 578.267 11.8576 577.882 12.1387ZM568.654 17.3568C567.839 17.8315 565.509 19.2588 565.291 19.7228C566.072 19.1217 568.451 17.799 568.654 17.3568ZM566.482 17.9166C565.064 18.4666 565.388 19.4601 566.589 18.2772C566.636 18.2309 566.538 17.9019 566.482 17.9166ZM559.629 22.2373C558.621 22.4464 558.382 23.8561 559.611 23.0091C559.966 22.7629 559.744 22.2133 559.629 22.2373ZM582.739 6.90724C581.217 7.39678 579.757 8.78609 582.748 7.49629C581.73 8.04621 580.761 8.6184 579.806 9.21681C583.709 7.67846 583.153 7.08686 584.323 6.63239C585.994 6.04814 586.128 6.77857 585.882 7.09967C586.124 6.91503 586.566 6.68109 587.123 6.43706C587.201 6.4157 587.427 6.32656 587.506 6.31001C589.799 5.38962 594.328 4.81118 596.755 4.64951C594.459 4.62062 590.348 4.77618 587.263 5.49677C587.174 5.51545 586.919 5.61605 586.831 5.64016C586.309 5.78232 585.802 5.93285 585.34 6.08142C584.505 6.34699 583.765 6.85482 583.085 7.11977C581.959 7.56618 582.823 6.88153 582.744 6.90477C582.743 6.9056 582.741 6.90642 582.739 6.90724ZM551.115 28.3939C548.592 29.6528 550.67 29.4283 551.78 28.3715C551.824 28.3213 551.178 28.3627 551.115 28.3939ZM0.515557 157.546C3.01022 154.803 1.68478 157.334 5.86424 150.724C4.25193 153.669 6.0272 151.143 5.7935 151.796C5.59612 152.32 4.34466 153.684 5.25689 153.071C4.11216 153.914 0.307065 158.982 0.145576 159.123C0.14711 159.121 0.148644 159.119 0.150179 159.117C0.0329041 159.223 -0.253452 158.405 0.515557 157.546ZM567.181 15.3222C565.677 14.9143 566.514 16.5802 564.389 16.8329C563.181 19.3374 570.042 13.083 571.712 13.4753C563.097 18.8128 578.034 10.8459 571.064 13.1892C576.414 10.6369 572.591 12.0042 573.244 11.3473C573.931 10.6497 577.096 9.15451 576.724 8.90393C576.723 8.90489 576.721 8.90584 576.719 8.9068C574.855 9.95271 573.083 11.0314 571.356 12.1263C573.586 11.822 569.873 13.7953 568.284 13.9306C567.897 14.4037 567.557 14.8475 567.181 15.3222ZM577.507 10.0224C577.294 10.0859 573.481 12.4583 573.836 12.4777C574.334 12.2529 579.943 8.96558 577.507 10.0224ZM598.132 4.08714C596.562 4.14479 593.982 4.17541 593.071 4.60202C594.81 4.40079 597.295 4.42278 598.132 4.08714ZM528.286 44.5636C526.997 46.008 531.735 42.473 530.116 43.2009C530.023 43.248 528.347 44.4954 528.286 44.5636ZM563.546 17.9632C561.667 18.8033 563.129 19.2117 564.194 18.1165C564.255 18.0538 563.634 17.9234 563.546 17.9632ZM2.2224 155.09C2.12272 154.816 5.45388 150.698 6.05206 149.938C5.88755 150.553 2.31859 155.403 2.2224 155.09ZM600.826 3.12211C597.706 2.30609 593.258 3.60433 592.694 3.69312C592.174 3.72967 592.927 3.25837 592.809 3.26189C592.653 3.2102 588.266 3.90459 586.922 4.35242C586.818 4.3741 586.523 4.49082 586.421 4.5188C586.193 4.5959 586.039 4.65132 586.002 4.66801C585.826 4.74949 586.982 4.94759 585.945 5.47945C586.129 5.38661 586.373 5.27922 586.657 5.1659C586.751 5.14015 587.024 5.03274 587.119 5.01278C590.554 3.67425 598.654 3.48441 598.932 3.45242C599.292 3.39891 596.526 2.92406 600.821 3.12223C600.823 3.12219 600.824 3.12215 600.826 3.12211ZM591.343 3.74722C592.833 3.75104 588.756 4.3948 587.77 4.61117C585.553 4.92665 591.151 3.64683 591.343 3.74722ZM581.458 6.49409C580.991 6.60729 577.417 8.33061 577.323 8.71558C579.036 8.15291 582.424 6.18342 581.458 6.49409ZM548.024 27.9879C547.358 28.5218 545.194 29.806 545.253 30.1113C545.971 29.5295 548.095 28.277 548.024 27.9879ZM11.6277 138.994C10.5618 140.026 12.5592 137.19 13.2564 136.465C13.4207 136.566 11.7188 138.904 11.6277 138.994ZM561.803 16.1936C561.278 16.4032 552.375 22.766 551.25 23.7586C552.557 23.049 561.483 16.8965 561.86 16.5758C561.967 16.4701 561.869 16.1643 561.803 16.1936ZM584.227 3.68195C584.909 3.21096 585.522 3.11118 585.897 3.0896C586.018 3.0567 586.365 2.91943 586.487 2.89393C586.701 2.89292 586.849 2.90977 586.903 2.89844C588.421 2.53644 591.712 1.98007 591.04 2.40191C589.874 2.49829 587.959 2.91654 586.604 3.28636C586.487 3.31083 586.153 3.44258 586.038 3.47415C584.319 4.04421 583.067 4.51072 584.227 3.68195ZM546.262 26.9863C543.389 29.2445 549.364 25.4663 548.361 25.6699C548.3 25.6808 546.539 26.7682 546.262 26.9863ZM562.774 15.4189C563.219 14.6952 572.917 8.90928 574.749 8.02783C573.535 9.29712 572.147 9.63888 570.255 10.811C569.763 11.1181 570.02 11.2241 569.967 11.2566C569.098 11.8009 569.609 11.1845 569.06 11.5175C568.688 11.6955 562.001 16.4166 562.774 15.4189ZM584.811 3.23478C584.921 3.16092 585.3 2.99964 585.797 2.81594C585.921 2.7821 586.279 2.64089 586.404 2.61466C588.889 1.73433 594.644 1.15748 594.746 1.24112C595.713 1.34084 594.538 1.45136 592.623 1.66753C590.74 1.85637 587.831 2.38983 586.44 2.73557C586.316 2.76148 585.963 2.90099 585.841 2.93443C585.308 3.09038 584.91 3.21333 584.811 3.23478ZM561.628 15.5802C562.214 14.401 567.148 11.7575 564.153 14.0576C563.859 14.283 562.423 14.8823 561.628 15.5802ZM546.156 26.2352C546.019 26.3031 542.77 28.4636 542.887 28.6616C543.358 28.4274 547.967 25.2188 546.156 26.2352ZM547.316 24.4825C547.242 24.5425 548.256 24.3474 546.733 25.363C546.598 25.4542 546.081 25.2211 544.353 26.6712C544.001 26.9676 543.614 27.646 543.669 27.6315C546.077 26.8265 550.936 21.6275 547.316 24.4825ZM584.838 2.88548C584.461 2.87661 584.889 2.38788 585.554 2.15072C585.686 2.11458 586.068 1.9638 586.202 1.9358C586.414 1.87405 586.655 1.83464 586.906 1.83683C587.239 1.84052 586.944 2.08404 586.321 2.33508C586.192 2.36204 585.824 2.5072 585.697 2.54198C585.469 2.65179 585.178 2.77079 584.838 2.88548ZM536.21 33.1894C537.755 31.5775 532.072 35.647 531.871 35.9249C532.197 35.9905 536.062 33.3413 536.21 33.1894ZM11.6001 134.052C11.599 134.053 11.598 134.055 11.597 134.056C12.7747 132.562 12.3172 133.763 12.3755 133.697C15.0731 130.797 13.9248 131.11 14.2277 130.532C14.8927 129.284 15.4274 130.149 16.5029 128.034C14.683 131.476 16.5389 128.552 16.8494 128.716C18.087 129.374 13.3781 132.272 12.5103 134.007C12.3858 134.24 13.816 132.991 13.5082 133.615C12.4387 135.63 7.18597 139.736 11.6001 134.052ZM587.68 1.61914C588.196 1.34272 590.755 0.873018 592.616 0.784262C594.482 0.675921 595.81 0.758939 594.845 0.92375C594.695 0.953129 592.727 1.10156 590.721 1.37467C588.71 1.63926 586.897 2.01705 587.68 1.61914ZM329.599 87.158C331.154 87.0256 328.035 85.461 327.31 85.6962C326.953 85.8178 328.913 87.2179 329.599 87.158ZM307.245 77.7265C305.554 77.2801 303.056 78.9333 305.267 79.2896C305.511 79.3285 307.339 78.1029 307.245 77.7265ZM416.042 98.32C414.338 97.7057 414.574 99.0416 415.777 98.943C416.198 98.9071 416.096 98.3393 416.042 98.32ZM350.348 91.5415C350.181 91.4503 348.123 91.0594 348.127 91.4137C348.839 91.7988 351.422 92.1601 350.348 91.5415ZM416.544 98.0918C415.576 98.4064 417.422 99.2479 418.479 98.199C417.89 98.331 416.643 98.0607 416.544 98.0918ZM557.104 16.4448C556.469 17.2665 554.077 18.7595 552.801 19.7045C552.365 19.4626 556.167 17.1583 557.104 16.4448ZM314.089 80.9603C312.339 81.0148 315.607 82.5568 315.512 81.7165C315.479 81.6628 314.157 80.9566 314.089 80.9603ZM466.6 82.7846C465.672 83.7002 469.488 82.2594 468.171 82.2076C468.092 82.2201 466.653 82.733 466.6 82.7846ZM480.831 75.2704C480.07 75.6166 477.081 77.4042 478.45 77.0163C478.663 76.9655 480.97 75.582 480.831 75.2704ZM14.0348 130.177C13.3533 130.236 15.2586 127.789 15.5867 127.502C15.7172 127.396 14.94 130.09 14.0348 130.177ZM405.239 98.5602C404.354 98.6578 402.104 98.4421 401.712 98.8265C402.763 98.777 405.561 99.3494 405.239 98.5602ZM321.346 83.2203C320.208 81.9159 317.816 81.263 318.074 82.6036C320.713 83.3346 318.042 81.469 321.346 83.2203ZM421.85 96.737C421.176 96.7524 420.807 97.7892 420.891 97.8277C421.704 98.1879 422.577 97.0406 421.85 96.737ZM369.197 94.987C369.224 94.5228 366.86 94.3109 367.126 94.6626C367.217 94.7835 369.182 95.3673 369.197 94.987ZM528.874 36.1369C527.728 36.6367 530.549 34.2508 531.602 33.8775C532.322 33.9086 529.019 36.0678 528.874 36.1369ZM439.945 93.4628C439.829 92.8815 436.783 94.0435 438.185 94.1916C438.542 94.2302 439.969 93.668 439.945 93.4628ZM470.966 79.2137C470.3 79.7789 470.801 79.7202 471.754 79.3785C473.586 78.8462 477.302 76.8595 475.449 77.226C475.293 77.2677 472.59 78.463 471.501 78.9398C471.199 79.0839 471.002 79.1839 470.966 79.2137ZM484.734 71.6585C484.362 71.8254 483.439 70.3173 485.203 69.9315C485.434 69.8785 484.9 70.8164 485.111 70.801C485.232 70.8091 488.326 68.8997 488.431 68.7544C488.546 68.612 488.014 68.3084 488.12 68.1524C488.241 67.9815 490.358 67.007 491.306 66.2643C493.092 64.8717 492.978 64.3601 493.122 64.2453C493.545 63.9006 494.484 63.5546 495.353 62.8309C499.697 59.2384 506.411 52.6847 510.883 49.9323C507.255 52.667 504.427 55.746 501.362 58.613C501.622 57.1626 497.257 63.1409 499.731 59.569C498.344 61.3037 485.959 71.3806 484.738 71.656C484.737 71.6568 484.736 71.6576 484.734 71.6585ZM300.862 74.8089C302.148 74.3563 296.835 72.6931 296.093 73.4767C296.726 73.8523 300.715 74.8629 300.862 74.8089ZM325.716 80.7236C326.243 80.7298 327.115 79.2975 329.47 80.8544C329.472 80.8551 329.475 80.8558 329.477 80.8565C330.162 81.3088 329.213 81.4425 329.314 81.6193C329.347 81.6907 331.482 83.1523 329.509 82.7141C326.491 82.0376 329.535 81.4627 327.959 80.979C327.764 80.9217 324.561 80.8811 324.677 81.1178C324.69 81.1455 325.639 81.2363 325.765 81.3581C326.247 81.8185 325.843 82.229 325.916 82.2761C326.159 82.4182 331.113 82.9703 331.617 83.8914C331.779 84.2038 323.86 82.4693 323.579 82.2361C323.408 82.1006 323.861 80.7573 323.699 80.5624C323.614 80.4661 320.359 80.0198 319.984 79.7634C319.876 79.6902 319.797 79.6228 319.74 79.5698C320.091 80.1419 317.283 79.2261 317.503 78.7718C317.611 78.6014 319.511 79.3205 319.574 79.3749C319.601 79.3984 319.622 79.4259 319.643 79.4469C319.389 78.8141 325.956 80.8598 324.746 79.6549C326.77 79.8145 324.174 80.6996 325.716 80.7236ZM335.093 82.553C334.861 82.6407 334.629 82.7283 334.397 82.8158C337.828 83.4118 341.506 85.1424 345.368 86.119C346.344 86.3669 345.41 85.2127 346.637 85.7745C347.619 86.2244 348.589 87.3096 347.992 87.3511C347.844 87.3633 345.863 86.3163 344.81 86.101C341.682 85.4633 342.295 86.4079 342.109 86.3824C341.904 86.3525 340.079 85.3141 339.009 85.0487C336.329 84.3852 334.987 84.5133 331.49 82.8666C333.725 82.9749 332.837 81.572 335.093 82.553ZM452.47 87.1441C452.404 86.7501 454.436 86.2554 455.105 85.8863C455.178 86.2853 453.119 86.8146 452.47 87.1441ZM102.083 45.2224C101.5 46.3115 107.881 44.3899 106.014 44.262C105.6 44.2231 102.883 44.9376 102.083 45.2224ZM131.358 38.3644C132.204 37.9811 128.555 37.9344 128.672 38.6111C128.715 38.8194 131.24 38.4098 131.358 38.3644ZM377.839 92.8305C377.948 92.8256 379.769 93.2562 379.822 93.3004C380.94 94.2724 375.028 92.941 377.839 92.8305ZM167.393 35.1139C164.32 35.5858 173.511 36.1554 170.73 35.3231C170.595 35.2763 167.546 35.0848 167.393 35.1139ZM180.17 35.6828C179.442 35.6441 176.216 35.1181 176.16 35.3869C176.067 35.8051 179.745 36.3777 180.17 35.6828ZM421.861 94.0917C421.48 93.3521 424.55 93.5906 425.54 93.3395C425.954 94.0713 422.845 93.8986 421.861 94.0917ZM402.597 94.2397C415.561 93.6481 412.824 95.4469 401.831 94.6147C401.804 94.0902 401.78 94.2573 402.597 94.2397ZM419.056 93.8803C418.681 94.4206 417.229 94.3889 416.232 94.4123C416.373 94.0522 418.39 94.0332 419.056 93.8803ZM94.1586 46.8473C94.9851 45.6404 100.131 44.6924 99.3692 45.3356C99.1905 45.4506 93.9055 47.3903 94.1586 46.8473ZM379.046 92.2742C378.823 91.4153 382.856 92.3158 383.131 92.525C384.317 93.4206 379.423 92.1585 379.046 92.2742ZM438.954 90.2076C439.404 89.4943 441.251 89.2756 442.401 88.9195C442.056 89.5406 439.936 89.9566 438.954 90.2076ZM430.482 91.6834C430.555 91.6499 432.185 91.3862 432.259 91.3955C433.738 91.6843 429.101 92.4419 430.482 91.6834ZM7.3674 133.46C7.3945 133.392 8.29611 132.036 8.3403 131.998C9.40887 131.055 6.69308 135.107 7.3674 133.46Z" fill="#8305AD"/>
</g>
<defs>
<filter id="filter0_n_2851_55" x="0" y="0" width="608.885" height="159.126" filterUnits="userSpaceOnUse" color-interpolation-filters="sRGB">
<feFlood flood-opacity="0" result="BackgroundImageFix"/>
<feBlend mode="normal" in="SourceGraphic" in2="BackgroundImageFix" result="shape"/>
<feTurbulence type="fractalNoise" baseFrequency="0.33783784508705139 0.33783784508705139" stitchTiles="stitch" numOctaves="3" result="noise" seed="2140" />
<feColorMatrix in="noise" type="luminanceToAlpha" result="alphaNoise" />
<feComponentTransfer in="alphaNoise" result="coloredNoise1">
<feFuncA type="discrete" tableValues="1 1 1 1 1 1 1 1 1 1 1 1 1 1 1 1 1 1 1 1 1 1 1 1 1 1 1 1 1 1 1 1 1 1 1 1 1 1 1 1 1 1 1 1 1 1 1 1 1 1 1 0 0 0 0 0 0 0 0 0 0 0 0 0 0 0 0 0 0 0 0 0 0 0 0 0 0 0 0 0 0 0 0 0 0 0 0 0 0 0 0 0 0 0 0 0 0 0 0 0 "/>
</feComponentTransfer>
<feComposite operator="in" in2="shape" in="coloredNoise1" result="noise1Clipped" />
<feFlood flood-color="rgba(0, 0, 0, 0.25)" result="color1Flood" />
<feComposite operator="in" in2="noise1Clipped" in="color1Flood" result="color1" />
<feMerge result="effect1_noise_2851_55">
<feMergeNode in="shape" />
<feMergeNode in="color1" />
</feMerge>
</filter>
</defs>
</svg>
