<svg width="1482" height="530" viewBox="0 0 1482 530" fill="none" xmlns="http://www.w3.org/2000/svg">
<g filter="url(#filter0_n_2851_52)">
<path d="M124.647 459.674C125.635 459.866 129.606 461.062 131.342 461.493C129.233 461.636 121.055 458.969 124.647 459.674ZM317.694 449.169C316.182 449.026 314.766 448.907 313.241 448.755C315.233 449.331 317.552 449.907 319.783 450.459C322.23 451.068 324.567 451.653 326.446 452.226C327.059 452.414 325.273 452.655 326.737 453.045C328.191 453.431 328.108 452.481 330.259 452.903C332.684 453.397 343.018 456.462 346.348 457.08C358.854 459.672 370.464 459.853 385.276 460.924C372.634 460.891 381.631 461.952 387.228 462.174C388.155 462.211 388.976 462.226 389.578 462.212C390.529 462.184 390.455 460.46 405.633 461.563C412.172 462.035 410.1 463.149 413.187 463.645C414.646 463.877 417.207 463.972 422.401 463.778C410.072 461.545 422.26 462.183 431.931 462.461C433.63 462.519 447.068 463.211 452.982 463.266C455.052 463.291 458.108 462.454 460.818 462.484C462.687 462.505 464.034 463.027 466.793 463.046C479.565 463.137 492.067 463.149 504.538 463.063C497.334 465.528 510.283 463.938 510.875 464.003C513.879 464.561 500.398 465.077 505.764 465.343C513.233 465.101 520.516 464.751 527.615 464.184C521.795 464.307 535.121 461.703 537.23 462.121C536.95 461.69 538.297 461.385 540.399 461.108C542.434 460.85 545.515 460.497 546.821 460.387C554.332 459.024 565.311 455.503 567.674 454.051C568.605 453.44 561.79 455.514 576.753 449.211C578.376 448.506 578.031 449.345 578.854 448.893C579.375 448.609 581.544 445.425 585.309 444.768C586.693 444.484 579.565 449.595 596.244 440.538C590.067 441.945 608.845 432.556 619.409 427.096C621.848 425.86 623.891 424.836 624.977 424.333C623.75 424.721 622.518 425.109 621.279 425.497C627.082 423.069 627.739 421.908 628.979 421.248C633.996 418.564 641.127 415.19 645.681 412.419C651.017 409.168 650.394 408.131 656.878 404.766C655.268 405.428 653.63 406.104 652.023 406.755C656.368 404.223 660.68 401.676 665.012 399.086C655.922 406.54 667.199 397.841 667.961 397.315C669.2 396.479 667.724 398.165 669.806 396.778C670.018 396.629 669.366 396.313 672.586 394.223C679.301 389.852 678.65 391.161 681.486 389.357C681.741 389.189 680.543 389.303 685.366 386.07C700.682 375.722 685.532 386.483 684.965 386.92C684.225 387.5 690.868 386.053 677.127 393.776C681.749 391.173 682.729 391.754 683.251 391.454C683.717 391.191 691.346 386.131 691.741 385.825C695.331 383.091 691.621 384.661 692.289 384.079C692.85 383.61 702.57 378.347 703.554 375.177C709.017 373.864 702.019 378.323 694.765 383.387C693.9 384.429 702.251 379.435 702.672 379.146C713.121 372.225 706.447 374.739 708.159 372.39C709.053 371.16 713.895 369.214 709.188 370.659C718.521 364.218 713.273 368.724 713.951 368.418C714.969 367.95 718.029 365.386 718.467 365.152C719.115 364.808 717.299 366.636 719.773 365.16C720.183 364.911 723.526 361.612 718.364 364.644C725.025 360.247 724.055 360.026 727.116 359.669C730.048 354.318 731.321 358.713 733.186 357.597C738.131 354.619 735.514 353.84 735.703 353.581C737.039 351.857 750.379 343.205 753.339 340.613C753.013 342.766 743.178 348.021 741.334 349.681C735.217 355.27 751.217 343.539 747.499 348.575C749.222 346.678 750.934 344.781 752.64 342.88C757.078 341.145 752.177 345.461 761.821 337.732C762.802 335.684 754.911 343.075 756.138 341.118C756.872 339.974 762.542 335.619 762.495 335.324C762.42 334.997 757.464 339.149 757.989 338.158C758.47 337.268 762.105 334.464 765.162 332.264C769.277 329.299 772.413 327.45 765.702 332.963C765.357 333.245 764.986 333.546 764.587 333.867C764.986 333.564 765.379 333.291 765.764 333.043C769.225 330.819 772.174 330.572 774.904 327.733C776.846 325.682 762.701 333.163 781.617 319.023C782.624 319.467 774.374 325.08 774.205 325.287C773.983 325.595 776.764 326.192 777.078 326.083C778.211 325.736 796.357 309.723 800.939 307.205C798.594 307.59 814.803 295.232 816.203 293.449C816.581 292.985 814.41 293.864 814.835 293.391C817.502 290.476 826.413 284.437 830.125 281.138C834.282 277.46 833.317 277.45 833.549 277.244C835.386 275.633 834.236 277.263 835.343 276.259C837.026 274.765 848.525 264.3 849.023 263.685C849.171 263.509 846.807 264.711 849.194 262.3C849.605 261.877 849.943 262.779 857.011 255.609C865.515 246.955 850.142 260.615 853.178 256.504C859.737 252.1 858.663 251.345 860.266 249.968C860.822 249.491 865.528 246.508 869.751 242.348C866.808 245.421 863.859 248.482 860.899 251.536C864.064 248.796 869.756 243.015 872.39 240.763C873.673 239.667 873.294 241.259 875.909 238.692C876.463 238.138 877.164 234.497 870.953 241.826C869.865 241.811 873.49 239.01 874.862 237.38C875.07 237.131 875.072 235.357 877.572 234.034C878.171 233.714 875.745 241.291 886.898 226.637C887.258 226.164 885.467 227.271 885.81 226.8C886.046 226.48 889.511 223.345 889.83 222.938C890.156 222.519 888.191 223.742 888.568 223.233C890.501 220.625 894.942 219.05 890.092 223.607C891.851 222.225 893.61 220.838 895.365 219.452C892.602 220.07 897.553 216.703 899.704 214.507C900.279 213.922 900.812 213.374 901.308 212.863C912.693 201.106 903.523 208.921 905.488 206.298C908.789 201.895 907.65 206.605 912.851 200.357C913.33 199.777 905.618 205.947 919.615 192.86C917.645 194.883 915.67 196.91 913.699 198.93C915.876 198.78 920.857 191.658 921.31 191.179C926.494 185.729 923.262 189.679 930.642 181.273C931.302 180.521 933.089 179.223 934.472 177.594C940.218 170.837 925.907 185.553 925.097 185.545C924.71 185.541 940.369 169.992 941.003 169.536C943.698 167.662 934.112 176.798 936.417 175.518C937.251 175.055 959.112 152.375 963.778 148.079C969.167 143.124 972.812 142.065 971.354 140.601C974.264 140.553 974.559 138.292 975.229 137.641C983.342 129.757 983.363 129.761 990.086 122.753C991.581 121.197 993.273 120.357 993.745 119.74C994.014 119.383 992.966 119.52 994.357 117.848C996.279 115.534 1009.57 103.234 1010.78 102.527C1012 101.814 1005.47 108.023 1007.03 107.285C1011.69 102.734 1016.02 98.2325 1020.75 93.6623C1022.71 91.7774 1022 93.026 1022.85 92.2021C1023.08 91.9831 1025.79 89.1224 1027.62 87.149C1028.74 85.9431 1029.55 85.0485 1029.41 85.1153C1029.25 85.1894 1028.5 85.8556 1027.37 86.906C1022.1 91.7937 1008.67 105.2 1012.77 100.315C1013.7 99.1973 1018.1 96.1506 1016.7 95.959C1020.05 92.7244 1023.39 89.507 1026.76 86.2944C1042.77 70.9958 1059.97 56.2487 1079.13 43.4857C1066.28 53.1145 1051.95 63.8599 1039.95 74.924C1038.27 76.4395 1032.7 81.5144 1033.77 81.2863C1043.86 71.8803 1056.87 60.2711 1068.03 52.4038C1068.39 52.1501 1067.4 53.4955 1068.76 52.5727C1071.24 50.8343 1078.94 44.4462 1080.47 43.7077C1080.72 43.5804 1076.42 47.3074 1078.08 46.6533C1082.31 44.9814 1081.93 42.5111 1085.17 40.4354C1087.59 38.6942 1105.28 29.592 1109.32 26.946C1113.58 23.8476 1096.33 33.4304 1097.33 32.3289C1107.84 25.6539 1119.28 20.7074 1129.49 16.1C1130.47 15.6546 1131.45 15.2201 1132.42 14.7952C1132.64 14.6997 1130.54 15.1109 1133.3 13.8587C1138.13 11.7213 1139.67 11.8759 1142.1 11.094C1144.7 10.1898 1153.88 7.29119 1155.19 7.23778C1155.36 7.22139 1153.66 8.33151 1153.39 8.4302C1149.47 9.822 1147.8 9.55208 1147.43 9.65141C1146.06 10.0618 1144.82 10.8077 1143.58 11.2225C1141.54 11.9103 1140.3 12.0506 1137.63 13.0664C1135.78 13.7797 1137.77 13.5819 1135.99 14.2722C1135.54 14.4404 1131.93 15.3022 1129.64 16.4003C1128.69 16.8478 1128.01 17.3293 1128.01 17.7876C1128.01 17.8411 1128.71 17.5731 1129.96 17.0614C1140.11 10.7923 1186.63 1.50242 1191.69 2.13637C1186.67 2.39525 1181.61 2.82171 1176.54 3.44318C1186.83 2.15888 1198.98 0.582588 1199.93 1.99924C1221.79 1.0437 1243.27 3.15579 1263.68 6.1427C1278.83 8.03121 1291.42 16.9713 1298.31 20.851C1301.46 22.5159 1304.89 24.2967 1308.18 26.01C1313.62 28.9451 1310.3 28.1256 1319.44 32.5763C1317.24 31.1588 1314.95 29.6949 1312.76 28.2759C1317.35 30.8542 1337.75 41.7487 1341.18 43.3396C1341.65 43.5575 1342.49 43.2178 1347.7 45.8478C1352.27 48.1516 1352.8 48.9899 1355.2 50.3348C1357.27 51.4893 1359.56 52.5226 1360.17 52.8717C1360.63 53.1338 1360.69 53.5009 1361.8 54.1353C1365.26 56.0958 1362.75 53.8566 1365.86 56.5462C1364.98 56.1351 1364.11 55.7275 1363.24 55.3235C1367.49 57.666 1373.1 61.0315 1366.73 58.012C1365.62 57.4823 1366.69 57.7055 1365.87 57.2864C1334.14 41.089 1359.21 54.5764 1370.52 59.8547C1373.19 61.7026 1389.3 69.6489 1389.81 70.0053C1390.51 70.4894 1387.61 69.3807 1391.09 71.471C1391.8 71.8983 1413.33 82.6193 1405.39 79.162C1403.79 78.4683 1393.5 73.1075 1391.05 71.8787C1396.53 75.6187 1410.7 81.4594 1412.21 82.2762C1418.34 85.5357 1400.01 76.8797 1413.91 84.0468C1424.62 89.5627 1414.79 83.9639 1419 85.8475C1421.37 86.9126 1433.3 93.6348 1433.27 92.78C1437.46 94.8303 1434.86 93.9427 1435.36 94.2299C1435.54 94.3345 1436.82 94.9582 1438.51 95.7838C1438.52 95.7931 1438.58 95.8184 1438.6 95.828C1441.39 97.2353 1445.24 99.2118 1446.87 100.191C1447.19 100.38 1445.99 100.171 1446.32 100.377C1446.92 100.739 1454.9 104.968 1455.23 105.135C1455.42 105.219 1453.71 103.908 1454.52 104.264C1455.46 104.643 1463.09 109.105 1463.63 109.402C1464.27 109.545 1454.67 104.125 1456.46 104.759C1460.85 107.406 1467.73 110.69 1472.3 114.865C1470.98 113.413 1466.13 110.034 1464.7 109.169C1465.21 109.203 1467.76 110.583 1470.28 112.594C1472.87 114.593 1475.11 117.822 1472.7 115.238C1475.61 118.392 1473.93 116.147 1475.36 117.83C1475.39 117.865 1475.44 117.929 1475.49 118.013C1476.16 118.863 1477.93 122.46 1478.21 123.142C1478.36 123.265 1476.46 118.816 1476.94 119.639C1477.49 120.358 1479.23 124.125 1480 127.267C1480.84 130.441 1481.25 133.161 1481.31 133.592C1481.63 136.016 1479.9 127.579 1479.27 126.66C1479.37 126.714 1480.54 134.183 1480.43 134.196C1480.23 134.78 1478.76 126.559 1478.54 127.513C1479.05 129.672 1479.38 131.676 1479.66 133.616C1478.8 130.163 1477.89 124.422 1474.31 118.783C1468.77 111.285 1464.73 110.629 1463.07 109.472C1466.29 111.567 1470.56 113.491 1474.08 118.93C1478.53 126.674 1478.26 131.596 1477.91 131.684C1477.6 131.795 1476.15 126.902 1476.04 127.091C1476.09 128.035 1477.85 134.566 1477.81 134.764C1477.82 134.964 1477.82 135.059 1477.8 135.062C1477.8 135.062 1477.8 135.062 1477.8 135.062C1477.74 135.195 1475.47 125.688 1474.82 125.032C1474.41 124.269 1475.26 128.943 1475.03 128.928C1475 128.858 1474.49 127.12 1473.85 125.653C1473.22 124.186 1472.54 123.065 1472.97 124.308C1473.94 126.884 1475.22 132.668 1475.2 132.848C1475.22 133.403 1474.75 131.228 1473.99 128.776C1473.27 126.328 1471.95 123.606 1471.81 123.486C1471.86 123.354 1473.66 129.05 1473.49 129.192C1473.49 129.365 1472.03 125.218 1470.87 123.733C1470.11 122.634 1471.64 126.173 1471.3 125.573C1471.22 125.408 1470.55 123.754 1469.4 121.976C1467.48 118.837 1464.1 116.946 1463.94 116.789C1463.33 116.429 1465.06 117.923 1464.76 117.793C1464.32 117.545 1461.8 115.803 1462.08 116.104C1462.12 116.293 1466.49 118.882 1468.42 122.61C1469.41 124.46 1469.84 125.996 1469.77 125.994C1469.62 126.003 1468.91 124.279 1468.01 122.881C1467.39 121.865 1466.58 120.998 1466.36 120.886C1466.09 120.77 1466.6 121.257 1467.53 123.191C1467.81 123.8 1468.14 124.558 1468.46 125.493C1468.52 125.55 1469.67 128.081 1469.66 128.17C1469.93 129.844 1466.81 121.72 1470.12 131.842C1468.78 126.926 1467.24 124.733 1466.56 123.823C1465.83 122.91 1465.96 123.236 1466.35 123.959C1467.12 125.297 1468.17 128.314 1467.36 127.181C1467.11 126.832 1466.49 125.628 1465.63 124.428C1464.46 122.623 1462.14 121.245 1462.1 121.216C1462.54 121.865 1464.39 123.072 1464.64 123.709C1464.73 123.872 1463.85 122.962 1462.7 122.258C1461.57 121.539 1460.42 120.982 1460.97 121.467C1461.37 121.824 1463.9 123.484 1464.73 125.013C1465.29 125.871 1465.64 126.577 1465.68 126.659C1466.6 129.032 1465.07 126.319 1465.18 126.893C1465.33 127.183 1466.7 130.839 1466.67 131.002C1466.76 131.063 1464.53 126.316 1463.72 125.727C1463.7 125.714 1463.69 125.702 1463.68 125.691C1463.6 125.604 1463.59 125.632 1463.63 125.729C1463.79 126.097 1464.48 127.57 1464.25 127.227C1463.99 126.825 1463.7 126.365 1463.37 125.893C1462.92 125.228 1462.62 124.893 1462.1 124.405C1461.6 123.951 1461.04 123.531 1460.71 123.305C1460.38 123.087 1460.28 123.056 1460.54 123.333C1460.78 123.607 1461.51 124.246 1462.13 125.123C1462.25 125.288 1462.55 125.595 1462.94 126.178C1463.25 126.642 1463.48 127.056 1463.49 127.086C1463.73 127.809 1463.32 127.143 1462.69 126.336C1462.39 125.94 1462.18 125.745 1461.92 125.536C1461.67 125.333 1461.38 125.142 1461.21 125.078C1460.61 124.846 1461.5 125.599 1461.73 125.912C1461.86 126.078 1461.95 126.203 1461.87 126.142C1461.75 126.062 1461.67 125.926 1460.73 125.263C1461.48 125.963 1461.57 126.123 1461.99 126.789C1463.12 128.645 1463.91 130.443 1464.94 134.33C1463.99 130.604 1462.86 128.313 1461.75 126.946C1461.41 126.51 1461.28 126.448 1461.05 126.273C1460.83 126.116 1460.56 125.947 1460.31 125.805C1459.8 125.516 1459.4 125.358 1459.31 125.396C1459.06 125.453 1460.45 126.405 1461.03 127.416C1461.61 128.312 1462.21 129.413 1462.87 131.287C1461.6 127.873 1461 128.196 1460.58 127.711C1460.47 127.614 1460.38 127.53 1460.31 127.454C1460.24 127.378 1460.22 127.293 1459.97 127.037C1459.74 126.784 1459.19 126.336 1458.62 125.967C1457.44 125.211 1456.47 124.85 1457.51 126.239C1457.62 126.4 1458.6 127.021 1459.05 127.39C1459.53 127.769 1459.54 127.843 1459.3 127.849C1458.97 127.545 1458.19 126.994 1457.66 126.656C1457.11 126.303 1456.71 126.068 1456.48 125.938C1456.04 125.697 1456.26 125.861 1456.79 126.223C1457.3 126.57 1458.04 127.086 1458.48 127.446C1458.94 127.814 1459.08 127.976 1459.08 127.982C1461.62 129.307 1435.24 115.449 1429.96 113.251L1430.05 113.296C1429.97 113.259 1429.89 113.224 1429.82 113.192C1424.25 110.771 1419.11 109.153 1417.91 108.61C1414 106.834 1417.39 108.005 1416.57 107.497C1415.75 106.985 1404.28 102.483 1403.74 102.198C1401.64 101.085 1404.01 101.712 1403.79 101.592C1401.24 100.151 1386.12 93.6 1381.96 91.5881C1381.94 91.8858 1390.41 95.7784 1384.92 93.7598C1378.59 91.4512 1378.75 90.1659 1378.62 90.0455C1350.59 77.2294 1322.5 64.3388 1294.54 51.393C1294.55 52.2482 1313.1 60.1781 1313.5 60.4723C1315.27 61.8103 1294.36 52.2915 1285 47.7558C1282.49 46.5166 1281.09 45.6753 1280.42 45.2723C1281.76 46.0841 1283.22 46.9528 1284.94 47.8624C1286.42 48.6523 1288.04 49.5063 1289.47 50.2651C1288.2 49.9203 1286.47 49.2228 1284.67 48.4117C1277.51 44.9204 1272.1 40.9541 1267.79 39.8133C1266 39.3027 1269.21 40.8587 1269.15 40.8893C1267 40.363 1264.12 39.2573 1266.54 39.4976C1262.08 38.6225 1262.62 38.4424 1259.92 38.015C1259.65 37.984 1259.37 37.9525 1259.06 37.9205C1258.78 37.8939 1260.99 38.4809 1256.83 38.2489C1254.87 38.1155 1244.72 37.3026 1243.36 37.5868C1242.79 37.6901 1247.77 39.5261 1248.52 38.3026C1259.52 39.8264 1252.12 38.011 1256.44 38.4175C1256.9 38.4657 1256.24 38.7643 1259.78 39.1834C1260.64 39.2917 1261.89 39.3973 1263.93 39.7992C1263.21 40.1651 1261.48 39.9135 1259.71 39.7817C1255.53 39.3774 1250.84 38.7025 1249.63 38.7024C1246.71 38.6916 1253.58 39.5672 1259.68 40.0814C1261.46 40.1713 1263.25 40.4291 1264.08 40.3029C1262.83 41.0308 1264.78 40.5072 1267.59 41.6021C1270.71 42.888 1269.22 42.6114 1270.98 43.3987C1276.1 45.9011 1274.14 44.1974 1278.75 47.3463C1276.62 44.9426 1279.1 46.5116 1284.18 49.3962C1287.16 51.0674 1290.53 53.072 1292.14 54.0405C1289.32 52.792 1286.62 51.6013 1283.73 50.3087C1278.69 47.9256 1275.5 46.0493 1272.35 44.5814C1272.61 44.8213 1272.86 45.0626 1273.13 45.3101C1271.69 44.5643 1270.35 43.913 1269.06 43.3499C1269.31 43.3505 1269.56 43.3547 1269.81 43.3609C1262.95 41.1697 1262.27 40.9286 1261.7 40.6993C1261.01 40.5747 1260.32 40.4825 1259.64 40.4241C1250.6 39.5128 1240.86 38.7928 1232.32 38.5472C1230.86 38.5365 1231.81 39.0815 1221.31 38.5697C1217.98 38.4444 1221.13 37.8654 1217.34 38.0186C1212.62 39.5856 1212.72 38.4709 1211.32 38.5272C1207.31 38.7268 1204.91 39.3004 1204.54 39.3306C1199.64 39.7621 1192.54 40.5539 1187.36 41.5318C1187.26 41.5544 1190.03 41.5406 1186.64 41.9912C1185.47 42.1303 1174.41 42.1644 1165.78 45.7187C1168.11 45.1082 1170.46 44.5549 1172.82 44.0579C1169.82 44.2696 1151.7 51.6917 1156.39 50.5322C1159.13 49.6823 1165.5 46.075 1166.63 47.0628C1163.85 47.7707 1155.71 50.5673 1147.99 54.6205C1136.56 60.4012 1125.7 66.8729 1124.21 67.6282C1123.83 67.8011 1125.8 66.1303 1125.28 66.375C1124.86 66.5347 1117.47 71.2372 1116.45 71.757C1115.81 72.046 1118.92 69.732 1118.58 69.7716C1118.25 69.7782 1109.07 75.6898 1108.91 76.5463C1110.96 74.7928 1117.32 70.8063 1114.29 73.3677C1113.9 73.6947 1111.54 74.8746 1111.07 75.2896C1106.72 79.0566 1120.72 69.3362 1123.08 68.0902C1114.19 74.193 1100.39 83.1216 1091.13 91.7346C1086.95 94.6634 1096.45 86.3314 1091.8 89.7394C1082.2 96.894 1089.78 92.2997 1089.54 92.5786C1087.59 94.8166 1078.36 99.7829 1079.65 101.258C1076.26 104.043 1077.12 102.864 1072.82 107.382C1073.5 106.912 1074.17 106.447 1074.86 105.97C1071.36 110.589 1062.42 117.184 1059.74 118.898C1059.18 119.247 1058.89 119.374 1059 119.206C1059.12 119.015 1059.27 118.812 1059.43 118.6C1061.53 115.879 1066.71 111.727 1067.14 111.278C1067.82 110.578 1068.29 107.158 1077.17 101.194C1079.41 97.1961 1064.47 112.18 1070.77 104.823C1068.65 106.966 1063.35 111.967 1058.09 117.276C1051.82 123.593 1045.41 130.2 1044.18 131.976C1043.92 132.372 1046.39 131.725 1041.19 136.245C1038.7 138.412 1044.11 132.633 1042.86 133.516C1039.02 136.123 996.463 182.584 988.295 191.385C987.764 191.954 987.637 191.435 987.116 191.997C985.519 193.718 980.149 200.428 977.119 203.352C983.681 197.58 972.155 209.965 969.131 213.039C964.547 217.704 964.246 216.847 962.183 218.783C954.233 226.236 943.988 239.837 936.819 244.682C937.218 244.913 936.763 245.638 935.781 246.671C932.778 249.836 924.84 255.855 921.213 259.567C917.449 263.427 912.823 269.91 918.446 265.203C911.877 271.836 905.216 279.098 899.083 285.402C898.069 286.444 899.099 284.634 897.378 286.425C897.224 286.59 897.383 287.198 895.914 288.742C883.743 301.481 889.011 294.61 886.434 296.68C884.986 297.833 883.944 298.717 883.207 299.392C890.497 292.149 898.699 283.638 900.909 281.391C898.201 282.46 884.983 297.577 880.506 301.419C880.352 301.552 880.403 300.576 880.251 300.716C880.248 300.719 880.245 300.722 880.242 300.725C878.642 302.233 868.66 312.11 871.291 310.696C872 310.316 876.69 305.857 882.129 300.464C880.746 302.015 882.369 301.476 882.129 301.754C879.208 305.125 870.844 312.128 867.956 314.7C867.299 315.29 867.671 315.601 867.567 315.701C864.93 318.033 865.052 316.029 863.376 319.542C857.566 322.631 871.911 311.185 870.197 311.241C869.028 311.408 839.33 339.198 840.178 340.045C839.976 340.027 839.435 340.263 838.436 340.865C836.231 342.212 827.728 349.743 826.382 351.2C826.161 351.453 827.121 352.395 826.815 352.671C826.067 353.378 814.737 361.502 811.184 365.383C813.473 363.763 815.773 362.117 818.049 360.473C804.961 371.261 807.179 369.874 811.845 366.63C812.067 366.454 812.312 366.32 812.525 366.154C816.114 363.615 820.615 360.237 820.748 360.261C821.321 360.442 799.018 378.779 802.551 374.276C803.057 373.683 813.792 365.739 808.096 369.188C807.11 369.795 800.571 375.333 800.148 375.528C797.411 376.889 811.454 364.547 809.08 365.232C806.293 368.565 801.874 371.64 798.066 374.812C797.82 375.017 797.577 375.223 797.337 375.429C795.544 376.966 795.498 377.863 795.276 378.053C791.942 380.872 793.442 378.799 792.304 379.704C791.703 380.196 785.809 386.63 785.833 383.961C764.198 402.129 780.592 390.032 794.234 379.295C790.376 383.279 781.6 389.485 777.842 392.495C776.496 393.579 777.735 393.537 775.474 395.392C770.864 399.287 747.116 415.296 740.841 419.286C744.457 416.476 742.918 416.599 740.05 418.645C737.176 420.692 740.2 419.869 739.696 420.352C739.16 420.891 725.201 429.787 722.968 431.407C733.107 424.144 730.342 425.079 721.516 430.884C722.661 429.852 723.82 428.807 724.956 427.775C719.992 431.507 708.478 437.634 705.648 439.871C705.208 440.224 707.254 439.684 707.007 439.882C704.541 441.83 695.159 447.025 694.869 447.465C694.616 447.849 698.744 445.881 697.466 447.017C697.203 447.253 693.013 448.86 689.465 451.343C688.142 452.267 689.293 452.284 688.969 452.53C686.268 454.572 687.407 452.628 682.253 456.019C678.463 458.505 676.137 461.149 670.594 464.093C688.828 454.537 673.837 463.08 666.623 467.838C665.472 468.593 667.077 468.994 659.677 472.704C673.77 461.969 654.859 474.318 650.77 476.577C650.547 476.696 650.089 476.089 648.125 477.195C648.025 477.252 648.165 477.389 647.892 477.724C647.71 477.945 647.348 478.254 646.631 478.678C629.394 488.78 640.249 482.017 636.702 483.424C635.175 484.037 626.97 489.334 624.624 490.585C624.085 490.873 624.098 490.264 622.023 491.384C618.382 493.349 615.271 495.59 612.83 496.878C612.528 497.028 612.183 496.28 607.571 498.876C606.257 499.611 604.89 500.613 606.898 499.899C613.573 497.54 624.594 490.228 631.733 487.215C638.319 484.48 618.669 495.165 617.56 495.65C617.179 495.851 620.877 493.462 616.893 495.432C613.48 497.121 607.83 501.61 602.442 503.823C602.025 504.003 597.285 504.86 597.454 504.695C597.612 504.58 603.958 501.269 602.85 501.393C602.741 501.406 598.655 503.357 597.988 503.366C597.198 503.377 594.086 501.299 593.185 501.62C590.845 502.462 592.607 502.465 591.121 503.076C587.988 504.439 576.296 508.178 576.239 509.311C578.193 508.641 580.117 507.952 582.019 507.246C571.496 511.539 576.114 510.162 574.679 510.953C573.088 511.769 573.245 510.704 569.472 511.903C569.101 512.018 565.813 513.18 562.117 514.314C556.321 516.055 551.227 516.921 551.445 517.142C561.091 514.706 557.932 516.389 558.317 516.387C559.384 516.192 560.866 515.586 562.305 514.979C563.042 514.646 563.861 514.303 564.668 514.062C579.356 509.369 564.953 515.253 568.486 514.373C569.721 514.07 571.891 512.709 572.373 512.567C574.018 512.083 574.279 512.788 575.326 512.339C577.735 511.29 574.5 511.356 574.672 511.23C576.676 509.825 585.29 507.244 580.519 510.412C583.815 509.544 583.617 508.09 586.265 507.588C591.477 506.572 584.22 509.382 582.257 510.348C575.515 513.681 573.188 514.215 562.992 517.401C562.468 517.557 561.927 517.711 561.368 517.865C556.244 519.273 551.445 520.691 549.434 521.034C548.095 521.34 536.846 520.18 536.969 523.883C532.713 523.919 526.104 521.882 522.036 522.198C518.309 522.489 519.579 523.752 519.228 523.822C518.702 523.932 514.216 524.015 512.718 524.251C510.945 524.534 511.828 525.015 509.065 525.307C502.098 526.014 502.305 524.625 501.573 524.557C493.35 523.677 496.957 525.542 495.123 525.725C493.423 525.955 469.76 525.194 464.839 525.552C466.883 525.308 468.901 525.059 470.893 524.806C467.348 523.923 463.445 525.249 463.43 523.726C462.674 526.178 455.27 524.403 453.039 524.413C452.157 524.42 452.207 524.84 451.11 524.833C446.863 524.817 437.14 524.206 434.862 524.341C424.786 524.946 450.438 527.254 452.467 527.346C448.406 527.267 425.48 527.106 435.962 528.615C437.548 528.847 440.529 527.833 441.43 527.814C447.595 527.699 442.729 528.554 443.209 528.661C443.997 528.835 448.166 527.988 449.22 528.125C449.585 528.169 447.224 529.012 453.161 529.163C450.223 529.987 433.616 528.816 431.434 528.929C430.66 528.97 435.444 531.01 421.323 528.696C421.479 528.874 421.636 529.052 421.793 529.23C418.019 529.122 414.195 529.002 410.413 528.875C406.282 528.736 402.226 528.585 398.13 528.417C398.993 528.065 403.447 527.486 397.888 527.382C394.688 527.318 397.011 528.318 396.718 528.329C395.859 528.356 390.816 528.13 383.829 527.726C368.013 527.455 334.883 522.371 328.217 519.996C324.607 519.145 315.077 517.19 314.384 516.989C312.19 516.399 307.228 514.843 302.607 513.359C298.203 511.952 294.148 510.611 292.72 510.216C290.876 509.708 292.412 510.923 290.819 510.391C289.336 509.893 291.066 509.723 290.631 509.557C286.9 508.194 259.149 500.144 252.873 497.423C256.75 498.899 277.041 504.069 276.772 503.465C276.722 503.38 271.978 501.331 270.931 501.254C269.423 500.168 263.293 500.03 260.318 498.703C259.981 498.553 261.613 498.056 256.188 496.121C254.32 495.457 249.186 494.58 244.461 492.177C237.159 490.175 199.939 477.144 197.151 477.377C197.065 477.4 202.249 479.346 198.596 478.624C193.737 477.668 198.418 477.279 192.935 475.458C192.11 475.162 176.732 470.788 176.219 470.772C171.389 470.333 184.636 474.613 184.435 474.691C183.889 474.808 172.782 471.695 172.344 471.517C171.924 471.33 181.252 472.731 170.281 470.062C171.496 470.56 172.696 471.059 173.911 471.565C168.758 470.369 168.437 469.413 167.22 469.016C165.564 468.477 163.758 468.188 161.814 467.777C159.205 467.227 156.339 466.454 152.965 464.667C151.37 463.826 154.242 464.123 154.045 464.008C152.133 462.945 149.289 463.685 146.508 461.851C146.28 461.717 153.459 462.895 141.154 459.734C141.976 460.048 142.801 460.364 143.628 460.682C141.861 460.452 129.411 457.415 127.718 456.949C122.855 455.582 127.28 455.967 122.305 454.829C125.297 456.532 110.282 452.951 111.291 452.41C109.012 452.856 96.4122 449.074 90.3906 447.695C86.5689 446.805 78.7679 445.44 77.5988 445.133C76.1354 444.751 76.6494 444.265 74.0093 443.557C73.287 443.366 65.2773 442.03 58.4036 440.038C57.0528 439.646 54.3628 438.189 56.8831 438.462C61.2813 438.92 69.2534 441.339 69.2387 440.763C69.2157 440.129 58.1809 438.273 55.2649 437.635C41.6609 434.682 49.5864 435.625 49.2863 435.371C48.3921 434.762 40.9234 433.456 40.6362 433.373C39.3624 432.987 44.6817 433.575 44.8216 433.337C44.9173 433.003 37.8087 431.225 39.444 431.389C41.7904 431.601 48.3756 433.22 48.813 433.278C54.3516 433.896 46.8749 431.801 44.8995 431.114C44.2941 430.899 46.7868 431.105 46.2772 430.988C38.3529 429.215 44.4752 431.788 39.1996 430.838C34.4596 430.003 40.6305 430.471 40.4521 430.414C40.1935 430.34 34.5949 429.454 33.6843 429.157C33.3013 429.005 48.0934 430.283 47.5056 429.74C42.8095 429.119 38.0992 428.519 33.3794 427.952C33.0779 427.359 39.7702 428.71 40.5155 428.77C41.937 428.859 38.0114 428.004 38.2031 427.857C38.2897 427.759 43.0331 428.013 38.8141 427.261C37.3833 427.013 34.3525 426.965 29.1529 425.926C47.3679 427.798 34.8759 425.84 34.3013 425.586C33.8172 425.337 42.5462 425.951 31.9905 424.738C31.6565 423.652 32.2065 424.428 35.2651 424.61C39.0065 424.84 30.4834 423.414 43.9157 425.366C43.2431 424.732 32.339 423.479 31.8355 423.401C31.3513 423.312 33.7409 423.336 32.9044 423.161C22.8357 421.16 29.8159 422.324 26.8789 421.438C26.6086 421.342 16.9736 420.305 24.3517 420.856C37.7395 421.9 43.1853 423.378 45.6556 422.039C35.8057 420.253 23.7383 420.193 20.7206 419.972C16.0626 419.642 20.9389 419.729 20.3555 419.606C20.124 419.559 16.2133 419.31 16.1127 419.286C13.3351 418.015 33.8252 420.568 40.285 421.168C38.5287 420.809 36.9235 420.476 35.1411 420.136C37.532 420.354 39.8415 420.575 42.1965 420.809C31.0325 419.346 41.8559 420.641 44.7101 419.951C45.3587 419.792 37.9421 419.449 46.448 419.667C40.2281 418.921 42.2184 418.919 36.6199 418.689C36.7462 418.314 49.4801 419.02 54.4745 419.334C36.9501 417.216 46.7812 419.511 31.6523 417.533C28.7672 417.759 36.0478 418.242 35.4571 418.277C33.3119 418.364 28.3424 417.554 22.236 418.043C21.2454 418.121 25.3491 418.846 19.2236 418.41C18.5374 418.355 14.6449 417.766 14.7044 417.75C15.2458 417.488 19.1089 417.81 19.2911 417.703C19.4356 417.591 15.1194 417.423 15.0933 417.396C14.9853 417.03 18.7302 417.447 18.1855 417.307C17.0358 416.966 1.4315 415.537 21.8309 416.699C4.85342 416.284 19.7217 416.917 26.2243 417.228C27.9305 417.303 28.3538 417.099 30.7476 417.188C33.8468 417.304 37.4369 417.709 38.998 417.795C40.7127 417.89 31.0741 416.495 45.0878 417.849C37.9875 416.618 25.38 416.322 18.2826 415.655C4.115 414.415 28.2892 415.138 30.8094 415.333C31.4817 415.353 29.2665 414.904 29.7158 414.912C30.5025 414.893 44.1295 415.982 45.5027 415.832C46.8623 415.648 40.5304 415.47 40.0964 415.154C39.88 414.924 56.3457 415.814 47.4752 415C41.3598 414.443 29.8202 414.501 28.0237 413.65C37.0862 414.014 46.2063 414.567 55.2526 415.225C50.3836 414.485 45.3959 413.794 40.4741 413.186C50.7218 413.683 59.4136 414.768 69.1785 415.12C46.0561 412.039 76.8286 414.785 77.1839 414.737C77.338 414.646 68.3324 412.895 66.8404 412.628C75.052 412.835 99.697 414.954 85.4524 412.367C88.0707 412.883 94.467 412.756 94.4205 412.697C93.6755 412.024 79.8006 411.224 82.1341 410.927C84.7925 410.552 88.4204 411.643 92.4128 411.939C113.121 413.578 108.035 409.833 128.649 412.54C128.258 412.375 127.867 412.212 127.477 412.049C142.45 413.824 157.311 415.903 172.218 418.305C179.895 419.55 187.503 420.936 195.056 422.42C204.181 422.826 227.634 426.847 238.861 429.587C241.136 430.114 252.085 433.367 252.872 433.692C254.361 434.283 245.808 432.36 249.548 433.691C250.347 433.942 268.995 438.775 267.848 437.728C265.785 437.128 259.125 435.899 258.088 435.47C250.987 432.315 308.084 447.653 310.74 447.835C309.539 447.265 308.41 446.716 307.219 446.149C310.699 447.158 314.251 448.184 317.694 449.169ZM139.322 461.76C137.058 461.796 131.87 459.968 128.647 459.316C124.265 458.437 116.446 458.715 120.032 457.343C126.494 458.803 132.867 460.264 139.322 461.76ZM230.947 490.004C226.839 488.257 230.527 487.773 233.82 489.53C234.185 489.726 236.516 492.376 230.947 490.004ZM187.04 475.398C187.221 475.431 190.839 476.57 190.958 476.632C194.063 478.203 183.171 474.759 187.04 475.398ZM413.697 527.535C408.701 527.404 412.259 529.192 415.374 528.645C415.565 528.61 414.025 527.545 413.697 527.535ZM410.144 527.343C406.302 525.717 398.38 528.309 404.605 528.303C405.203 528.303 410.316 527.424 410.144 527.343ZM216.089 484.567C216.686 484.246 220.977 485.86 222.799 486.57C222.632 486.987 217.919 485.091 216.089 484.567ZM329.312 519.554C329.45 519.23 312.981 514.748 311.896 514.958C314.355 515.476 328.88 519.918 329.312 519.554ZM375.515 525.826C375.08 525.729 369.232 525.41 369.331 525.798C372.224 526.547 377.408 526.299 375.515 525.826ZM458.79 529.217C459.083 529.121 454.927 526.587 464.928 528.371C466.396 528.631 461.136 529.201 461.653 529.296C462.749 529.487 463.61 529.581 464.301 529.605C459.64 529.745 454.746 529.741 454.286 529.581C452.102 528.827 458.633 529.259 458.79 529.217ZM503.064 527.395C504.02 526.978 510.343 527.025 511.779 527.134C512.028 527.156 510.981 528.254 513.852 528.072C516.145 527.918 512.666 526.973 517.155 526.964C521.736 526.935 515.651 527.978 516.052 528.012C516.613 528.073 523.628 527.246 523.464 527.875C523.31 528.364 515.667 528.412 513.883 528.563C511.508 528.775 514.409 529.455 510.432 529.42C507.965 529.392 509.292 527.982 508.77 527.929C508.306 527.899 499.712 528.88 503.077 527.399C503.073 527.398 503.068 527.396 503.064 527.395ZM465.579 529.562C465.224 529.604 464.792 529.622 464.301 529.605C464.715 529.592 465.158 529.577 465.579 529.562ZM151.76 464.584C153.914 465.493 147.259 464.129 144.829 463.064C144.874 462.729 151.402 464.435 151.76 464.584ZM469.951 528.497C476.951 528.901 471.783 529.343 465.579 529.562C467.566 529.33 467.625 528.357 469.951 528.497ZM270.931 501.254C271.178 501.433 271.31 501.633 271.264 501.875C270.62 501.387 270.594 501.227 270.931 501.254ZM286.051 506.527C291.512 507.446 280.842 504.128 280.747 504.657C280.74 504.869 285.808 506.484 286.051 506.527ZM420.119 527.869C419.611 527.77 427.558 525.666 416.081 527.03C422.18 527.556 415.728 527.564 415.809 527.778C416.052 528.4 426.296 528.208 428.547 528.541C430.374 527.52 421.742 528.194 420.132 527.87C420.127 527.87 420.123 527.869 420.119 527.869ZM590.332 512.206C589.222 513.379 584.665 515.084 581.526 516.263C582.76 515.112 587.36 513.462 590.332 512.206ZM1183.4 42.7371C1166.2 47.0419 1163.68 46.2903 1179.54 42.893C1179.84 42.823 1184.44 42.3475 1183.4 42.7371ZM1052.88 128.36C1050.97 129.119 1055.14 124.49 1058.19 121.81C1058.89 121.188 1061.83 119.359 1059.29 122.283C1058.62 121.471 1054.21 125.534 1052.88 128.36ZM473.914 527.809C475.941 527.075 482.193 527.635 485.533 527.735C483.468 528.365 476.807 528.071 473.914 527.809ZM1128.6 64.0632C1126.86 64.9964 1126.07 66.2728 1126.38 66.1516C1127.8 65.6122 1130.74 63.2917 1128.6 64.0632ZM453.765 527.4C453.493 526.948 461.747 526.671 462.305 527.787C460.535 527.683 453.967 527.689 453.765 527.4ZM584.535 514.279C583.155 514.61 589.722 511.453 591.758 510.776C591.824 511.284 585.476 514.078 584.535 514.279ZM1102.59 81.5316C1101.18 82.5135 1097.72 85.1942 1097.52 85.7401C1097.27 86.3846 1102.22 82.3429 1102.59 81.5316ZM1409.75 106.977C1409.95 107.152 1402.98 104.652 1400.1 103.202C1394.58 100.406 1409.57 106.833 1409.75 106.977ZM1147.51 53.6134C1147.73 54.0819 1147.52 53.6438 1147.81 54.2507L1145.14 55.5404C1145.86 55.1785 1146.8 54.7047 1147.79 54.2012C1151.08 52.5052 1155.11 50.6379 1150.65 52.1041C1149.98 52.333 1148.7 52.9532 1147.49 53.5763C1146.63 54.0122 1145.8 54.4359 1145.18 54.7364L1147.51 53.6134ZM1140.36 56.9712C1139.9 57.4526 1136.6 59.9975 1139.71 58.2927C1141.15 57.5046 1143.17 55.5823 1140.36 56.9712ZM1368.25 88.4977C1363.55 85.9091 1385.81 96.2145 1386.46 96.5815C1386.78 96.767 1386.98 96.8984 1387.1 96.9821C1387.96 97.2282 1392.21 99.119 1392.57 99.6363C1391.29 99.0316 1387.82 97.5004 1387.44 97.2907C1387.28 97.1994 1387.15 97.1287 1387.07 97.0757C1385.43 96.6524 1369.15 88.9948 1368.25 88.4977ZM1331.38 71.2867C1337.29 73.2406 1337.74 74.6899 1337.25 74.5078C1331 72.1815 1335.31 73.218 1335.14 73.0961C1334.78 72.8637 1330.23 71.2218 1331.4 71.2946C1331.4 71.292 1331.39 71.2893 1331.38 71.2867ZM1360.74 84.9079C1360.98 85.0018 1365.62 87.136 1365.83 87.2473C1369.52 89.3096 1356.28 83.2285 1360.74 84.9079ZM537.468 524.105C541.545 523.926 537.655 525.124 534.904 525.063C534.667 525.052 533.888 524.237 537.468 524.105ZM1137.94 58.4163C1137.02 58.6069 1119.15 68.4282 1120.76 68.6434C1121.95 67.4922 1142.57 56.5949 1137.94 58.4163ZM1021.15 160.492C1023.78 157.672 1021.57 161.395 1019.93 162.651C1019.33 163.116 1020.48 161.212 1021.15 160.492ZM442.686 526.09C438.617 526.605 439.522 524.519 443.004 525.34C443.141 525.372 442.845 526.07 442.686 526.09ZM1042.44 138.423C1033.81 148.457 1033.89 144.168 1046.35 132.318C1046.07 132.796 1045.79 133.275 1045.51 133.757C1059.37 119.658 1046.58 132.89 1043.37 136.554C1042.15 137.945 1043.56 137.139 1042.45 138.416C1042.45 138.419 1042.45 138.421 1042.44 138.423ZM1007.32 175.268C997.084 183.197 1014.74 166.245 1019.29 160.958C1015.27 166.515 1009.18 172.884 1017.99 164.696C1006.15 177.676 1010.53 171.752 1010.01 172.215C1009.38 172.774 1007.76 174.932 1007.32 175.268ZM1030.27 150.594C1030.72 150.025 1034.81 146.246 1036.14 144.731C1034.73 147.254 1027.23 154.453 1030.27 150.594ZM1292.42 53.8581C1293.03 53.7139 1294.19 53.9387 1298.12 55.8981C1296.78 55.4947 1294.19 54.4917 1292.42 53.8581ZM135.768 458.123C132.894 457.357 127.124 455.738 128.808 456.685C129.007 456.776 135.701 458.409 135.768 458.123ZM1089.08 91.0009C1088.54 91.259 1076.88 101.719 1081.27 98.5167C1082.55 97.4739 1093.21 88.1709 1089.08 91.0009ZM1156.46 49.0131C1155.33 49.4421 1150.91 51.5114 1150.87 51.677C1150.72 52.1416 1156.08 49.5244 1156.46 49.0131ZM121.211 454.006C120.845 453.861 111.93 451.81 112.872 452.269C114.661 453.134 122.489 454.494 121.211 454.006ZM552.684 520.554C553.574 520.378 555.081 520.854 555.406 520.798C555.744 520.729 559.302 520.043 563.414 518.889C567.471 517.751 571.078 516.671 567.769 518.314C567.539 518.426 565.967 518.941 563.617 519.603C553.89 522.401 540.717 523.349 538.422 523.513C537.203 522.631 546.962 522.577 549.585 522.012C549.987 521.928 550.219 521.046 552.677 520.559C552.679 520.557 552.681 520.556 552.684 520.554ZM1313.45 63.0386C1314.25 63.0141 1329.37 69.6704 1329.08 69.994C1323.88 67.6791 1318.65 65.3544 1313.45 63.0386ZM1305.79 59.4726C1302.72 57.7923 1310.22 61.1312 1312.47 62.2816C1312.37 62.496 1306.23 59.7134 1305.79 59.4726ZM1129.72 60.5731C1128.4 61.4393 1132.95 59.6722 1132.06 60.3147C1131.49 60.7188 1128.31 62.2166 1127.44 62.961C1127.2 63.1736 1130.6 61.9603 1131.5 61.4367C1132.76 60.6911 1131.28 60.946 1132.7 60.1636C1137.39 57.5751 1141.83 55.6683 1146.44 53.3164C1146.86 53.1033 1143.47 54.4354 1147.04 52.6355C1147.04 52.6352 1147.04 52.6349 1147.04 52.6346C1147.53 52.3876 1150.64 51.3559 1154.51 49.6249C1162.65 44.5599 1169.81 43.7524 1181.74 40.6639C1181.23 40.5572 1172.19 42.2963 1171.68 42.4889C1164.9 44.103 1154.83 47.5243 1146.6 51.7336C1142.2 53.9352 1138.16 56.0267 1134.92 57.764C1132.34 59.157 1133.75 58.7809 1132.65 59.3949C1131.78 59.8822 1132.51 58.751 1129.72 60.5731ZM137.381 458.157C136.105 457.163 131.211 456.367 128.09 455.566C129.085 456.401 134.371 457.251 137.381 458.157ZM1241.8 37.6293C1240.27 37.5494 1235.49 37.1534 1235.08 37.3108C1234.56 37.4929 1241.46 37.9643 1241.8 37.6293ZM634.206 486.479C634.322 486.39 637.89 484.476 638.015 484.437C641.485 483.332 630.901 489.001 634.206 486.479ZM715.833 437.202C718.277 435.465 720.679 433.545 721.897 433.576C720.245 434.551 715.8 437.812 715.833 437.202ZM821.703 359.186C820.667 358.912 828.008 353.474 829.366 352.4C829.139 353.123 822.464 359.395 821.703 359.186ZM1292.57 52.0823C1297.51 54.3933 1296.79 53.1775 1299.81 54.9719C1300.26 55.2445 1301.26 57.5397 1296.06 54.4638C1295.13 53.9109 1299.12 55.3096 1292.57 52.0823ZM1048.28 130.303C1048.87 128.954 1051.93 125.932 1053.94 123.871C1053.75 124.595 1049.67 128.766 1048.28 130.303ZM105.233 449.706C102.882 448.55 91.4192 446.399 94.179 447.402C94.5907 447.541 103.663 449.313 105.233 449.706ZM488.095 524.95C493.042 524.222 482.744 524.06 479.526 524.723C480.986 524.689 487.775 525.003 488.095 524.95ZM796.726 378.766C796.825 378.669 798.247 377.575 799.475 376.635C800.394 375.932 801.206 375.314 801.293 375.263C803.002 374.3 801.576 375.605 799.777 377.025C797.574 378.766 794.806 380.669 796.726 378.766ZM688.933 453.143C690.259 451.668 700.974 445.412 703.596 444.371C701.807 446.529 687.325 454.998 688.933 453.143ZM1272.22 42.2114C1275.15 43.5902 1278.02 45.349 1281.58 47.3844C1280.27 47.0171 1272.25 42.3572 1272.22 42.2114ZM811.845 366.63C812.067 366.454 812.312 366.32 812.525 366.154C812.294 366.317 812.067 366.474 811.845 366.63ZM1195.34 37.7551C1192.37 38.0035 1193.05 38.5114 1193.23 38.5009C1195.46 38.3847 1198.72 37.4986 1195.34 37.7551ZM133.998 456.326C133.057 455.495 127.656 454.638 124.702 453.784C125.466 454.425 131.588 455.79 133.998 456.326ZM997.014 184.364C993.708 186.857 1004.47 174.126 1007.18 171.892C1007.68 171.99 997.491 183.996 997.014 184.364ZM472.69 523.71C472.326 523.081 465.261 523.761 466.751 524.075C467.719 524.28 472.865 524.106 472.69 523.71ZM1013.1 165.981C1014.05 164.736 1016.9 162.421 1016.24 163.569C1015.39 165.051 1012.86 166.303 1013.1 165.981ZM1110.56 71.8852C1109.97 72.1543 1103.29 77.4684 1106.41 75.8185C1108.6 74.6621 1108.53 73.9165 1109.01 73.5828C1109.51 73.1692 1121.36 66.3221 1110.56 71.8852ZM932.611 251.967C933.814 250.552 935.255 249.073 936.723 247.594C937.997 246.309 939.291 245.026 940.462 243.789C940.086 244.415 938.585 246.139 936.978 247.844C935.208 249.722 933.312 251.575 932.611 251.967ZM500.278 523.44C499.395 523.265 475.903 523.219 489.222 523.945C490.041 524.007 502.924 524.179 500.278 523.44ZM1292.57 52.0823C1291.99 51.8123 1291.21 51.4302 1290.42 51.0258C1291.21 51.4083 1292 51.7979 1292.57 52.0823ZM1239.79 36.5599C1241.01 36.3417 1234.97 35.9459 1233.21 36.0494C1232.65 36.3599 1239.6 36.5702 1239.79 36.5599ZM940.26 243.204C941.546 241.531 944.351 238.937 946.118 237.039C946.08 237.61 941.152 242.811 940.26 243.204ZM833.302 346.623C836.665 344.024 840.514 340.488 840.261 340.072C840.377 340.07 840.583 339.994 840.891 339.828C841.204 339.66 844.456 336.479 846.033 335.282C855.619 328.264 811.974 365.741 836.279 342.864C835.289 344.12 834.298 345.371 833.302 346.623ZM674.007 460.944C671.651 461.657 666.27 465.789 667.892 465.101C669.014 464.633 676.388 460.23 674.007 460.944ZM750.94 410.078C750.298 410.404 745.165 414.518 745.207 414.873C748.493 412.999 753.895 408.605 750.94 410.078ZM657.76 469.79C656.402 470.477 655.254 472.304 655.426 472.254C656.916 471.814 660.246 468.98 657.76 469.79ZM1282.54 45.5944C1280.24 44.1855 1274.32 41.4171 1273.04 41.2964C1272.86 41.1251 1272.32 40.7466 1271.33 40.1679C1271.33 40.1693 1271.34 40.1707 1271.34 40.1721C1270.83 39.8763 1265.11 37.1658 1260.06 36.8091C1246.38 35.4449 1232.65 34.6118 1256.06 37.0005C1257.18 37.1309 1255.74 36.6451 1260.03 37.1011C1260.1 37.1088 1260.18 37.1173 1260.26 37.1268C1260.47 37.1527 1260.53 37.4484 1261.15 37.5427C1262.48 37.4334 1270.64 40.3025 1272.75 41.3212C1272.74 41.3761 1272.84 41.4781 1273.07 41.6443C1274.87 42.9217 1283.96 46.5372 1282.54 45.5944ZM761.481 402.457C760.31 403.088 757.008 405.657 756.893 406.248C758.703 405.213 764.203 400.996 761.481 402.457ZM499.527 521.66C496.817 521.354 489.952 522.086 492.031 522.425C493.276 522.647 502.663 522.023 499.527 521.66ZM727.283 426.546C740.315 418.316 730.305 424.454 731.916 422.619C730.372 423.933 728.836 425.236 727.283 426.546ZM1346.32 76.1158C1344.19 75.058 1347 75.6317 1349.29 77.0665C1350 77.5167 1347.52 76.7063 1346.32 76.1158ZM1445.24 121.306C1443.68 120.005 1452.25 124.611 1448.72 123.181C1448.57 123.112 1445.36 121.381 1445.24 121.306ZM1376.38 89.3996C1374.75 89.0592 1373.73 88.6422 1369.58 86.6469C1375.83 89.3872 1370.24 86.4759 1376.38 89.3996ZM840.178 340.045C840.217 340.049 840.248 340.049 840.261 340.072C840.222 340.073 840.196 340.063 840.178 340.045ZM645.22 477.234C643.25 477.624 638.512 480.329 640.238 480.096C640.393 480.08 644.771 478.031 645.22 477.234ZM1273.04 41.2964C1273.21 41.4506 1273.09 41.4392 1272.75 41.3212C1272.76 41.2698 1272.86 41.2662 1273.04 41.2964ZM670.138 462.062C670.223 462.569 677.37 458.443 677.61 458.223C681.209 455.061 673.052 460.285 670.138 462.062ZM445.05 520.568C444.623 520.607 447.341 521.928 449.015 521.478C450.314 521.13 446.66 520.419 445.05 520.568ZM1390.71 95.7818C1393.05 96.8534 1396.32 98.3443 1396.81 98.8642C1395.28 98.1243 1390.57 95.941 1390.71 95.7818ZM1441.93 119.317C1439.27 118.325 1433.68 115.697 1429.69 113.796L1429.79 113.845C1429.54 113.727 1429.29 113.612 1429.05 113.5C1429.07 113.437 1429.36 113.519 1429.86 113.706L1429.76 113.658C1432.25 114.619 1439.79 118.355 1441.93 119.317ZM1289.23 49.0379C1289.19 49.0068 1286.8 47.8204 1285.29 47.152C1284.08 46.5934 1283.32 46.2607 1283.61 46.5588C1283.86 46.8104 1284.39 47.1528 1285.11 47.5265C1287.08 48.5664 1290.45 49.7659 1289.23 49.0379ZM457.673 521.519C460.569 521.15 453.954 519.727 450.829 520.655C449.22 521.135 457.212 521.586 457.673 521.519ZM629.97 484.749C626.721 486.915 635.485 482.852 636.352 481.635C634.767 482.458 631.139 483.975 629.97 484.749ZM741.159 414.974C730.174 420.392 737.424 419.32 739.045 417.861C739.272 417.656 741.426 414.84 741.159 414.974ZM76.9567 441.133C75.3049 440.941 81.3018 442.76 82.16 442.569C82.6678 442.438 78.0422 441.254 76.9567 441.133ZM883.207 299.392C882.845 299.752 882.485 300.11 882.129 300.464C882.38 300.182 882.729 299.83 883.207 299.392ZM597.095 498.776C606.168 497.334 604.444 495.891 605.143 495.575C606.627 494.879 610.364 493.796 613.052 492.29C610.032 494.159 607.017 495.994 603.915 497.828C606.64 496.856 628.553 486.495 628.717 485.83C629.075 484.97 622.475 488.722 622.26 488.766C621.953 488.845 620.127 487.94 619.474 488.212C618.469 488.712 600.34 497.834 597.095 498.776ZM720.318 429.452C722.047 428.533 722.862 428.755 723.533 428.122C723.763 427.906 723.467 427.371 724.254 426.654C722.952 427.583 721.627 428.525 720.318 429.452ZM583.303 507.424C580.66 507.72 591.383 503.483 591.703 503.379C593.713 503.063 585.554 507.215 583.303 507.424ZM666.332 463.707C665.967 463.882 658.653 467.939 658.933 468.254C660.986 467.437 670.668 461.759 666.332 463.707ZM725.31 425.895C727.783 424.325 732.692 421.73 731.66 421.325C731.656 421.327 731.653 421.329 731.649 421.332C729.539 422.86 727.429 424.379 725.31 425.895ZM467.701 519.659C462.262 518.064 464.853 520.027 469.631 520.573C471.081 519.906 468.59 519.918 467.701 519.659ZM450.412 518.211C448.938 517.919 433.438 517.77 435.794 518.64C436.589 518.957 445.519 518.489 445.936 518.55C446.556 518.648 443.688 519.467 448.452 519.411C448.185 519.103 450.922 518.314 450.412 518.211ZM463.229 518.623C457.892 517.379 456.595 519.483 460.676 519.564C462.263 519.595 463.987 518.801 463.229 518.623ZM485.244 518.966C483.266 518.77 478.091 518.466 474.564 519.147C479.293 519.242 484.127 519.311 488.873 519.347C489.416 518.942 486.961 519.141 485.231 518.966C485.235 518.966 485.24 518.966 485.244 518.966ZM1462.98 132.271C1462.56 130.621 1463 131.588 1463.51 133.2C1464.01 134.809 1464.52 137.147 1464.54 137.342C1464.6 138.49 1463.38 133.708 1462.98 132.271ZM46.1298 425.172C45.001 424.903 44.2291 424.406 41.692 424.304C44.1998 424.902 46.7488 425.527 49.2716 426.171C51.367 425.753 47.3379 425.461 46.1298 425.172ZM36.5872 421.63C36.9591 421.655 35.0555 420.456 39.6821 421.605C42.7904 422.384 25.515 420.998 22.397 420.391C25.871 420.475 33.3959 421.413 36.5872 421.63ZM6.33156 415.801C6.14396 415.713 12.8148 415.74 13.6424 415.84C17.6388 416.234 7.47474 416.101 6.33156 415.801ZM27.6014 416.865C24.4814 416.478 31.4019 416.81 33.4394 417.079C33.6552 417.273 28.0685 416.916 27.6014 416.865ZM1438.95 101.337C1438.14 100.719 1437.25 100.257 1436.54 99.9768C1436.53 99.9719 1436.5 99.9589 1436.49 99.9541C1435.2 99.4586 1434.58 99.6099 1436.24 100.475C1436.25 100.48 1436.27 100.491 1436.28 100.495C1436.65 100.691 1437.12 100.922 1437.71 101.183C1437.93 101.285 1439.06 101.427 1438.95 101.337ZM12.9433 415.078C16.1351 415.338 9.08838 415.226 7.00951 415.152C6.87954 414.987 12.4499 415.024 12.9433 415.078ZM1437.48 98.9912C1437.36 98.916 1437.24 98.8448 1437.13 98.7774C1437.12 98.7712 1437.09 98.7546 1437.07 98.7485C1433.64 96.6837 1434.39 98.5862 1434.85 98.8761C1435.24 99.1212 1435.84 99.4365 1436.57 99.7903C1436.58 99.7952 1436.61 99.8087 1436.62 99.8138C1439.53 101.259 1444.41 103.352 1445.63 103.868C1435.04 98.6188 1439.27 100.151 1437.48 98.9912ZM1418.65 90.5875C1414.88 88.8949 1424.21 93.8691 1426.18 94.3859C1424.34 93.4923 1419.73 91.0718 1418.65 90.5875ZM1396.46 78.9735C1394.52 77.9383 1388.67 74.8645 1387.56 74.5946C1389.74 75.6289 1395.55 78.8046 1396.46 78.9735ZM1392.29 76.0477C1389.35 74.1882 1388.18 74.7234 1391.87 76.2352C1392.01 76.2942 1392.4 76.1219 1392.29 76.0477ZM1375.03 66.9786C1373.17 65.5795 1370.43 65.3328 1373.7 67.0017C1374.68 67.498 1375.23 67.13 1375.03 66.9786ZM1433.1 95.0436C1430.28 93.4459 1426.25 92.1305 1432.41 95.31C1430.22 94.3124 1427.95 93.2856 1425.74 92.2818C1433.76 96.7064 1433.49 95.5906 1435.83 96.8106C1436.59 97.2035 1437.14 97.5339 1437.53 97.8072C1437.54 97.8144 1437.58 97.8337 1437.6 97.841C1438.91 98.7737 1438.42 99.0392 1437.84 98.9325C1440.72 99.924 1452.07 105.766 1458.69 109.48C1452.98 106.004 1443.76 100.839 1438.12 97.7889C1437.99 97.7191 1437.86 97.6506 1437.73 97.583C1437.71 97.5754 1437.67 97.5553 1437.65 97.5479C1436.15 96.7891 1434.63 96.2101 1433.36 95.5493C1431.16 94.3996 1433.25 95.1346 1433.11 95.0494C1433.1 95.0475 1433.1 95.0455 1433.1 95.0436ZM1352.14 55.4598C1346.44 52.0442 1349.67 54.8567 1353.16 56.3955C1353.32 56.4556 1352.28 55.5449 1352.14 55.4598ZM3.89891 412.601C13.2482 412.803 6.48174 413.113 25.5717 412.952C17.5509 413.195 25.1009 413.32 23.529 413.481C22.2583 413.596 17.5846 413.301 20.3102 413.733C16.7447 413.137 1.17295 413.2 0.0820097 413.477C0.0888182 413.476 0.0956325 413.476 0.102453 413.475C-0.382535 413.496 0.846079 412.612 3.89891 412.601ZM1397.53 76.6985C1396.09 74.6593 1394.43 75.9043 1390.97 73.0643C1385.13 71.7074 1405.38 80.3532 1407.22 82.5865C1385.96 71.7452 1420.82 90.7099 1406.68 81.656C1418.65 88.3931 1410.78 83.489 1412.77 84.2459C1414.91 85.0688 1421.69 88.7819 1421.53 88.2395C1421.53 88.2376 1421.52 88.2356 1421.52 88.2337C1417.28 86.1188 1413.02 83.991 1408.79 81.8843C1412.56 84.8085 1403.99 80.1828 1401.39 78.017C1400.1 77.5722 1398.81 77.1326 1397.53 76.6985ZM1421.13 89.5579C1420.71 89.3246 1411.45 84.8043 1411.96 85.2667C1413.16 85.9957 1426.31 92.4471 1421.13 89.5579ZM1461.91 110.796C1458.55 108.764 1453.52 105.841 1451.57 105.145C1454.85 106.904 1459.92 109.925 1461.91 110.796ZM1292.14 23.9424C1289.43 22.5963 1293.75 25.3486 1295.64 26.2505C1296.99 26.9092 1297.69 27.1759 1296.51 26.4077C1296.47 26.3795 1296.11 26.1936 1295.76 26.0046C1294.76 25.4808 1292.31 24.0261 1292.14 23.9424ZM1387.86 72.0131C1383.73 69.5185 1385.24 71.5818 1388.57 72.9208C1388.76 72.9984 1388.05 72.1285 1387.86 72.0131ZM11.4427 412.382C11.8382 412.086 25.015 412.544 27.3152 412.688C26.025 412.835 11.0826 412.585 11.4427 412.382ZM1468.6 114.225C1461.64 108.017 1452.62 104.76 1451.56 104.061C1450.57 103.504 1452.31 104.006 1452.08 103.874C1451.58 103.548 1441.21 98.0883 1440.68 97.8586C1440.31 97.6894 1441.94 99.1631 1439.73 98.2125C1444.02 99.9981 1462.88 110.433 1464.04 111.402C1464.45 111.631 1463.23 110.687 1463.07 110.472C1462.96 110.354 1463.58 110.338 1468.58 114.214C1468.59 114.218 1468.59 114.221 1468.6 114.225ZM1449.16 102.639C1451.63 104.213 1444.38 100.383 1442.65 99.3919C1438.86 97.1854 1448.81 102.404 1449.16 102.639ZM1431.69 93.3336C1430.89 92.8667 1423.43 89.029 1422.67 88.9492C1426.04 91.0458 1433.53 94.4008 1431.69 93.3336ZM1348.41 51.1567C1346.46 50.215 1341.2 47.2672 1340.8 47.3802C1342.72 48.3114 1347.98 51.2521 1348.41 51.1567ZM56.5365 412.091C52.9027 411.617 61.3693 412.069 63.8708 412.383C63.9465 412.577 56.8952 412.132 56.5365 412.091ZM1388.2 69.4432C1387.11 68.7992 1363.56 56.9899 1360.22 55.4299C1363.35 57.256 1386.59 69.1235 1387.67 69.5658C1387.99 69.6975 1388.34 69.5293 1388.2 69.4432ZM1439.05 95.3021C1441.38 96.1448 1442.58 97.2385 1442.86 97.3871C1445.49 98.8291 1451.05 101.737 1449.69 101.363C1446.61 99.599 1440.87 96.7499 1438.73 95.5477C1438.72 95.5378 1438.66 95.5117 1438.64 95.502C1437.61 94.9332 1437.43 94.7312 1438.79 95.1964C1438.81 95.2064 1438.87 95.2334 1438.89 95.2436C1438.94 95.2622 1438.99 95.2817 1439.05 95.3021ZM1347.55 48.6474C1339.54 44.7272 1354.64 52.9186 1352.8 51.505C1352.7 51.4247 1348.37 49.0477 1347.55 48.6474ZM1390.88 70.6918C1392.74 71.3053 1416.07 83.5297 1419.84 85.451C1416.28 84.2217 1413.68 82.4477 1409.16 80.1682C1407.93 79.5473 1408.16 79.9167 1408.03 79.8495C1405.9 78.7767 1407.6 79.3533 1406.3 78.6837C1405.52 78.2776 1388.19 69.7963 1390.88 70.6918ZM1440.39 95.7467C1441.77 96.2158 1456.49 104.053 1457.08 104.515C1461.35 107.238 1441.45 96.2925 1440.39 95.7467ZM1388.93 69.1356C1391.74 69.8447 1403.2 76.2137 1395.07 72.4051C1394.28 72.0327 1391.25 70.1615 1388.93 69.1356ZM1348.69 48.4747C1348.32 48.2619 1340.12 43.8949 1339.83 44.0056C1341.02 44.7132 1353.04 50.959 1348.69 48.4747ZM1353.32 50.0007C1353.12 49.9041 1354.86 51.2803 1351.03 49.2506C1350.7 49.0773 1350.29 48.3211 1345.34 45.9752C1344.32 45.4922 1342.66 45.0043 1342.76 45.0795C1347.48 48.3631 1363.52 54.9605 1353.32 50.0007ZM1440.8 95.5982C1440.09 95.0318 1442.21 95.5885 1443.82 96.7263C1444.49 97.2106 1443 96.749 1440.8 95.5982ZM1322.5 34.8081C1327.47 36.9307 1312.41 29.0959 1311.6 28.7907C1311.94 29.2461 1322.02 34.6064 1322.5 34.8081ZM65.4995 409.693C65.4952 409.693 65.491 409.692 65.4867 409.692C70.0837 410.072 67.1862 410.22 67.3979 410.242C77.1498 411.403 74.6812 410.49 76.2289 410.502C79.5041 410.542 78.8971 411.451 84.4752 411.507C75.204 411.345 83.6421 411.781 83.8133 412.146C84.6837 413.616 71.6825 410.489 67.0593 410.515C66.404 410.504 71.1118 411.262 69.4402 411.264C64.0927 411.208 47.8281 408.345 65.4995 409.693ZM1445.17 97.3963C1447.15 98.0605 1461.4 106.29 1457.48 104.384C1456.85 103.992 1442.19 96.2695 1445.17 97.3963ZM809.785 302.785C812.284 299.935 805.226 305.08 804.266 306.435C803.794 307.115 808.687 304.046 809.785 302.785ZM760.673 338.873C757.173 341.623 754.802 346.302 759.048 342.71C759.502 342.325 761.282 338.828 760.673 338.873ZM978.522 138.169C974.633 141.058 975.804 141.797 978.264 139.286C979.13 138.403 978.644 138.079 978.522 138.169ZM849.695 265.855C849.319 266.139 845.402 269.901 845.784 270.014C847.401 268.807 852.167 264.042 849.695 265.855ZM979.451 136.96C977.625 139.147 981.781 136.335 983.525 133.23C982.348 134.526 979.643 136.732 979.451 136.96ZM1380.93 63.0126C1378.69 62.2322 1372.75 59.0538 1369.29 57.3377C1369.1 56.7404 1378.45 61.8219 1380.93 63.0126ZM776.272 328.191C773.313 331.232 780.732 326.061 779.594 325.965C779.48 326.003 776.388 328.071 776.272 328.191ZM1098.58 33.2944C1095.83 35.282 1105.44 30.4445 1102.53 31.323C1102.38 31.3674 1098.73 33.174 1098.58 33.2944ZM1140.95 13.1306C1138.33 13.849 1127.67 18.5959 1131.97 17.0851C1132.62 16.7855 1140.86 13.4562 1140.95 13.1306ZM76.5496 410.155C75.2978 409.534 82.9028 410.212 83.9364 410.395C84.382 410.474 78.1089 410.952 76.5496 410.155ZM956.584 160.133C954.907 161.958 950.269 166.378 949.76 167.455C951.832 165.251 957.722 160.101 956.584 160.133ZM791.31 316.248C787.877 317.856 783.036 321.82 785.006 321.79C790.364 317.399 783.666 321.503 791.31 316.248ZM990.079 125.052C988.643 126.408 988.28 128.183 988.473 128.056C990.315 126.833 991.744 123.926 990.079 125.052ZM885.771 230.682C885.359 230.438 881.005 234.987 881.819 234.61C882.085 234.493 886.102 230.885 885.771 230.682ZM1307.04 24.6248C1304.56 23.0316 1312.59 26.9048 1314.78 28.3886C1315.71 29.3796 1307.35 24.8199 1307.04 24.6248ZM1029.57 86.1622C1029.51 85.9628 1028.77 86.5484 1027.86 87.3901C1025.98 89.1362 1023.35 92.1037 1025.54 90.4319C1026.01 90.076 1027.28 88.7986 1028.24 87.7631C1029.01 86.9434 1029.6 86.2554 1029.57 86.1622ZM1110.63 25.4868C1104.65 29.1154 1131.31 16.6676 1124 19.3193C1123.5 19.4359 1111.16 25.086 1110.63 25.4868ZM1157.27 7.05715C1156 7.33186 1156.13 5.39099 1161.55 4.81407C1162.26 4.73684 1159.17 5.94937 1159.76 5.92206C1160.1 5.81256 1171.5 3.68667 1172.01 3.64232C1172.56 3.49912 1171.79 3.06254 1172.35 2.90226C1172.99 2.69715 1180.07 2.08333 1183.72 1.7023C1190.6 0.950779 1191.28 0.527336 1191.85 0.462156C1193.5 0.330391 1196.28 0.457483 1199.59 0.30743C1216.32 -0.708794 1241.34 0.903101 1253.69 3.54193C1242.57 1.76866 1231.67 1.14915 1220.17 0.906416C1223.56 -0.0172462 1203.17 1.40181 1215.1 0.433653C1209.76 -0.679537 1161.43 4.63427 1157.29 7.05354C1157.28 7.05474 1157.28 7.05595 1157.27 7.05715ZM746.061 348.706C747.787 346.427 736.463 354.754 736.047 356.234C737.658 355.284 745.851 348.989 746.061 348.706ZM795.962 307.723C796.873 306.78 796.774 304.773 802.534 301.028C802.539 301.024 802.544 301.02 802.548 301.016C804.23 299.918 802.752 301.677 803.123 301.55C803.262 301.513 808.548 298.107 804.682 301.541C798.775 306.758 803.328 301.102 800.094 303.783C799.707 304.113 794.152 309.844 794.63 309.695C794.683 309.682 796.405 308.024 796.763 307.832C798.109 307.113 797.878 307.964 798.056 307.849C798.639 307.47 807.714 298.734 809.589 298.098C810.232 297.928 794.752 311.624 794.017 311.992C793.571 312.253 792.828 311.03 792.331 311.256C792.083 311.378 785.977 316.997 785.048 317.56C784.78 317.726 784.567 317.843 784.409 317.927C785.669 317.491 779.775 322.129 779.637 321.595C779.621 321.362 783.733 318.252 783.9 318.158C783.973 318.118 784.04 318.09 784.101 318.06C782.949 318.334 796.542 307.353 793.098 309.114C796.733 305.57 793.295 310.463 795.962 307.723ZM814.04 291.33C813.74 291.783 813.441 292.236 813.14 292.689C819.643 286.615 827.828 280.33 835.458 273.397C837.394 271.638 834.56 273.012 837.263 270.882C839.425 269.178 842.232 267.713 841.256 268.859C841.019 269.142 836.521 272.529 834.483 274.443C828.465 280.096 830.527 279.253 830.183 279.594C829.802 279.968 825.564 283.03 823.456 284.918C818.155 289.666 816.025 292.174 808.235 298.003C812.158 293.984 809.097 295.151 814.04 291.33ZM1061.69 55.5331C1061.71 55.0034 1067.07 51.3204 1068.94 49.8984C1068.88 50.4091 1063.48 54.0398 1061.69 55.5331ZM344.302 456.864C342.581 457.434 354.264 459.901 351.311 458.6C350.686 458.344 345.851 457.214 344.302 456.864ZM400.093 462.542C401.935 462.382 394.6 461.424 394.586 462.101C394.573 462.318 399.869 462.564 400.093 462.542ZM899.409 212.323C899.465 212.26 899.725 212.011 900.089 211.668C901.224 210.601 903.381 208.611 903.487 208.546C904.998 207.625 902.549 210.162 900.495 212.066C898.524 213.894 896.908 215.151 899.409 212.323ZM474.185 463.773C467.907 464.292 486.764 464.694 481.009 463.919C480.723 463.886 474.489 463.752 474.185 463.773ZM500.212 463.589C498.754 463.649 492.141 463.421 492.068 463.682C491.93 464.121 499.492 464.345 500.212 463.589ZM989.133 122.275C988.047 122.25 994.873 116.269 997.039 113.972C998.117 113.995 991.29 119.977 989.133 122.275ZM948.446 162.237C974.847 134.86 970.157 141.996 947.131 164.117C946.722 163.786 946.777 163.966 948.446 162.237ZM982.941 127.783C982.325 129.114 979.164 132.071 977.062 134.12C977.185 133.496 981.512 129.342 982.941 127.783ZM329.633 452.129C332.142 451.957 341.536 455.111 339.743 455.022C339.398 455.042 328.742 452.365 329.633 452.129ZM901.145 209.587C899.928 209.632 908.253 201.87 908.999 201.382C912.016 199.422 901.673 208.816 901.145 209.587ZM1027.44 83.486C1028.54 81.621 1033.13 77.6709 1036.02 75.0367C1035.06 76.5685 1029.77 81.2411 1027.44 83.486ZM1007.84 102.062C1007.98 101.889 1011.72 98.2737 1011.89 98.136C1015.32 95.5532 1004.8 105.747 1007.84 102.062ZM59.5863 405.494C59.7478 405.483 63.7219 405.667 63.8728 405.692C67.3714 406.228 55.4705 405.664 59.5863 405.494Z" fill="#3D2774"/>
</g>
<defs>
<filter id="filter0_n_2851_52" x="0" y="0" width="1481.34" height="529.799" filterUnits="userSpaceOnUse" color-interpolation-filters="sRGB">
<feFlood flood-opacity="0" result="BackgroundImageFix"/>
<feBlend mode="normal" in="SourceGraphic" in2="BackgroundImageFix" result="shape"/>
<feTurbulence type="fractalNoise" baseFrequency="0.33783784508705139 0.33783784508705139" stitchTiles="stitch" numOctaves="3" result="noise" seed="2140" />
<feColorMatrix in="noise" type="luminanceToAlpha" result="alphaNoise" />
<feComponentTransfer in="alphaNoise" result="coloredNoise1">
<feFuncA type="discrete" tableValues="1 1 1 1 1 1 1 1 1 1 1 1 1 1 1 1 1 1 1 1 1 1 1 1 1 1 1 1 1 1 1 1 1 1 1 1 1 1 1 1 1 1 1 1 1 1 1 1 1 1 1 0 0 0 0 0 0 0 0 0 0 0 0 0 0 0 0 0 0 0 0 0 0 0 0 0 0 0 0 0 0 0 0 0 0 0 0 0 0 0 0 0 0 0 0 0 0 0 0 0 "/>
</feComponentTransfer>
<feComposite operator="in" in2="shape" in="coloredNoise1" result="noise1Clipped" />
<feFlood flood-color="rgba(0, 0, 0, 0.25)" result="color1Flood" />
<feComposite operator="in" in2="noise1Clipped" in="color1Flood" result="color1" />
<feMerge result="effect1_noise_2851_52">
<feMergeNode in="shape" />
<feMergeNode in="color1" />
</feMerge>
</filter>
</defs>
</svg>
