<svg width="714" height="176" viewBox="0 0 714 176" fill="none" xmlns="http://www.w3.org/2000/svg">
<g filter="url(#filter0_n_2851_59)">
<path d="M665.534 23.5861C665.085 23.4312 663.377 22.4165 662.598 22.0667C663.686 21.8437 667.163 24.1497 665.534 23.5861ZM577.901 66.3339C578.444 66.0288 579.033 65.7232 579.595 65.4223C577.908 65.4922 575.749 65.9696 574.176 65.9887C573.924 65.99 574.509 65.2357 573.917 65.2949C573.322 65.3551 573.524 66.2357 572.669 66.4666C571.703 66.7168 567.165 66.829 565.625 67.1272C559.823 68.2211 554.037 69.9476 548.084 70.8982C553.999 68.8801 547.771 69.5373 546.104 70.2322C545.724 70.397 546.191 72.0304 539.97 73.089C537.306 73.5504 537.818 72.1864 536.476 72.1471C535.836 72.1323 534.791 72.4084 532.811 73.3403C538.22 73.7319 533.313 74.8441 529.405 75.9877C528.742 76.171 523.228 77.471 520.827 78.2931C519.987 78.5754 519.04 79.8142 517.956 80.1782C517.213 80.4274 516.495 80.1335 515.378 80.517C511.383 81.8867 507.432 83.2659 503.365 84.6391C502.238 85.019 501.109 85.3975 499.974 85.774C502.124 82.5139 497.304 85.6976 497.03 85.6933C495.596 85.5519 500.998 83.3556 498.697 83.7866C495.695 84.9709 492.702 86.2014 489.706 87.4805C492.283 86.7538 487.187 90.5944 485.843 90.3468C487.114 91.9611 471.463 94.6136 469.596 96.3287C469.217 96.6726 472.555 96.1884 465.603 98.9825C464.847 99.2889 464.852 98.6064 464.492 98.8435C464.274 98.9871 463.752 101.402 461.793 101.165C461.071 101.093 463.967 98.2018 456.585 102.468C460.517 102.668 446.57 108.788 443.842 109.761C444.468 109.724 445.097 109.687 445.722 109.653C442.908 110.349 442.793 111.176 442.222 111.442C439.93 112.514 436.518 113.625 434.463 114.842C432.047 116.271 432.682 117.305 429.58 118.515C430.39 118.364 431.213 118.207 432.014 118.064C430.013 119.115 428.025 120.168 426.022 121.238C429.757 117.264 425.002 121.731 424.648 121.977C424.096 122.361 424.597 121.318 423.665 121.947C423.571 122.017 424.031 122.463 422.572 123.382C419.492 125.323 419.59 124.377 418.276 125.149C418.153 125.226 418.883 125.44 416.648 126.892C409.587 131.495 416.455 126.513 416.706 126.28C417.012 125.987 413.345 125.441 419.924 122.565C417.714 123.545 416.981 122.79 416.734 122.904C416.533 122.995 412.979 125.242 412.807 125.385C411.223 126.716 413.139 126.401 412.86 126.709C412.646 126.948 407.793 128.753 407.866 131.135C404.754 130.733 408.147 128.936 411.5 126.62C411.803 125.981 407.749 127.921 407.554 128.038C402.57 130.986 406.159 130.705 405.599 132.21C405.303 132.998 402.715 133.269 405.327 133.378C400.856 136.18 403.182 133.86 402.828 133.928C402.286 134.04 400.903 135.325 400.676 135.395C400.341 135.499 401.101 134.484 399.858 135.015C399.656 135.105 398.233 136.917 400.844 135.851C397.559 137.641 398.181 138.106 396.332 137.516C395.541 141.14 393.858 137.096 392.897 137.483C390.326 138.522 392.127 139.942 392.056 140.105C391.576 141.163 384.509 144.394 382.993 145.59C382.862 143.915 388.317 142.534 389.174 141.692C392.094 138.858 383.94 143.825 385.443 140.734C384.655 141.799 383.865 142.861 383.079 143.914C380.506 143.95 383.009 141.932 377.939 145.296C377.606 146.703 381.605 143.045 381.105 144.286C380.801 145.027 377.789 146.83 377.842 147.093C377.955 147.389 380.54 145.524 380.348 146.18C379.992 147.597 369.008 152.451 376.67 147.635C374.479 148.858 372.314 147.701 370.679 149.297C369.574 150.331 378.246 149.013 367.061 154.237C366.363 153.525 371.353 151.705 371.39 151.592C371.501 151.412 369.632 149.936 369.442 149.915C368.846 149.904 357.987 156.642 354.664 156.794C355.05 156.961 354.675 157.313 353.873 157.751C351.36 159.162 344.812 161.077 344.02 161.618C343.74 161.827 345.187 162.119 344.878 162.312C342.924 163.534 336.768 164.082 334.13 164.758C331.176 165.535 331.724 166.037 331.559 166.084C330.246 166.389 331.167 165.697 330.372 165.904C329.168 166.269 320.933 168.02 320.543 168.146C320.427 168.197 321.935 168.642 320.167 169.134C319.859 169.207 319.874 168.38 314.658 169.665C308.376 171.152 319.298 169.969 316.831 171.294C312.452 170.745 312.845 171.94 311.704 172.019C311.306 172.042 308.262 171.413 305.186 171.856C307.382 171.411 309.566 170.935 311.764 170.419C309.538 170.582 305.352 171.371 303.533 171.359C302.648 171.356 303.241 170.408 301.361 170.639C300.964 170.685 299.65 173.003 304.483 171.481C304.991 172.193 302.556 171.978 301.489 172.305C301.329 172.356 300.837 173.692 299.332 173.043C298.975 172.858 302.154 168.92 293.113 172.347C292.82 172.454 293.914 172.838 293.629 172.955C293.434 173.037 291.028 173.014 290.771 173.093C290.507 173.18 291.708 173.608 291.396 173.728C289.787 174.34 287.462 172.478 290.859 172.425C289.705 172.252 288.556 172.071 287.413 171.884C288.739 173.317 285.675 172.399 284.127 172.501C274.208 173.099 280.91 173.859 279.227 174.409C276.511 175.254 278.492 172.699 274.461 173.494C274.091 173.551 279.028 174.665 269.433 174.012C270.842 173.987 272.253 173.953 273.667 173.909C272.805 172.492 268.575 173.982 268.243 173.988C264.501 174.105 267.026 173.675 261.486 174.221C260.99 174.268 259.919 173.879 258.863 174.005C254.48 174.524 264.632 174.683 264.929 175.228C265.05 175.553 254.104 175.005 253.751 174.811C252.179 174.142 258.689 174.828 257.459 174.03C256.99 173.827 241.561 173.278 238.548 172.613C235.038 171.939 233.602 169.922 233.426 171.984C232.585 169.85 231.613 171.132 231.166 171.065C225.771 170.238 225.765 170.21 221.15 169.779C220.124 169.679 219.329 168.957 218.96 169.007C218.745 169.038 219.068 169.737 218.026 169.786C216.572 169.868 208.137 167.873 207.573 167.41C206.995 166.962 211.155 167.84 210.476 167.143C207.451 166.602 204.532 166.256 201.482 165.658C200.226 165.409 200.928 165.129 200.386 165.025C200.329 165.013 200.015 164.978 199.579 164.935C197.911 164.769 194.897 164.359 195.04 164.496C195.205 164.645 197.099 165.12 199.49 165.572C203.317 166.356 208.62 167.283 206.166 167.352C205.455 167.371 203.17 166.04 203.401 167.218C202.045 166.953 200.703 166.685 199.373 166.415C185.862 163.882 173.312 158.544 162.612 152.027C169.946 155.419 178.284 160.078 187.042 162.634C188.22 163.008 192.299 164.194 191.916 163.509C184.416 161.541 175.476 158.335 169.362 154.785C169.166 154.673 170.106 154.607 169.387 154.157C168.029 153.343 163.254 151.578 162.633 150.953C162.527 150.846 165.304 151.709 164.733 150.922C163.287 148.917 161.733 150.63 160.113 149.606C158.778 148.851 151.351 142.532 149.176 141.655C146.727 140.767 154.619 146.122 153.775 146.191C148.028 142.959 143.329 138.431 138.858 134.75C138.778 134.685 139.184 135.617 138.154 134.826C136.37 133.448 136.33 132.568 135.575 131.779C134.753 130.929 131.667 128.299 131.416 127.762C131.383 127.693 132.383 127.76 132.487 127.83C133.956 128.798 133.928 129.845 134.042 129.961C134.48 130.389 135.121 130.539 135.529 130.92C136.2 131.546 136.408 132.109 137.317 132.924C137.946 133.489 137.669 132.521 138.273 133.07C138.486 133.27 140.202 136.381 141.235 135.535C141.172 135.261 122.525 117.784 120.876 116.604C122.287 118.093 123.724 119.619 125.173 121.155C122.244 117.966 118.002 115.406 118.661 114.074C116.881 112.445 115.124 110.865 113.401 109.369C105.089 102.005 94.8892 96.1912 83.1515 90.2503C80.6928 88.8986 82.4073 88.8657 78.1323 87.0006C79.1183 87.7703 80.0931 88.5371 81.061 89.3048C80.3077 88.8543 78.5717 87.8909 76.5688 86.8043C73.2589 84.9846 69.344 82.9928 68.3799 82.6531C68.1832 82.5851 67.6593 83.0841 65.3907 82.0938C63.375 81.2216 63.235 80.6143 62.1917 80.0488C61.319 79.5782 60.254 79.2637 59.9966 79.1241C59.7979 79.0157 59.8172 78.6949 59.3357 78.4356C57.8188 77.6276 58.811 78.952 57.5668 77.3928C57.9603 77.5134 58.3537 77.635 58.7501 77.7587C56.8931 76.8337 54.392 75.3932 57.2987 76.3089C57.8002 76.4692 57.2867 76.5747 57.6504 76.7205C71.7621 82.6548 60.7509 77.2185 55.5788 75.7207C54.4525 74.7848 47.0414 72.3994 46.8117 72.2658C46.5 72.0383 47.8616 72.1511 46.271 71.3215C45.9604 71.1019 35.8489 68.2262 39.5942 68.8258C40.3905 68.9385 45.1609 70.5529 46.3165 70.9339C43.8464 69.1936 37.0752 68.4368 36.3645 68.2051C33.4458 67.2322 42.1834 69.1384 35.5707 67.1406C30.4679 65.6508 35.1447 67.5077 33.1334 67.1897C32.5994 67.1046 31.0672 66.5801 29.564 66.1422L29.8225 66.1938C28.1187 65.7452 26.5182 65.4104 26.5332 65.8173C24.5185 65.4427 25.7567 65.3213 25.5144 65.2374C25.2677 65.1511 21.3362 64.5309 20.1115 64.1549C19.9616 64.1071 20.4936 63.8277 20.3404 63.7672C20.0912 63.6702 17.4804 63.2434 16.4954 63.1256C16.292 63.0997 16.157 63.085 16.1302 63.0861C16.076 63.0894 16.3102 63.2282 16.4693 63.3574C16.6032 63.4653 16.6873 63.5664 16.5162 63.574C16.4979 63.5748 16.474 63.5743 16.4451 63.5728C15.8397 63.541 12.2453 62.9274 11.9862 62.9671C11.7141 63.0665 16.5073 63.72 15.6492 63.9502C13.6017 63.5371 9.68256 63.1608 8.0228 63.0881C8.43239 63.0969 10.772 63.5139 11.5487 63.6653C11.1552 64.1499 6.07292 63.1452 7.86962 63.0935C6.73393 63.0782 7.4677 63.3455 6.81302 63.4119C6.63957 63.4305 5.05909 63.0817 4.73739 63.0872C4.69382 63.0979 6.29401 63.6632 5.95008 63.6864C5.31693 63.7708 0.531182 62.4404 0.180628 62.2457C-0.872228 61.7977 3.00653 62.7769 3.38231 62.633C3.42468 62.6265 0.247065 61.313 0.220845 61.2522C0.112997 60.8436 3.66805 62.1235 3.32861 61.6598C2.44458 61.3545 1.57167 61.0362 0.707133 60.7053C4.17142 61.4511 10.6481 62.86 12.2213 62.6447C7.23745 62.0545 1.75676 60.5453 2.02499 59.6792C2.11106 59.3226 4.31905 59.6611 4.25349 59.5381C4.00166 59.1389 0.948228 58.7072 0.849021 58.6436C0.763917 58.5974 0.727549 58.5658 0.732349 58.5469C0.732351 58.5468 0.732353 58.5468 0.732355 58.5468C0.773021 58.3824 5.03815 59.3471 5.27788 59.2739C5.66295 59.1946 3.91095 58.0931 3.9499 57.9453C4.02034 57.9474 7.04788 58.4481 6.08445 57.9684C5.10725 57.5042 2.5269 56.8589 2.44424 56.7995C1.98603 56.5475 6.53247 57.4831 6.69213 57.3826C6.76741 57.3576 4.39566 56.5467 4.34567 56.4408C4.30466 56.3503 6.17384 56.5846 6.94408 56.4564C7.51503 56.3676 5.97951 55.9093 6.25979 55.9327C6.45789 55.9824 10.6886 56.7152 10.8985 56.6837C11.2135 56.6767 10.2584 56.2932 10.4102 56.2545C10.6246 56.2015 11.9691 56.4765 11.8039 56.3624C11.6734 56.3089 6.55095 54.6415 6.64429 54.4019C6.7688 54.0778 12.1025 55.8314 7.25836 53.5214C7.22569 53.5085 5.97684 53.374 5.9466 53.3559C5.24945 52.9412 9.22349 53.3305 4.45 52.4219C13.3993 53.6587 5.6462 52.1199 7.07866 51.7572C7.61996 51.635 11.0351 52.0265 11.06 51.976C10.7689 51.6294 9.65235 51.7223 9.30808 51.5173C9.11876 51.4188 12.2006 51.4798 11.5445 51.1795C11.1987 51.0454 8.00338 50.6399 7.87963 50.5808C6.66225 50.1776 8.23546 50.2234 7.9851 50.0384C7.81817 49.9231 5.92841 49.5821 5.88278 49.5498C5.81255 49.5126 8.44653 49.5863 9.00246 49.5133C9.42404 49.4701 7.93147 49.0879 8.22261 49.0845C9.95318 49.0897 13.5158 50.1574 10.1393 48.796C9.93358 48.714 8.62169 48.5608 8.58443 48.5405C7.82584 48.159 10.2301 48.4715 10.6988 48.2853C11.4906 47.9867 8.01247 47.7972 10.919 47.8605C8.80417 47.3651 7.63868 47.2247 5.15558 46.8257C12.0555 47.813 14.5768 46.8943 7.04508 45.996C9.42542 46.3748 9.25813 45.7544 9.96911 45.8331C10.3917 45.8928 13.8702 46.7548 12.4047 45.3507C12.2146 45.1828 10.087 45.1869 10.7921 44.9278C15.8713 45.4274 10.9072 44.7439 10.9296 44.691C11.0583 44.3272 14.3052 44.531 18.5534 44.8293C22.3251 45.1222 26.141 45.6836 27.2947 45.7771C30.1681 46.01 32.7605 45.7046 33.3673 45.7819C33.4543 45.7935 33.5346 45.8049 33.6085 45.816C33.6675 45.8225 33.8407 45.866 33.8995 45.8741C35.5262 46.1674 33.9489 46.2246 34.355 46.4106C34.7772 46.5946 40.617 46.9588 40.8911 47.0556C41.9678 47.4047 40.7468 47.5932 40.8575 47.6346C42.1571 48.1079 49.885 49.3659 51.997 49.9874C52.0077 49.695 47.7108 48.7242 50.5117 48.8878C53.7881 49.0847 53.6326 50.3312 53.697 50.3998C65.2882 53.115 76.9328 56.9915 87.7779 61.2383C90.225 62.1803 92.6984 63.1245 95.2074 64.0983C95.3081 63.5188 90.413 61.8291 87.903 60.953C87.0113 60.639 86.3877 60.4194 86.3476 60.3773C86.1182 60.1396 86.8192 60.2936 88.0245 60.6758C91.6473 61.7966 100.455 65.245 101.79 66.0447C100.462 65.3243 99.1426 64.621 97.828 63.9292C100.546 64.0191 105.365 67.201 109.059 68.4031C110.256 68.7838 108.227 67.506 108.283 67.5072C109.719 67.7332 111.66 68.9058 109.904 68.6517C113.242 69.6424 112.558 69.8979 114.945 71.0785C115.069 71.1413 114.209 70.3013 116.197 71.0919C117.13 71.4373 121.911 73.9253 122.724 74.016C123.07 74.0348 121.387 71.4292 120.436 72.3897C115.508 69.1712 118.481 72.0384 116.469 70.9984C116.165 70.8588 117.207 70.5027 111.953 68.4546C113.492 67.7291 118.976 71.4083 120.054 71.8386C122.321 72.6 113.971 67.6984 111.96 67.9615C113.141 67.4168 111.407 67.5589 109.526 66.702C107.467 65.7723 108.498 65.9003 107.376 65.4269C104.318 64.1578 105.3 65.2914 103.055 63.7351C104.694 66.4118 98.7003 62.2655 96.9999 61.1373C100.143 62.2246 103.351 63.3601 106.612 64.5941C106.47 64.4282 106.328 64.2625 106.187 64.0974C107.029 64.4551 107.874 64.8194 108.722 65.1916C108.543 65.2209 108.365 65.2503 108.187 65.2799C112.867 66.5726 113.659 67.7625 114.01 67.9239C118.637 70.1239 124.085 72.9327 128.739 75.7766C129.424 76.223 129.376 75.2825 134.084 79.0294C135.511 80.1992 133.89 79.6811 135.397 80.689C135.452 80.7258 135.512 80.7649 135.576 80.8064C138.526 81.1231 137.784 82.0121 138.381 82.4414C140.11 83.685 141.356 84.1601 141.516 84.2715C143.64 85.7586 146.561 88.0302 148.747 89.6124C148.792 89.6386 147.956 88.437 149.278 89.6023C149.75 90.0039 152.854 94.8578 156.95 97.0938C156.073 96.2748 155.196 95.4519 154.307 94.617C155.362 95.6866 163.528 100.989 161.945 99.1612C160.987 98.0824 157.288 96.9828 157.752 95.774C160.233 98.2755 174.683 107.251 175.55 107.828C175.677 107.953 174.518 107.768 174.695 107.934C174.837 108.081 178.084 109.807 178.418 110.157C178.619 110.379 177.071 109.832 177.103 110.023C177.145 110.197 181.049 112.473 181.539 112.081C180.457 111.802 177.803 110.173 179.478 110.547C179.692 110.597 180.471 111.393 180.732 111.443C183.14 111.937 176.859 108.878 175.885 108.241C180.168 109.955 185.766 113.594 190.373 114.718C191.986 115.797 187.429 114.38 189.311 115.488C193.247 117.74 190.677 115.299 190.84 115.3C192.028 115.245 194.743 118.694 195.369 116.848C196.783 117.518 196.238 117.651 198.435 117.888C198.19 117.697 197.948 117.505 197.708 117.312C200.306 116.814 204.665 120.253 204.307 120.416C203.176 120.898 200.685 119.573 200.463 119.543C200.143 119.505 198.66 121.32 195.453 118.669C193.507 119.569 201.128 120.93 197.47 121.014C198.8 121.248 202.333 122.212 205.475 122.624C208.58 123.055 211.363 123.351 212.166 123.161C212.385 123.102 211.583 121.667 214.519 122.621C215.911 123.075 212.455 122.788 213.069 123.153C215.001 124.464 242.524 125.586 247.619 125.348C247.953 125.351 247.81 125.796 248.139 125.797C249.153 125.803 252.85 125.156 254.64 125.347C250.94 124.53 258.165 124.43 259.985 124.46C262.754 124.533 262.582 125.336 263.782 125.47C268.43 126.006 275.424 123.617 279.033 125.104C278.729 123.323 285.17 125.424 288.016 125.066C290.243 124.807 293.27 123.128 290.236 122.814C294.015 122.375 297.894 121.369 301.291 120.57C301.855 120.437 301.168 121.138 302.128 120.893C302.214 120.866 302.243 120.31 303.056 120.081C309.725 118.119 306.657 119.964 307.994 120.011C308.736 120.028 309.277 119.991 309.665 119.926C305.794 121.026 301.176 122.158 299.93 122.401C301.219 123.417 308.782 120.334 311.036 120.018C311.116 120.009 310.998 120.727 311.077 120.711C311.079 120.711 311.081 120.71 311.082 120.71C311.95 120.568 317.152 118.815 315.853 118.354C315.513 118.232 313.124 118.953 310.24 119.764C310.992 119.416 310.237 118.842 310.369 118.775C311.956 117.998 316.149 117.547 317.584 117.181C317.912 117.1 317.754 116.645 317.806 116.627C319.103 116.323 318.986 117.812 319.866 116.02C322.674 116.901 315.633 117.674 316.38 118.57C317.119 119.478 331.465 113.643 330.672 112.22C330.775 112.334 331.033 112.417 331.496 112.432C331.828 112.442 332.439 112.253 333.124 111.966C334.547 111.377 336.46 110.258 336.821 109.872C336.911 109.768 336.272 108.592 336.405 108.508C336.724 108.325 342.021 106.64 343.491 104.851C342.395 105.263 341.358 105.636 340.279 106.022C346.194 102.657 345.105 102.765 342.918 103.584C342.816 103.639 342.694 103.65 342.597 103.7C340.917 104.328 338.861 105.145 338.78 105.067C338.452 104.86 348.399 98.757 347.095 100.969C346.885 101.306 341.944 103.559 344.685 102.988C345.155 102.9 348.087 100.857 348.287 100.847C349.686 100.791 343.476 105.477 344.742 105.797C345.895 104.108 348.227 103.273 349.967 101.955C350.769 101.35 350.642 100.629 350.741 100.554C352.216 99.4471 351.697 100.6 352.211 100.266C352.473 100.096 354.841 96.8416 355.315 99.0193C364.851 91.2285 357.315 95.9928 351.139 99.9135C352.704 98.0682 356.807 95.9486 358.486 94.6788C359.081 94.2275 358.341 93.8614 359.336 93.0662C361.367 91.4508 372.442 85.3339 375.391 83.6866C373.805 84.997 374.713 85.3389 376.014 84.4475C377.32 83.5522 375.655 83.3812 375.856 83.1204C376.072 82.8428 382.633 79.2576 383.625 78.4782C379.047 81.8191 380.534 81.795 384.624 79.3138C384.155 79.8746 383.701 80.4263 383.223 80.9929C385.414 79.2323 391.06 77.1121 392.275 75.9473C392.464 75.7628 391.338 75.6854 391.445 75.5818C392.537 74.5708 397.016 72.6075 397.113 72.2883C397.181 72.0256 395.11 72.6447 395.634 72.0042C395.742 71.87 397.926 71.5792 399.504 70.3657C400.094 69.9139 399.396 69.6045 399.536 69.477C400.712 68.414 400.462 69.7941 402.813 68.1837C404.52 67.0148 405.352 65.3128 408.007 64.1472C399.184 67.8473 406.324 64.2307 409.545 61.8898C410.063 61.5157 409.033 60.7828 412.607 59.3607C406.602 65.2331 415.123 59.1542 417.03 58.122C417.137 58.0696 417.535 58.7128 418.451 58.2104C418.528 58.1665 418.17 57.7806 419 57.2691C426.941 52.4288 422.025 55.8274 423.805 55.4175C424.55 55.2491 428.203 52.4421 429.265 51.8613C429.511 51.7281 429.644 52.2618 430.591 51.7353C432.263 50.8047 433.552 49.49 434.649 48.8703C434.781 48.8002 435.162 49.5487 437.183 48.2051C437.753 47.8279 438.3 47.2129 437.331 47.4339C434.116 48.1686 429.401 52.2083 425.872 53.2278C422.645 54.147 431.721 49.1755 432.222 48.9368C432.397 48.8422 430.789 50.1591 432.655 49.2737C434.247 48.5172 436.437 45.7425 438.949 44.8345C439.138 44.7643 441.561 44.9377 441.506 45.047C441.447 45.1324 438.694 46.8162 439.268 46.9298C439.341 46.9378 441.157 46.0164 441.515 46.1376C441.951 46.2828 444.135 48.7608 444.559 48.6418C445.646 48.3273 444.677 47.9924 445.349 47.7195C446.797 47.1176 452.024 45.6724 451.73 44.5939C450.895 44.9138 450.062 45.2356 449.233 45.5591C453.659 43.3322 451.56 43.8115 452.107 43.3216C452.703 42.7954 452.912 43.7713 454.463 43.1546C454.789 43.0104 461.102 39.9458 460.826 39.6341C457.548 41.7999 458.375 40.1185 458.203 40.1693C457.547 40.3772 457.028 41.3536 456.193 41.719C450.334 44.2951 455.755 40.6253 454.27 41.0067C453.758 41.1405 453.056 42.1016 452.845 42.1676C452.156 42.3829 451.831 41.7012 451.419 41.9613C450.462 42.5673 452.096 42.9806 452.039 43.0693C451.408 44.0976 447.53 45.0251 449.236 42.9255C447.735 43.1765 448.184 44.5281 446.902 44.5195C444.355 44.5118 447.574 43.2695 448.345 42.699C451.111 40.6446 452.228 40.708 456.513 38.5582C458.063 37.7853 459.646 36.3335 460.371 35.9754C460.828 35.7402 466.138 36.0696 464.827 32.5573C466.685 32.1638 470.33 33.3375 472.051 32.5272C473.608 31.7929 472.617 30.7589 472.747 30.6513C472.946 30.4837 474.93 29.8143 475.526 29.3832C476.223 28.875 475.652 28.5504 476.808 27.8847C479.694 26.235 480.094 27.5483 480.438 27.5118C481.604 27.3939 482.244 27.2118 482.582 26.9979C483.404 26.4767 482.421 25.7623 482.962 25.4486C483.677 25.001 494.473 22.0368 496.587 20.8778C495.741 21.4397 494.921 21.997 494.104 22.5563C495.966 22.8303 497.313 20.9389 497.803 22.3813C497.392 19.9263 501.267 20.4175 502.258 20.0489C502.657 19.8979 502.502 19.5069 503.006 19.3329C504.981 18.6409 509.497 17.6612 510.547 17.1474C514.973 14.9226 502.61 16.9016 501.625 17.1619C503.513 16.5626 514.058 12.9621 508.803 13.2391C507.984 13.2837 506.922 14.741 506.524 14.9039C503.743 16.0247 505.714 14.4103 505.463 14.3865C505.038 14.3535 503.417 15.8372 502.883 15.883C502.703 15.9013 503.531 14.7084 500.754 15.5458C501.876 14.2674 509.815 12.6594 510.8 12.1941C511.155 12.0282 508.329 10.8586 515.546 10.764C515.423 10.6187 515.301 10.4736 515.178 10.3285C516.99 9.80867 518.732 9.32146 520.581 8.82199C522.562 8.28721 524.453 7.79692 526.47 7.30029C526.141 7.78033 524.168 9.05109 526.844 8.26355C528.38 7.81725 527.029 7.21797 527.165 7.16098C528.377 6.33803 553.664 2.2682 558.745 2.09005C560.477 1.88232 565.133 0.863316 565.529 0.837818C567.683 0.601532 575.551 0.801384 577.114 0.734531C578.081 0.669613 577.119 -0.0311165 577.988 0.00108337C578.794 0.0338287 577.997 0.71146 578.237 0.740189C580.225 0.829838 595.59 0.658398 599.306 1.88354C596.997 1.33399 585.84 1.95447 586.135 2.51203C586.181 2.57523 588.861 3.19903 589.424 2.9865C590.331 3.60388 593.501 2.0612 595.223 2.56431C595.425 2.62382 594.6 3.51416 597.693 3.98358C598.739 4.14388 601.589 3.69534 604.304 4.92074C608.398 4.64269 629.83 11.0784 631.653 11.22C631.695 11.1754 628.692 9.80152 630.882 10.1392C633.802 10.632 630.936 11.3997 633.999 12.7199C634.019 12.7296 634.04 12.7393 634.061 12.7491C634.453 12.9154 641.577 15.6798 641.825 15.6904C644.222 15.703 638.177 12.7088 638.287 12.6421C638.59 12.4577 643.744 14.4979 643.939 14.6601C644.118 14.8051 639.588 14.1893 644.74 15.9073C644.209 15.5179 643.677 15.1276 643.143 14.7366C645.587 15.4889 645.558 16.3996 646.111 16.6955C647.842 17.6197 650.092 17.2743 652.477 20.0173C653.102 20.7379 651.735 20.6135 651.809 20.7142C652.55 21.63 654.096 20.7553 655.136 22.3912C655.209 22.5099 651.907 21.7251 657.354 24.1716C657.012 23.9068 656.668 23.6414 656.324 23.3754C657.147 23.4909 662.704 25.9095 663.426 26.3132C665.531 27.4663 663.436 27.241 665.634 28.1778C664.539 26.6156 671.133 29.6574 670.516 30.2224C671.706 29.7184 677.055 33.1754 679.625 34.49C681.255 35.3165 684.707 36.6585 685.192 36.9674C685.812 37.3472 685.439 37.8063 686.535 38.5109C686.837 38.7003 690.353 40.0676 693.115 42.151C693.653 42.5574 694.585 44.0367 693.435 43.702C691.491 43.1501 688.262 40.6928 688.124 41.25C687.998 41.8541 692.746 43.8197 694.001 44.5415C699.674 47.7841 696.148 46.64 696.241 46.8923C696.475 47.4872 699.67 49.0315 699.765 49.125C700.248 49.5427 697.939 48.7725 697.806 48.9984C697.664 49.3051 700.526 51.3057 699.8 51.0805C698.743 50.7625 696.077 48.9707 695.903 48.9107C693.465 48.145 696.383 50.37 697.172 51.1246C697.408 51.3561 696.26 51.0559 696.474 51.1891C699.731 53.1948 697.518 50.4788 699.764 51.6184C701.739 52.6258 699.005 51.9084 699.059 51.9696C699.172 52.0502 701.528 53.148 701.875 53.485C701.998 53.6133 695.477 51.7873 695.561 52.3405C697.632 53.1094 699.633 53.8675 701.685 54.6537C701.661 55.2299 698.922 53.6241 698.586 53.5414C697.937 53.3927 699.55 54.3834 699.414 54.5149C699.348 54.6032 697.215 54.161 698.968 55.0595C699.556 55.3585 700.974 55.5373 703.082 56.8175C695.152 54.1093 700.396 56.6031 700.605 56.8725C700.763 57.1343 696.872 56.1182 701.443 57.8022C701.297 58.86 701.26 58.083 699.889 57.7592C698.205 57.3698 701.788 59.0916 696.076 56.6644C696.196 57.2699 700.947 58.9727 701.145 59.0896C701.345 59.1996 700.246 59.0532 700.584 59.264C704.672 61.7237 701.8 60.2388 702.869 61.2388C702.994 61.3425 707.055 62.948 703.88 61.9552C698.036 60.1471 695.852 58.6025 694.377 59.7878C698.451 61.8211 703.989 62.6037 705.286 63.0384C707.272 63.6673 705.142 63.2612 705.355 63.4149C705.429 63.4659 707.167 64.0012 707.185 64.0289C708.06 65.3854 699.492 61.5894 696.627 60.8293C697.337 61.2452 697.986 61.6351 698.717 62.0472C697.655 61.7171 696.694 61.421 695.63 61.0902C700.404 62.9734 695.757 61.2542 694.246 61.8196C693.906 61.948 697.21 62.543 693.372 62.0316C696.01 62.9621 695.134 62.9007 697.636 63.3617C697.479 63.6966 691.799 62.5093 689.535 62.0944C697.131 64.6964 693.184 62.1185 699.592 64.71C700.98 64.6435 697.784 63.8113 698.059 63.8108C699.081 63.8342 701.114 64.8393 704.03 64.7741C704.507 64.7685 702.829 63.7879 705.517 64.6338C705.771 64.7168 707.425 65.598 707.363 65.6027C707.082 65.8184 705.364 65.2008 705.286 65.3053C705.159 65.3884 707.119 65.8889 707.092 65.9118C707.053 66.2731 705.462 65.5851 705.661 65.7596C706.103 66.169 712.75 68.7557 703.844 66.0888C711.374 67.7439 704.942 65.9847 701.991 65.3057C701.224 65.1299 701.008 65.3114 699.916 65.0892C698.546 64.8173 696.98 64.2563 696.297 64.1117C695.531 63.9541 699.59 65.6737 693.505 63.8182C696.436 65.229 702.194 66.1724 705.149 67.3326C711.245 69.6218 700.488 67.0668 699.372 66.8607C699.067 66.8051 699.965 67.3577 699.76 67.3251C699.399 67.2698 693.424 65.6049 692.769 65.7345C692.089 65.8575 694.968 66.2702 695.071 66.5936C695.105 66.7887 687.75 65.3868 691.634 66.4627C694.313 67.1811 699.59 67.6864 700.177 68.6258C696.161 67.7643 692.091 66.8735 688.089 66.011C690.193 66.8623 692.243 67.6667 694.361 68.4616C689.796 67.5678 686.043 66.309 681.616 65.8497C691.51 69.1805 677.991 66.0263 677.789 66.1417C677.695 66.2201 681.441 67.9824 682.05 68.2677C678.316 67.879 667.336 65.9676 673.345 68.3991C672.271 67.9084 669.236 68.071 669.255 68.1344C669.426 68.7477 675.677 69.4806 674.53 69.7807C673.19 70.1334 671.794 69.0981 669.997 68.8424C660.733 67.5277 662.251 71.0196 653.217 69.0819C653.364 69.2256 653.511 69.3688 653.657 69.5114C643.73 67.7659 633.872 65.9241 624.098 64.032C622.871 64.1784 621.126 64.2039 619.118 64.1369C615.725 64.3747 610.892 64.5212 608.062 64.4028C607.277 64.3537 603.331 63.6941 602.999 63.5853C602.451 63.3559 605.612 63.2339 604.237 62.8112C603.946 62.6858 596.929 62.6081 597.363 63.373C598.18 63.4167 600.646 62.944 601.056 63.1159C603.925 64.0495 581.876 64.6076 580.659 65.5681C581.174 65.7618 581.665 65.9575 582.188 66.1521C580.776 66.201 579.34 66.262 577.901 66.3339ZM658.688 22.1376C659.829 22.0023 662.016 23.5496 663.475 24.0659C665.458 24.7499 669.385 24.2696 667.309 25.6904C664.44 24.4699 661.586 23.2922 658.688 22.1376ZM611.913 4.05995C614.344 4.9395 612.202 6.13044 610.334 5.12052C610.121 5.0104 608.693 2.91094 611.913 4.05995ZM637.071 12.2114C636.985 12.1956 635.316 11.4592 635.262 11.4128C633.922 10.2084 638.951 12.4441 637.071 12.2114ZM519.386 10.6475C521.787 9.95834 519.608 8.81973 518.311 9.84973C518.23 9.91468 519.233 10.6903 519.386 10.6475ZM521.111 10.2554C523.329 11.2034 526.348 7.44861 523.454 8.44067C523.173 8.53583 521.007 10.2053 521.111 10.2554ZM620.589 6.62905C620.219 7.03122 617.742 6.18456 616.673 5.83158C616.779 5.38953 619.489 6.39905 620.589 6.62905ZM558.389 2.82172C558.35 3.22531 566.593 2.56191 567.12 2.00939C565.819 2.28661 558.442 2.3999 558.389 2.82172ZM537.715 6.31745C537.938 6.34969 540.684 5.74836 540.529 5.3859C539.088 5.11273 536.725 6.14923 537.715 6.31745ZM498.191 16.4101C498.076 16.5528 500.78 18.2758 495.662 18.2155C494.907 18.2095 497.142 16.8048 496.873 16.7997C496.314 16.7974 495.888 16.8506 495.561 16.9417C497.666 16.0405 499.861 15.2536 500.119 15.3306C501.338 15.6924 498.245 16.3472 498.191 16.4101ZM478.81 25.0578C478.507 25.5977 475.645 26.4558 474.956 26.5483C474.836 26.5618 474.935 25.3871 473.703 25.9517C472.718 26.4079 474.611 26.8277 472.59 27.4367C470.551 28.0576 472.911 26.2919 472.72 26.3092C472.457 26.3311 469.584 28.0033 469.448 27.3822C469.343 26.9177 472.736 25.9023 473.521 25.4948C474.52 24.9691 472.977 24.7331 474.782 24.2136C475.916 23.8892 475.791 25.403 476.047 25.3789C476.254 25.3533 479.83 23.1691 478.802 25.056C478.805 25.0566 478.807 25.0572 478.81 25.0578ZM494.993 17.1905C495.142 17.093 495.327 17.0071 495.561 16.9417C495.37 17.0233 495.181 17.1077 494.993 17.1905ZM653.059 20.0301C652.164 19.2711 655.218 20.2229 656.215 21.1384C656.137 21.4621 653.197 20.1458 653.059 20.0301ZM493.355 18.9058C490.099 19.6347 492.246 18.406 494.993 17.1905C494.161 17.7345 494.446 18.6651 493.355 18.9058ZM589.424 2.9865C589.271 2.88256 589.173 2.72812 589.159 2.48204C589.563 2.7719 589.598 2.91801 589.424 2.9865ZM581.039 2.27468C578.226 3.00395 583.975 3.03654 583.956 2.5134C583.913 2.30524 581.157 2.24077 581.039 2.27468ZM516.335 11.3613C516.59 11.3763 513.5 14.6844 518.423 11.5175C515.48 11.9919 518.444 10.9452 518.346 10.754C518.093 10.1839 513.346 12.0495 512.235 12.0953C511.679 13.3734 515.471 11.3166 516.328 11.363C516.331 11.3624 516.333 11.3619 516.335 11.3613ZM443.621 39.6139C443.945 38.7546 445.932 38.0177 447.242 37.4373C446.903 38.2954 444.912 39.0247 443.621 39.6139ZM150.718 90.5203C158.189 95.64 157.964 97.62 151.863 92.1887C151.749 92.085 150.165 90.3185 150.718 90.5203ZM208.86 118.991C209.466 119.792 207.552 119.828 205.912 119.491C205.697 119.442 205.49 119.381 205.3 119.31C205.004 119.201 204.053 118.227 205.327 118.181C205.244 118.609 205.52 118.961 205.958 119.159C206.791 119.467 208.024 119.487 208.86 118.991ZM491.801 20.1878C491.131 21.205 488.083 21.6834 486.599 22.0884C487.273 21.192 490.414 20.4033 491.801 20.1878ZM173.055 107.326C173.737 107.811 174.603 107.517 174.512 107.397C174.111 106.856 172.462 106.505 173.055 107.326ZM501.019 17.3228C501.284 17.7074 497.655 19.3077 497.047 18.3402C497.886 18.1507 500.846 17.0782 501.019 17.3228ZM446.179 38.7486C446.822 38.6896 444.153 40.4243 443.194 40.6472C443.063 40.1813 445.75 38.7876 446.179 38.7486ZM184.59 113.199C185.189 113.542 186.751 114.229 187.047 114.033C187.419 113.801 185.083 112.945 184.59 113.199ZM37.8189 44.6178C37.7206 44.5203 41.2803 44.5283 42.7857 44.9524C45.6136 45.7448 37.9157 44.6694 37.8189 44.6178ZM166.035 103.214C164.375 101.302 166.273 103.354 166.592 102.748C165.235 101.815 161.811 99.3612 163.772 101.546C164.157 101.973 165.418 102.743 166.035 103.214ZM167.783 104.662C168.135 104.634 170.01 105.024 168.715 104.238C168.115 103.875 166.706 103.862 167.783 104.662ZM59.1899 48.7767C61.5751 49.7653 50.1206 46.8246 49.8033 46.7582C49.6368 46.6849 49.53 46.6265 49.4717 46.5838C49.0241 46.6213 46.83 46.2022 46.6648 45.8448C47.3004 45.993 49.1089 46.3289 49.2979 46.4055C49.3828 46.4386 49.4439 46.4658 49.4871 46.4898C50.3306 46.3341 58.7391 48.5389 59.1899 48.7767ZM77.9612 54.7927C74.9195 54.4637 74.8205 53.2562 75.0778 53.2998C78.3212 53.8785 76.0099 53.9987 76.0925 54.0655C76.2793 54.1939 78.5966 54.567 77.9524 54.7898C77.9553 54.7908 77.9582 54.7918 77.9612 54.7927ZM63.0525 49.9567C62.9265 49.9338 60.5261 49.2715 60.4304 49.2331C58.558 48.3744 65.3719 50.2492 63.0525 49.9567ZM464.529 32.3936C462.79 32.8976 464.104 31.4682 465.322 31.269C465.424 31.2573 466.065 31.9523 464.529 32.3936ZM168.876 105.201C169.109 105.552 176.305 110.405 176.315 109.348C175.645 109.191 167.476 103.539 168.876 105.201ZM228.39 121.703C226.727 121.601 228.626 120.796 229.484 121.181C229.802 121.325 228.81 121.728 228.39 121.703ZM506.463 16.756C508.151 15.6026 508.356 17.7419 506.539 17.5239C506.468 17.5156 506.396 16.8013 506.463 16.756ZM215.111 120.262C220.95 120.169 219.254 122.928 211.84 121.316C212.092 121.213 212.344 121.11 212.596 121.006C203.967 119.793 212.023 120.768 214.175 120.784C214.985 120.791 214.37 120.266 215.106 120.258C215.108 120.26 215.109 120.261 215.111 120.262ZM237.121 122.164C242.492 124.446 232.052 122.713 228.996 122.779C232.016 122.098 235.803 122.39 230.701 121.275C238.29 121.456 235.064 122.123 235.364 122.212C235.716 122.304 236.893 122.067 237.121 122.164ZM222.547 121.408C222.229 121.447 219.841 120.863 218.969 120.864C220.264 120.272 224.713 121.148 222.547 121.408ZM96.8143 61.3671C96.4586 61.6448 95.8431 61.7111 94.0083 60.8666C94.6678 60.9099 95.9472 61.2149 96.8143 61.3671ZM659.693 25.4898C660.952 26.1023 663.461 27.4588 662.83 26.6064C662.756 26.5221 659.784 25.2067 659.693 25.4898ZM190.035 116.599C190.228 116.796 195.738 118.536 194.02 117.419C193.514 117.148 188.484 115.469 190.035 116.599ZM160.842 100.063C161.326 100.421 163.332 101.735 163.442 101.672C163.811 101.465 161.285 99.9374 160.842 100.063ZM665.993 28.9378C666.151 29.0607 670.059 30.8036 669.704 30.3916C669.01 29.5885 665.478 28.5034 665.993 28.9378ZM459.159 36.467C458.826 36.6418 458.074 36.1617 457.952 36.2071C457.671 36.3057 451.514 39.4316 453.516 37.4671C453.837 37.1128 463.066 33.4182 464.306 33.0306C465.161 33.7744 460.879 34.5495 459.976 35.0679C459.818 35.1594 460.049 35.9904 459.16 36.4618C459.159 36.4635 459.159 36.4652 459.159 36.467ZM86.8009 58.0375C86.4098 58.2499 78.8712 55.7549 79.0903 55.4167C81.6961 56.2676 84.2674 57.1481 86.8009 58.0375ZM90.4241 59.4601C91.3965 60.0116 89.99 59.5847 88.712 59.1077C88.1232 58.8868 87.5511 58.6543 87.2333 58.4988C87.274 58.3868 88.0439 58.6064 88.8179 58.8662C89.5637 59.1141 90.3204 59.4014 90.4241 59.4601ZM170.687 108.776C171.323 109.044 169.946 107.387 170.414 107.529C170.712 107.624 171.846 108.628 172.37 108.7C172.523 108.717 171.579 107.398 171.19 107.184C170.637 106.879 170.871 107.61 170.286 107.243C168.341 106.017 166.829 104.59 164.996 103.341C164.83 103.229 165.904 104.384 164.497 103.409C164.28 103.258 163.282 101.952 161.543 100.802C156.814 99.3197 155.013 96.0563 149.722 92.7248C149.83 92.9865 153.246 96.0683 153.444 96.2337C157.361 99.5434 164.449 104.745 168.567 107.38C169.626 108.068 169.308 107.457 169.771 107.74C170.136 107.961 169.346 108.208 170.687 108.776ZM658.904 25.526C659.323 26.4259 661.581 26.9949 662.945 27.6586C662.636 26.8878 660.198 26.2639 658.904 25.526ZM123.525 74.3007C124.274 74.6855 126.448 76.1421 126.723 76.1194C127.088 76.0704 123.878 74.0569 123.525 74.3007ZM424.592 53.3095C424.537 53.3663 422.887 54.2168 422.813 54.2263C421.023 54.4001 425.979 51.8487 424.592 53.3095ZM386.686 75.5045C385.57 76.3307 384.544 77.2957 383.792 76.941C384.579 76.5707 386.568 75.0006 386.686 75.5045ZM338.394 105.524C339.018 106.197 335.636 107.376 335.055 107.58C335.076 107.138 337.947 105.052 338.394 105.524ZM96.4156 63.0098C94.0743 62.0777 94.2496 63.0061 92.9153 62.1067C92.7001 61.9586 92.5801 60.1326 94.9033 61.6798C95.3234 61.9619 93.3425 61.6274 96.4156 63.0098ZM210.619 121.182C209.963 121.614 208.074 121.288 206.81 121.123C207.137 120.794 209.724 121.137 210.619 121.182ZM672.861 32.7085C673.748 33.7657 678.81 35.7285 677.704 34.7904C677.558 34.6576 673.547 33.0528 672.861 32.7085ZM486.371 25.1128C484.405 26.555 489.006 25.1516 490.268 24.0003C489.595 24.2753 486.511 25.0111 486.371 25.1128ZM349.75 99.4553C349.672 99.5358 347.754 100.622 347.66 100.639C345.777 100.978 351.196 97.9 349.75 99.4553ZM399.421 68.9623C398.966 69.8888 393.867 72.4769 392.514 72.6618C393.114 71.3188 399.985 67.7927 399.421 68.9623ZM106.377 66.7423C104.634 66.0281 103.041 65.2704 101.526 64.5155C101.965 64.3808 106.28 66.4598 106.377 66.7423ZM342.918 103.584C342.816 103.639 342.694 103.65 342.597 103.7C342.705 103.659 342.813 103.622 342.918 103.584ZM143.685 89.004C144.813 90.0167 144.931 89.3819 144.868 89.3116C144.079 88.4785 142.402 87.8569 143.685 89.004ZM660.188 27.1484C660.475 27.9081 662.962 28.531 664.228 29.2606C663.991 28.6638 661.275 27.5665 660.188 27.1484ZM242.927 123.682C244.652 124.448 237.424 125.062 235.93 124.523C235.858 124.099 242.679 123.594 242.927 123.682ZM493.659 23.8776C494.007 24.4226 496.955 22.6484 496.191 22.5872C495.686 22.5507 493.45 23.5327 493.659 23.8776ZM232.332 124.058C231.64 124.178 230.11 123.595 230.691 123.322C231.435 122.972 232.51 124.022 232.332 124.058ZM178.648 113.848C178.851 114.051 182.219 115.21 181.148 114.159C180.411 113.434 179.944 113.929 179.731 113.822C179.496 113.726 174.869 110.312 178.648 113.848ZM282.263 122.781C280.849 123.141 279.101 123.063 277.596 123.206C278.196 122.826 281.624 122.405 282.263 122.781ZM481.394 28.3737C481.5 28.3952 482.112 28.2241 482.931 27.9653C485.767 27.0625 490.981 25.196 486.194 26.2353C485.995 26.2793 484.122 26.8217 482.715 27.3675C481.57 27.8105 480.75 28.2449 481.394 28.3737ZM96.4156 63.0098C96.7107 63.1276 97.0484 63.276 97.4337 63.4628C97.0426 63.2965 96.7071 63.1413 96.4156 63.0098ZM124.011 75.6679C123.304 75.5797 126.078 77.2731 126.984 77.6642C127.435 77.5211 124.11 75.664 124.011 75.6679ZM277.511 123.765C276.652 124.064 275.059 123.948 273.977 124.049C274.148 123.676 277.115 123.429 277.511 123.765ZM333.596 110.355C333.25 110.466 332.899 110.598 332.568 110.739C331.467 111.211 330.504 111.81 330.627 112.158C330.568 112.102 330.469 112.06 330.326 112.038C330.182 112.019 328.758 112.894 328.03 113.021C325.876 113.398 329.621 111.721 332.453 110.486C335.284 109.245 337.585 108.551 332.947 111.576C332.784 111.681 332.612 111.79 332.429 111.903C332.569 111.72 332.708 111.537 332.846 111.353C333.094 111.024 333.343 110.691 333.596 110.355ZM406.664 66.0165C407.937 65.981 410.209 63.7503 409.398 63.9422C408.831 64.077 405.398 66.0407 406.664 66.0165ZM371.221 88.4444C371.539 88.3697 373.787 86.4354 373.688 86.1194C372.074 86.7491 369.743 88.7917 371.221 88.4444ZM414.39 62.3527C415.038 62.0885 415.323 60.7708 415.231 60.7732C414.433 60.8067 413.104 62.4486 414.39 62.3527ZM100.693 66.3695C101.582 66.9044 104.85 67.8006 105.701 67.741C105.795 67.863 106.093 68.0956 106.666 68.4714C106.664 68.4706 106.662 68.4698 106.66 68.469C107.413 68.4498 132.694 81.9471 116.061 72.3306C115.538 72.0462 116.095 72.7131 113.951 71.6031C113.81 71.5301 113.876 71.2353 113.438 71.0117C112.428 70.4678 107.072 67.8834 105.897 67.6608C105.91 67.6089 105.862 67.5335 105.733 67.4287C104.568 66.4822 99.9908 65.9474 100.693 66.3695ZM366.404 91.6115C366.985 91.4489 368.448 90.3224 368.395 89.8628C367.514 90.183 365.047 91.9921 366.404 91.6115ZM482.336 29.9375C482.666 29.9107 483.088 29.7831 483.522 29.6068C484.835 29.0729 486.236 28.0982 485.454 28.0924C485.158 28.0899 484.143 28.5058 483.285 28.948C482.284 29.4628 481.51 30.0062 482.336 29.9375ZM382.07 81.3915C375.951 84.6785 380.689 82.3124 380.113 83.4049C380.76 82.7367 381.412 82.0655 382.07 81.3915ZM70.1893 54.1452C71.2749 54.5683 69.7465 54.7561 68.6471 54.0517C68.3007 53.8294 69.5809 53.9105 70.1893 54.1452ZM18.8427 44.3129C19.099 44.4539 18.931 44.5139 18.5879 44.5229C17.6443 44.5437 15.5869 44.2351 16.9179 44.077C16.9823 44.0716 18.1047 44.2051 18.6155 44.2774C18.7434 44.2953 18.8287 44.3085 18.8427 44.3129ZM54.8548 50.3266C55.7225 50.1613 56.234 50.232 58.3482 50.8657C55.1483 50.1659 57.9882 51.2098 54.8548 50.3266ZM330.672 112.22C330.651 112.198 330.636 112.183 330.627 112.158C330.647 112.177 330.661 112.198 330.672 112.22ZM420.149 58.8624C421.234 58.9815 423.42 57.7178 422.458 57.5193C422.364 57.5019 420.243 58.2709 420.149 58.8624ZM105.701 67.741C105.618 67.633 105.694 67.6179 105.897 67.6608C105.884 67.7097 105.816 67.7321 105.701 67.741ZM408.733 66.0111C408.583 65.5498 405.203 67.3356 405.106 67.4606C403.645 69.2803 407.394 66.8265 408.733 66.0111ZM507.03 22.4129C507.209 22.3064 505.607 21.4823 504.978 22.1855C504.495 22.7293 506.365 22.8108 507.03 22.4129ZM47.5352 48.8176C46.3407 48.5623 44.6664 48.2235 44.4277 47.9C45.2172 48.096 47.6073 48.6232 47.5352 48.8176ZM20.715 44.7805C22.2205 44.6016 25.5743 44.9193 27.6535 45.218C27.6441 45.5949 22.1197 44.7718 20.715 44.7805ZM97.7422 64.9839C97.8234 65.0353 100.56 66.2943 100.322 65.825C99.9681 65.1299 97.0288 64.5014 97.7422 64.9839ZM501.069 23.5513C499.893 24.3666 503.255 24.6655 504.401 23.2677C504.968 22.5527 501.26 23.4119 501.069 23.5513ZM427.438 55.8017C428.86 54.634 424.638 56.2141 424.4 57.0695C425.146 56.7169 426.932 56.2151 427.438 55.8017ZM376.142 87.1978C381.662 85.7937 377.47 84.6265 376.799 85.3894C376.704 85.4979 376.008 87.2339 376.142 87.1978ZM684.513 40.8131C685.263 41.0089 682.818 39.2207 682.363 39.4082C682.089 39.5318 684.009 40.6819 684.513 40.8131ZM309.665 119.926C309.858 119.871 310.05 119.817 310.24 119.764C310.103 119.826 309.916 119.883 309.665 119.926ZM443.061 50.435C438.343 49.9075 439.596 51.5193 439.284 51.662C438.601 51.9775 436.735 52.1497 435.537 52.9014C436.837 51.8996 438.148 50.9002 439.473 49.9027C438.22 50.2902 427.94 54.6229 427.935 55.1313C427.92 55.8117 430.915 53.9956 431.028 53.9978C431.192 53.9949 432.436 55.2063 432.751 55.1115C433.255 54.9352 441.534 50.7074 443.061 50.435ZM385.673 80.8465C384.827 81.1514 384.283 80.7388 384.018 81.0862C383.928 81.205 384.225 81.7378 383.9 82.1283C384.503 81.6934 385.079 81.2748 385.673 80.8465ZM448.512 45.1813C449.864 45.3804 445.146 47.3342 444.96 47.3376C443.945 47.2541 447.406 45.0103 448.512 45.1813ZM410.638 65.5312C410.811 65.4777 414.282 63.741 414.041 63.3975C412.999 63.6213 408.491 66.1446 410.638 65.5312ZM383.42 82.4799C382.253 83.1302 379.837 83.9349 380.557 84.5619C380.559 84.5609 380.56 84.5599 380.562 84.5588C381.506 83.8702 382.458 83.1771 383.42 82.4799ZM497.157 26.9302C500.092 27.5735 498.31 26.1274 496.015 26.3679C495.581 27.2309 496.687 26.8236 497.157 26.9302ZM505.33 25.5287C506.099 25.5606 513.049 23.2144 511.766 22.756C511.284 22.5891 507.435 24.4734 507.237 24.4805C506.93 24.4872 507.971 23.2418 505.855 24.065C506.069 24.3151 505.068 25.5128 505.33 25.5287ZM499.49 27.1955C502.266 27.5193 502.164 25.3181 500.34 25.8906C499.625 26.1148 499.091 27.1487 499.49 27.1955ZM489.6 30.3295C490.505 30.2255 492.926 29.7008 494.288 28.4956C492.134 29.157 489.986 29.8358 487.867 30.5228C487.757 30.9878 488.795 30.4227 489.606 30.3275C489.604 30.3282 489.602 30.3289 489.6 30.3295ZM6.59982 45.7225C8.26239 46.2377 4.30405 45.6496 4.14878 45.5311C3.70189 45.2547 5.86223 45.5073 6.59982 45.7225ZM694.995 56.7695C695.461 57.0716 695.669 57.5676 696.813 57.7644C695.84 57.1012 694.758 56.3887 693.791 55.7037C692.725 56.0452 694.459 56.4296 694.995 56.7695ZM698.455 60.5475C698.29 60.5088 698.838 61.7351 697.024 60.4366C695.804 59.5322 703.39 61.6768 704.62 62.5182C703.078 62.204 699.887 60.8988 698.455 60.5475ZM710.583 68.2413C710.652 68.3305 707.635 67.6606 707.322 67.525C705.598 66.8 710.154 67.7888 710.583 68.2413ZM701.266 65.5742C702.556 66.1161 699.511 65.4036 698.657 65.0567C698.609 64.8544 701.088 65.4994 701.266 65.5742ZM23.589 60.0455C24.9536 60.9043 26.4749 59.8848 24.1771 59.719C24.0665 59.7111 23.5313 60.0055 23.589 60.0455ZM707.412 68.3106C706.072 67.8004 709.172 68.4814 710.096 68.7923C710.113 68.9536 707.591 68.3819 707.412 68.3106ZM24.3891 61.6391C26.2436 62.4473 25.8116 60.8845 25.5758 60.7791C24.6097 60.3491 21.1102 60.2882 20.4035 60.3161C25.5228 60.9953 23.5156 61.2749 24.3891 61.6391ZM33.3465 62.7061C34.8422 62.9464 32.0888 62.0143 30.4947 61.7909L30.6353 61.819C30.2832 61.7782 29.9955 61.7697 29.8218 61.8089C30.0267 61.8476 30.2965 61.9071 30.6057 61.9787L30.4608 61.9497C31.5209 62.2244 32.9347 62.6393 33.3465 62.7061ZM43.9941 66.1229C44.9348 66.4542 47.6807 67.4448 48.2213 67.353C47.1889 67.0697 44.4641 65.9898 43.9941 66.1229ZM45.9282 67.4919C47.3057 68.2802 47.9253 67.4238 46.1516 67.1863C46.0823 67.1771 45.8789 67.4568 45.9282 67.4919ZM53.9835 70.5357C54.8076 71.264 56.1829 70.6871 54.6651 70.1205C54.2098 69.9543 53.8966 70.4553 53.9835 70.5357ZM26.5366 63.6726C27.9176 64.1324 29.858 63.9042 26.8477 63.1828C27.9219 63.3134 29.0077 63.4507 30.0917 63.5902C26.1762 62.3696 26.3266 63.3124 25.2012 63.0355C23.6357 62.66 23.8727 61.9899 24.226 61.8301C23.1722 61.9609 19.7246 61.3776 16.7348 60.9972C15.829 60.8791 14.9318 60.7694 14.1491 60.6772C14.9233 60.8329 15.8079 61.0114 16.7113 61.2063C19.2329 61.7441 22.146 62.4805 24.1529 62.98C24.9286 63.1725 25.7263 63.1389 26.3945 63.3034C27.4668 63.57 26.4593 63.6457 26.5311 63.6715C26.5329 63.6719 26.5348 63.6722 26.5366 63.6726ZM64.4829 74.5574C67.0163 76.1421 65.6852 74.4348 64.0769 73.9842C64.0051 73.9702 64.4201 74.5182 64.4829 74.5574ZM710.793 71.5909C706.576 70.4209 709.77 70.5896 701.098 69.4383C704.785 69.7095 701.407 69.1096 702.168 69.0577C702.773 69.0219 704.795 69.6309 703.711 69.0353C705.197 69.772 711.953 71.1479 712.972 71.3052C712.968 71.3045 712.963 71.3039 712.959 71.3033C713.285 71.3818 712.184 71.9574 710.793 71.5909ZM43.3635 68.5543C44.0024 69.9763 44.8439 68.2878 46.4263 69.82C49.256 69.2183 39.6783 67.6852 38.8065 66.2757C48.908 69.3335 32.3705 63.2496 39.0458 66.9538C33.3433 64.6965 37.0808 66.6193 36.1286 66.5768C35.1235 66.5299 31.8566 65.3923 31.9293 65.8406C31.9311 65.841 31.933 65.8415 31.9348 65.842C33.9776 66.3566 36.0064 66.8881 38.0179 67.4379C36.262 65.99 40.3282 67.4215 41.5134 68.5827C42.1316 68.5731 42.7521 68.5647 43.3635 68.5543ZM32.1311 64.4907C32.3441 64.5583 36.7861 65.6186 36.5431 65.3699C35.9926 65.0824 29.6505 63.581 32.1311 64.4907ZM12.5662 60.9448C13.8416 61.1363 15.5442 61.4581 16.6719 61.5568C17.092 61.5931 17.4458 61.5992 17.689 61.5532C17.3826 61.5042 17.045 61.4453 16.6913 61.384C15.2232 61.1299 13.3602 60.8197 12.5662 60.9448ZM91.8108 88.2406C93.8341 88.8433 88.0928 85.9044 89.5971 87.1061C89.675 87.1639 91.7154 88.2093 91.8108 88.2406ZM47.9101 69.8147C49.799 70.826 49.1892 69.3946 47.6158 69.2019C47.5247 69.1908 47.8229 69.7681 47.9101 69.8147ZM707.3 71.0149C707.092 71.2321 701.252 69.82 700.215 69.5821C700.894 69.4813 707.567 70.8083 707.3 71.0149ZM9.33146 61.3097C11.8524 62.3776 14.9814 62.4792 16.5663 62.4956C17.2097 62.503 17.6572 62.4991 17.7889 62.5272C18.2493 62.6269 17.4769 62.8864 17.5815 62.9142C17.8208 62.9541 22.7328 63.8412 22.9833 63.8835C23.1586 63.8967 22.3472 63.1688 23.399 63.2019C22.3081 63.1494 19.295 62.5819 16.6036 62.1634C14.2136 61.7944 11.7985 61.4184 11.5545 61.4003C11.1322 61.3723 14.1818 62.4419 9.33771 61.3109C9.33563 61.3105 9.33355 61.3101 9.33146 61.3097ZM18.9373 62.8425C17.7354 62.4006 21.1913 62.9782 22.0187 63.2385C23.8487 63.7888 19.0887 62.8779 18.9373 62.8425ZM27.2535 64.7431C27.4841 64.8259 28.8215 65.1575 29.9722 65.3881L29.7354 65.3408C30.5446 65.5251 31.2409 65.6508 31.3906 65.5747C30.9644 65.3664 30.3977 65.1764 29.8049 65.0158L30.0329 65.0614C28.3715 64.6586 26.6002 64.5048 27.2535 64.7431ZM65.8222 77.4656C66.7119 77.8018 69.0018 79.095 69.245 78.9004C68.3592 78.5399 66.063 77.265 65.8222 77.4656ZM686.674 68.9836C688.216 69.5244 684.413 68.8761 683.373 68.5547C683.362 68.352 686.557 68.9419 686.674 68.9836ZM47.5715 72.2765C48.1071 72.4704 58.8244 76.2532 60.301 76.8112C58.9742 75.9528 48.3807 72.0128 47.8414 71.9992C47.6922 71.9781 47.5075 72.2416 47.5715 72.2765ZM23.8385 65.6055C22.7647 65.7118 22.1683 65.1795 22.0402 65.1483C20.7927 64.8296 18.1985 64.4189 18.8057 64.215C20.9784 64.7243 25.9817 65.3937 23.8385 65.6055ZM65.8974 79.5142C69.4828 80.9507 62.8497 77.5282 63.591 78.3311C63.6375 78.3763 65.5261 79.3624 65.8974 79.5142ZM46.3293 71.9699C45.4836 71.9337 34.5403 68.2753 32.7254 67.8367C34.4395 67.7734 35.6553 68.5299 37.7902 69.1387C38.3721 69.3039 38.2698 69.0407 38.3323 69.0589C39.3315 69.3478 38.5245 69.375 39.1342 69.5637C39.5403 69.6561 47.6087 71.9235 46.3293 71.9699ZM23.22 65.7075C22.6909 65.7366 18.2786 64.9082 16.3297 64.599C15.8224 64.513 15.4689 64.451 15.4113 64.4313C14.715 64.1995 15.3022 64.22 16.3569 64.3573C18.5311 64.6215 22.8538 65.5711 23.22 65.7075ZM47.1886 72.7875C45.8618 72.9992 40.5762 70.8135 44.3555 71.7173C44.7182 71.8047 46.1261 72.5708 47.1886 72.7875ZM65.2765 79.9733C65.4444 80.0614 69.0427 81.8738 69.1969 81.7019C68.7052 81.3535 63.388 78.8738 65.2765 79.9733ZM63.1103 79.8377C63.2015 79.8725 62.493 79.0896 64.1909 79.8999C64.332 79.9701 64.4242 80.5326 66.6354 81.3514C67.0828 81.5169 67.8814 81.5292 67.8403 81.4877C65.8803 79.7056 58.5912 78.1441 63.1103 79.8377ZM23.0418 65.9988C23.387 66.2474 22.4117 66.5399 21.6483 66.1203C21.3211 65.941 22.0057 65.7794 23.0418 65.9988ZM76.8373 85.7048C76.0955 85.4751 76.2866 85.6721 76.8995 86.0499C78.2545 86.8755 81.522 88.509 81.7836 88.5626C81.6792 88.2606 77.9313 86.2403 77.0148 85.7869C76.9213 85.7404 76.8596 85.7118 76.8373 85.7048ZM681.916 71.1034C681.918 71.1038 681.92 71.1041 681.922 71.1044C679.879 70.666 681.266 70.5707 681.174 70.5458C676.978 69.3189 677.858 70.2332 677.16 70.2091C675.65 70.1543 676.171 69.28 673.583 69.2229C677.858 69.3904 674.039 68.9564 674.049 68.6085C674.023 67.1885 679.28 70.2292 681.402 70.2895C681.694 70.3045 679.737 69.5266 680.499 69.5417C682.983 69.649 689.708 72.7498 681.916 71.1034ZM21.0231 66.0329C20.467 66.0917 17.8837 65.536 16.2669 65.1574C15.187 64.9008 14.4922 64.6908 15.2528 64.7201C15.3205 64.7229 15.7381 64.7765 16.3002 64.861C18.2311 65.1344 22.0698 65.9105 21.0231 66.0329ZM348.742 156.76C346.986 158.053 351.807 156.837 352.47 156.062C352.795 155.695 349.507 156.206 348.742 156.76ZM378.512 144.716C380.364 143.548 381.176 140.359 378.986 142.027C378.755 142.205 378.129 144.556 378.512 144.716ZM230.474 168.261C232.69 169.242 232.658 167.878 230.991 167.712C230.404 167.653 230.403 168.23 230.474 168.261ZM320.622 166.042C320.88 166.048 323.685 165.35 323.499 165.033C322.411 165.072 318.961 166.016 320.622 166.042ZM229.733 168.369C231.106 168.281 228.856 167.049 227.136 167.794C227.975 167.818 229.591 168.378 229.733 168.369ZM50.6798 75.9359C51.7358 75.9704 54.3846 77.0974 55.9268 77.6629C55.9522 78.141 51.8156 76.2618 50.6798 75.9359ZM369.741 148.436C371.334 146.927 367.079 148.647 367.801 149.132C367.881 149.139 369.686 148.494 369.741 148.436ZM154.323 144.801C155.87 145.416 151.877 142.024 152.691 143.395C152.73 143.458 154.233 144.769 154.323 144.801ZM137.1 131.093C137.884 131.948 141.755 135.14 140.475 133.605C140.267 133.369 137.365 130.893 137.1 131.093ZM676.923 70.5397C677.343 71.1376 674.004 70.4611 673.555 70.2889C673.362 70.2076 676.408 69.7631 676.923 70.5397ZM245.339 169.809C246.53 169.811 249.631 170.208 250.189 169.843C248.719 169.836 244.981 168.996 245.339 169.809ZM360.847 152.973C363.004 152.955 365.935 151.365 364.635 150.675C361.405 152.388 365.543 151.452 360.847 152.973ZM222.09 168.274C223.022 168.461 223.837 167.564 223.735 167.503C222.76 166.929 221.198 167.765 222.09 168.274ZM294.763 170.113C294.871 170.575 298.057 170.08 297.593 169.819C297.439 169.736 294.676 169.746 294.763 170.113ZM83.5199 91.2283C84.5725 92.067 80.9189 90.5088 79.9659 89.6802C79.6329 89.008 83.3955 91.127 83.5199 91.2283ZM195.54 163.716C195.246 164.307 201.06 165.038 198.862 164.125C198.309 163.909 195.634 163.538 195.54 163.716ZM148.067 141.698C151.09 143.232 140.21 134.13 142.658 137.077C142.797 137.296 147.764 141.574 148.067 141.698ZM131.003 126.907C131.365 127.325 130.027 128.518 128.806 126.476C128.644 126.209 129.962 126.777 129.852 126.532C129.771 126.381 126.373 122.935 126.198 122.826C125.995 122.702 125.839 123.321 125.623 123.208C125.377 123.075 123.555 120.721 122.457 119.701C120.394 117.783 119.891 117.945 119.722 117.79C119.238 117.347 118.618 116.339 117.651 115.458C116.051 114.004 114.183 112.379 112.311 110.79C108.772 107.734 104.68 104.733 102.26 102.431C105.637 105.088 108.979 107.1 112.153 109.636C111.675 109.627 112.043 109.974 112.617 110.391C113.882 111.313 116.145 112.627 113.349 111.139C114.919 112.056 129.617 125.423 130.999 126.903C131 126.904 131.002 126.905 131.003 126.907ZM386.333 141.069C385.627 142.466 391.402 138.902 391.342 137.781C390.535 138.096 386.415 140.914 386.333 141.069ZM357.973 158.359C357.473 158.712 357.419 159.964 355.271 160.835C354.772 161.036 354.165 161.218 353.423 161.36C353.42 161.362 353.416 161.363 353.413 161.364C352.233 161.589 353.309 160.719 353.053 160.671C352.955 160.656 349.283 161.261 352.016 160.02C356.011 158.149 353.135 160.761 354.946 160.118C355.013 160.094 355.087 160.065 355.168 160.03C355.44 159.933 359.217 157.271 358.851 157.213C358.83 157.199 357.679 157.931 357.437 157.95C356.535 158.023 356.694 157.393 356.574 157.42C356.431 157.458 355.48 158.004 354.273 158.633C352.209 159.715 349.386 160.989 348.602 160.78C348.386 160.728 351.217 159.431 354.01 158.054C356.536 156.816 359.003 155.544 359.203 155.519C359.489 155.474 360.012 156.794 360.335 156.796C360.526 156.796 364.327 154.367 364.882 154.223C365.05 154.182 365.183 154.161 365.283 154.149C364.497 154.056 368.035 152.298 368.155 152.79C368.188 152.996 365.732 154.117 365.606 154.139C365.56 154.146 365.517 154.145 365.479 154.149C366.3 154.385 357.673 158.485 359.874 158.305C357.487 159.878 359.762 157.079 357.973 158.359ZM345.19 164.406C345.425 164.169 345.66 163.93 345.893 163.691C341.179 165.75 335.361 166.773 329.83 168.148C328.427 168.493 330.276 168.959 328.367 169.169C326.836 169.335 325.005 168.898 325.761 168.541C325.945 168.457 329.072 168.281 330.566 167.839C334.969 166.53 333.617 166.065 333.873 165.983C334.144 165.89 337.103 165.613 338.62 165.116C342.442 163.856 344.018 162.868 349.476 161.463C346.649 163.077 348.711 163.504 345.19 164.406ZM172.054 157.628C171.711 157.913 168.796 156.106 167.7 155.583C168.03 155.326 170.896 157.163 172.054 157.628ZM566.493 66.7667C567.122 65.7794 561.64 66.5466 563.179 66.9994C563.528 67.0955 565.828 66.8753 566.493 66.7667ZM541.906 71.3635C541.228 71.7738 544.322 71.6851 544.162 71.029C544.114 70.816 541.998 71.308 541.906 71.3635ZM283.562 174.284C283.386 174.316 280.819 174.225 280.738 174.186C278.999 173.449 287.436 173.627 283.562 174.284ZM512.184 80.8935C514.568 79.4978 506.755 81.8362 509.356 81.7392C509.49 81.7293 512.074 80.9567 512.184 80.8935ZM501.575 84.714C501.836 84.6053 502.527 84.4092 503.209 84.2046C504.087 83.939 504.942 83.6629 504.913 83.5165C504.865 83.2891 503.919 83.4172 503.032 83.716C502.288 83.9659 501.597 84.342 501.575 84.714ZM221.199 170.806C221.471 171.639 217.234 170.436 215.738 170.304C215.476 169.48 219.678 170.7 221.199 170.806ZM248.639 174.357C230.087 173.364 234.253 172.086 249.762 174.04C249.766 174.564 249.817 174.403 248.639 174.357ZM225.086 171.824C225.799 171.408 227.839 171.821 229.243 172.031C228.957 172.355 226.103 171.868 225.086 171.824ZM573.049 67.0192C572.199 67.9289 568.011 67.6626 568.694 67.2218C568.856 67.1156 573.352 66.5351 573.049 67.0192ZM281.998 175.06C282.493 175.883 276.699 175.662 276.259 175.469C274.454 174.763 281.532 175.276 281.998 175.06ZM194.711 167.021C193.402 167.333 190.087 166.22 187.97 165.584C189.048 165.409 192.846 166.623 194.711 167.021ZM208.083 169.93C207.98 169.937 205.545 169.469 205.446 169.423C203.533 168.521 210.369 169.827 208.083 169.93ZM683.538 75.2369C683.458 75.2404 681.664 74.982 681.62 74.9634C680.157 74.3836 685.481 75.1595 683.538 75.2369Z" fill="#483262"/>
</g>
<defs>
<filter id="filter0_n_2851_59" x="0" y="0" width="713.017" height="175.649" filterUnits="userSpaceOnUse" color-interpolation-filters="sRGB">
<feFlood flood-opacity="0" result="BackgroundImageFix"/>
<feBlend mode="normal" in="SourceGraphic" in2="BackgroundImageFix" result="shape"/>
<feTurbulence type="fractalNoise" baseFrequency="0.33783784508705139 0.33783784508705139" stitchTiles="stitch" numOctaves="3" result="noise" seed="2140" />
<feColorMatrix in="noise" type="luminanceToAlpha" result="alphaNoise" />
<feComponentTransfer in="alphaNoise" result="coloredNoise1">
<feFuncA type="discrete" tableValues="1 1 1 1 1 1 1 1 1 1 1 1 1 1 1 1 1 1 1 1 1 1 1 1 1 1 1 1 1 1 1 1 1 1 1 1 1 1 1 1 1 1 1 1 1 1 1 1 1 1 1 0 0 0 0 0 0 0 0 0 0 0 0 0 0 0 0 0 0 0 0 0 0 0 0 0 0 0 0 0 0 0 0 0 0 0 0 0 0 0 0 0 0 0 0 0 0 0 0 0 "/>
</feComponentTransfer>
<feComposite operator="in" in2="shape" in="coloredNoise1" result="noise1Clipped" />
<feFlood flood-color="rgba(0, 0, 0, 0.25)" result="color1Flood" />
<feComposite operator="in" in2="noise1Clipped" in="color1Flood" result="color1" />
<feMerge result="effect1_noise_2851_59">
<feMergeNode in="shape" />
<feMergeNode in="color1" />
</feMerge>
</filter>
</defs>
</svg>
