<svg width="1166" height="328" viewBox="0 0 1166 328" fill="none" xmlns="http://www.w3.org/2000/svg">
<g filter="url(#filter0_n_2851_42)">
<path d="M104.918 300.702C105.668 300.212 108.667 298.733 109.939 297.989C108.901 299.349 102.35 302.377 104.918 300.702ZM188.231 165.857C187.513 166.809 186.708 167.835 186.012 168.767C188.628 166.61 191.898 163.444 194.442 161.469C194.85 161.154 194.269 162.554 195.216 161.752C196.191 160.926 195.437 160.388 196.717 159.125C198.371 157.584 205.121 152.18 211.101 148.119C211.874 147.601 212.842 146.979 213.965 146.334C234.578 135.717 246.536 135.277 260.072 133.755C246.046 136.093 260.383 135.013 264.169 134.464C264.977 134.38 264.851 132.403 278.461 132.233C284.301 132.228 282.522 133.5 285.249 133.803C286.546 133.954 288.796 133.892 293.308 133.498C282.456 131.831 293.152 131.794 301.593 131.918C303.054 131.907 314.738 132.534 319.862 132.778C321.613 132.846 324.352 132.101 326.674 132.234C328.277 132.327 329.457 132.905 331.825 133.059C342.894 133.792 353.713 134.884 364.7 136.511C359.869 137.564 364.519 137.939 367.697 138.166C368.976 138.259 370.019 138.325 370.163 138.377C371.315 138.83 369.538 138.762 367.63 138.661C365.334 138.544 362.862 138.374 365.415 138.933C366.129 139.022 366.843 139.111 367.557 139.202C373.511 139.961 379.384 140.831 385.277 141.823C379.899 140.567 392.792 141.193 394.963 142.454C394.424 140.023 424.385 150.91 429.029 151.826C430.03 151.991 424.009 149.105 438.447 153.878C440.014 154.412 439.238 154.816 440.079 155.016C440.586 155.136 444.119 154.193 446.986 156.262C448.012 157.048 440.278 155.705 456.565 160.728C450.858 156.493 479.12 167.82 484.026 170.732C483.105 170.055 482.128 169.36 481.218 168.696C486.093 171.5 487.214 171.285 488.371 171.821C492.927 173.95 498.948 177.439 503.178 179.401C508.179 181.733 508.685 180.619 514.205 183.94C513.007 183.029 511.727 182.084 510.497 181.172C514.444 183.209 518.353 185.301 522.207 187.432C512.462 184.097 524.085 188.495 524.837 188.894C525.985 189.451 524.024 189.13 526.004 190.115C526.217 190.217 526.194 189.495 529.138 191.037C529.331 191.139 529.513 191.236 529.685 191.327C534.596 193.943 533.483 194.142 535.71 195.335C535.918 195.438 535.457 194.58 539.421 196.527C552.072 202.596 539.191 196.914 538.649 196.686C537.967 196.419 541.221 200.838 530.964 194.364C534.383 196.529 534.301 197.63 534.687 197.868C535.029 198.09 541.314 201.218 541.656 201.338C544.874 202.591 542.487 200.591 543.14 200.784C543.679 200.969 550.746 205.489 553.383 204.4C556.149 207.825 550.595 205.077 544.464 202.313C543.406 202.238 549.851 205.863 550.188 206.005C558.722 210.047 554.647 206.353 556.925 206.306C558.122 206.279 561.112 208.814 558.516 206.08C566.237 209.384 561.27 208.048 561.715 208.387C562.398 208.887 565.234 209.671 565.556 209.863C566.022 210.147 564.111 209.869 566.003 210.857C566.322 211.019 569.763 211.55 565.878 209.48C571.227 211.856 571.046 210.966 572.362 213.049C577.055 211.949 574.507 215.606 575.953 216.314C579.777 218.15 579.315 215.691 579.56 215.673C581.201 215.627 591.831 219.867 594.646 220.254C593.175 221.466 585.981 217.687 584.219 217.367C578.26 216.436 591.971 220.694 587.301 221.199C589.2 221.24 591.076 221.252 592.954 221.244C595.823 223.316 591.139 222.663 599.908 224.476C601.565 223.818 593.75 223.047 595.466 222.624C596.475 222.407 601.494 223.579 601.651 223.336C601.819 223.068 597.221 222.28 598.049 221.991C599.797 221.518 616.131 226.083 603.417 223.852C606.921 224.646 608.368 227.036 611.587 227.006C613.643 226.934 602.946 222.206 619.649 225.643C619.868 226.676 612.865 224.801 612.685 224.811C612.406 224.868 613.324 227.255 613.534 227.4C614.237 228.049 631.895 229.355 635.681 230.576C634.235 229.285 649.356 231.288 651.105 230.867C651.552 230.779 649.902 229.966 650.38 229.902C652.009 229.701 655.151 230.083 658.338 230.44C659.507 230.748 661.253 230.927 662.458 230.818C665.515 230.519 665.128 229.864 665.28 229.856C666.748 229.669 665.657 230.28 666.561 230.135C667.742 230.072 678.31 227.761 678.927 227.426C679.08 227.358 677.105 227.115 679.447 226.363C679.876 226.208 679.774 227.211 686.905 224.771C695.543 221.756 680.523 225.514 683.9 223.58C689.866 223.208 689.345 221.997 690.882 221.644C691.425 221.519 695.731 221.329 700.09 219.839C696.996 221.026 693.964 222.167 690.903 223.282C694.004 222.546 699.888 220.42 702.534 219.765C703.804 219.455 703.054 220.632 705.776 219.7C706.36 219.489 707.902 216.742 701.138 219.978C700.327 219.438 703.838 218.815 705.357 218.078C705.596 217.962 706.065 216.465 708.358 216.528C708.908 216.535 704.878 221.871 717.563 214.66C717.968 214.429 716.296 214.519 716.688 214.282C716.938 214.129 720.521 213.077 720.859 212.889C721.224 212.687 719.386 212.796 719.815 212.541C722.007 211.237 725.885 211.984 720.873 213.584C722.596 213.243 724.374 212.876 726.097 212.526C723.793 211.751 728.567 211.204 730.838 210.341C745.483 204.77 735.26 207.415 737.617 206.037C739.315 205.044 739.823 205.192 740.376 205.401C741.044 205.662 741.834 206.003 744.931 204.419C745.437 204.141 737.996 205.799 752.004 201.199C749.988 202.011 747.919 202.832 745.942 203.606C747.582 204.532 753.294 200.742 753.708 200.555C758.895 198.335 755.678 200.164 763.168 196.383C763.862 196.032 765.553 195.717 766.962 194.944C772.811 191.755 758.632 197.905 757.964 197.494C757.717 197.356 773.146 191.098 773.649 190.938C776.133 190.508 766.813 194.147 768.876 194.047C769.82 194.094 790.843 183.999 794.714 181.97C799.464 179.809 802.336 180.216 801.316 178.428C803.646 179.424 803.987 177.605 804.529 177.296C811.183 173.394 811.239 173.342 816.159 169.492C817.2 168.653 818.504 168.381 818.805 168.006C818.977 167.787 818.172 167.615 819.065 166.627C820.528 165.323 828.501 158.338 829.148 157.813C829.964 157.448 826.286 161.252 827.342 160.925C830.035 158.137 832.176 155.229 834.517 151.886C835.487 150.487 835.338 151.422 835.753 150.807C835.94 150.612 838.864 145.084 838.602 145.184C838.282 145.409 835.715 149.812 833.408 152.906C831.103 156.056 828.965 158.297 830.116 156.371C830.549 155.656 833.169 153.687 831.947 153.442C835.934 148.232 839.567 141.701 843.922 133.717C849.545 123.514 855.085 113.22 860.463 102.926C856.174 113.03 849.936 123.734 844.443 133.979C844.096 134.63 843.757 135.269 843.428 135.897C842.616 137.462 839.949 142.172 840.762 141.83C842.045 139.568 843.412 136.996 844.894 134.206C848.848 126.782 852.902 118.874 856.457 112.534C856.617 112.248 856.503 113.526 857.131 112.471C858.313 110.488 860.894 103.716 861.626 102.703C861.769 102.523 860.454 106.514 861.389 105.555C863.801 103.055 862.045 101.501 863.363 98.9358C864.362 97.0516 871.706 84.5966 872.651 81.0294C873.663 77.3102 867.637 90.3783 867.524 89.2305C871.342 80.1561 876.161 71.5528 880.05 63.1007C880.12 62.9475 879.1 64.0579 879.93 62.1508C881.385 58.8036 882.377 58.1783 883.22 56.6236C884.133 54.9188 887.008 48.6443 887.658 47.8436C887.737 47.7459 887.683 49.2841 887.603 49.4938C886.53 52.3352 885.323 53.0195 885.205 53.2401C884.751 54.1295 884.606 55.1647 884.184 56.0235C883.519 57.3669 882.895 58.0187 882.018 59.829C881.427 61.0442 882.492 60.0808 881.911 61.2607C881.684 61.7287 878.314 65.8902 879.278 66.9063C879.505 66.959 884.031 57.6645 889.27 47.0609C891.947 41.749 894.9 35.8743 898.761 30.3701C902.571 24.8056 907.384 20.6796 908.641 19.6341C903.745 23.2598 899.631 28.1517 896.844 32.2392C900.009 27.446 905.689 20.8724 910.298 17.8456C914.306 15.0697 916.681 14.3356 917.361 14.6379C951.192 1.77292 977.373 2.91418 1006.27 1.17354C1011.34 1.11285 1008.62 1.97428 1016.92 1.53047C1014.76 1.32903 1012.59 1.13377 1010.43 0.944988C1014.71 0.933815 1033.61 1.03881 1036.65 0.947584C1037.04 0.930808 1037.59 0.234592 1042.29 0.228407C1046.51 0.230242 1047.14 0.752823 1049.41 0.889548C1051.3 1.00484 1053.38 0.927072 1053.95 0.969464C1054.38 1.00268 1054.55 1.30952 1055.59 1.39015C1058.84 1.64552 1056.2 0.72128 1059.42 1.79285C1058.62 1.80431 1057.86 1.81739 1057.07 1.8319C1060.99 2.08522 1066.35 2.72123 1060.57 2.7362C1059.57 2.74204 1060.43 2.47973 1059.69 2.45679C1030.71 1.91175 1053.86 2.82108 1064 2.77153C1065.39 3.04633 1070.15 3.26598 1074.35 3.49354C1074.73 3.51952 1075.86 3.6114 1076.24 3.69873C1079.89 4.49616 1083.16 5.19926 1083.38 5.28733C1084.01 5.54849 1081.53 5.32538 1084.64 6.31351C1085.3 6.47669 1104.25 10.7243 1097.34 9.62703C1095.91 9.38711 1086.87 7.17828 1084.68 6.7136C1089.66 8.68058 1101.94 10.3455 1103.29 10.7418C1108.73 12.203 1092.65 8.88266 1104.94 11.9773C1114.38 14.4164 1105.61 11.6551 1109.31 12.3503C1111.39 12.7216 1121.95 16.1767 1121.86 15.4074C1125.57 16.3863 1123.31 16.149 1123.76 16.3065C1124.2 16.4383 1131.53 18.3992 1133.87 19.3749C1134.15 19.489 1133.13 19.5459 1133.42 19.6739C1133.97 19.8606 1141.15 22.3574 1141.5 22.5417C1141.69 22.5908 1140.06 21.5983 1140.8 21.8085C1141.21 21.9246 1143.05 22.6355 1145.03 23.5758C1145.09 23.6065 1145.27 23.6888 1145.33 23.7217C1147.19 24.7048 1148.8 25.5934 1148.98 25.6368C1149.26 25.7053 1147.31 24.6234 1145.42 23.5566C1145.35 23.523 1145.16 23.4391 1145.1 23.4078C1143.26 22.4852 1141.86 21.8615 1142.58 21.9801C1143.36 22.3268 1144.25 22.7229 1145.21 23.1766C1145.27 23.2088 1145.47 23.2949 1145.53 23.3294C1149.12 25.2579 1152.59 26.9156 1154.38 27.4621C1153.84 27.3197 1150.88 25.8501 1149.81 25.2179C1150.58 25.1367 1156.91 28.1887 1154.58 27.5172C1156.07 27.9611 1155.15 27.4181 1156.02 27.5877C1156.24 27.6378 1158.27 28.4839 1158.71 28.5564C1158.75 28.5648 1156.72 27.5174 1157.18 27.5957C1157.93 27.7958 1164.33 30.1924 1164.9 30.3723C1166.38 31.0102 1160.97 29.3584 1160.49 29.3634C1160.39 29.3894 1164.84 31.3526 1164.92 31.3884C1165.07 31.8631 1160.04 29.8486 1160.54 30.3691C1161.75 30.8905 1163 31.3911 1164.26 31.8747C1159.04 30.7206 1150.98 26.7998 1148.55 25.8059C1155.22 29.4539 1162.6 31.8073 1162.41 32.6893C1162.29 33.0579 1159.07 32.1748 1159.17 32.3015C1159.5 32.8167 1164.06 33.931 1164.22 33.9799C1164.35 34.0425 1164.41 34.0813 1164.41 34.1002C1164.41 34.1002 1164.41 34.1002 1164.41 34.1002C1164.32 34.3262 1157.97 32.3451 1157.67 32.27C1157.08 32.2358 1159.64 33.8893 1159.6 34.0206C1159.47 34.038 1154.99 32.5251 1156.39 33.3345C1157.8 34.187 1161.8 35.5183 1161.95 35.5771C1162.64 36.0079 1155.64 33.7647 1155.43 33.71C1155.3 33.7313 1158.9 35.3612 1159.01 35.4619C1159.07 35.5784 1156.16 34.7518 1154.97 34.5572C1154.07 34.4252 1156.43 35.4891 1156 35.355C1155.65 35.3264 1149.22 32.5938 1148.92 32.4042C1148.44 32.2292 1149.82 33.1584 1149.58 33.1075C1149.23 33.0498 1147.22 31.9669 1147.45 32.1756C1147.56 32.4413 1155.37 36.6972 1155.31 36.7822C1155.07 37.1588 1146.58 32.7666 1154.26 37.4359C1154.32 37.4737 1156.39 38.109 1156.44 38.1304C1157.64 38.8124 1150.88 36.9673 1159.01 39.6088C1143.83 34.7376 1156.93 39.5525 1154.5 39.337C1153.54 39.3149 1147.68 37.014 1147.66 36.9879C1148.09 37.5283 1150.03 38.1018 1150.6 38.4914C1150.91 38.7494 1145.6 36.7683 1146.68 37.4703C1147.2 37.8968 1152.82 40.1387 1153.06 40.1928C1155.23 41.1828 1152.4 40.3975 1152.85 40.7047C1153.14 40.931 1156.59 42.0991 1156.68 42.1305C1156.81 42.2319 1151.99 41.0083 1150.97 40.7193C1150.18 40.5371 1152.92 41.7338 1152.38 41.5785C1149.11 40.7435 1142.86 37.1571 1148.8 40.7898C1149.16 41.0138 1151.62 41.9285 1151.69 41.9552C1153.11 42.7739 1148.58 41.1191 1147.7 40.9535C1146.15 40.7522 1152.74 43.1774 1147.23 41.2407C1151.17 43.1421 1153.51 43.9416 1158.33 45.2767C1144.98 41.2793 1139.77 39.9079 1154.73 45.3981C1149.98 43.8429 1150.3 44.464 1148.87 43.9591C1147.93 43.6921 1141.44 40.1836 1143.98 42.7129C1144.29 43.0555 1148.58 44.5817 1147.14 44.3441C1137.18 39.9885 1146.79 44.493 1146.83 44.4917C1146.73 44.8419 1141.6 42.724 1137.01 40.4822L1137.33 40.6344C1132.09 38.4989 1123.41 36.2702 1121.27 35.8028C1116.71 34.8254 1112.44 34.5995 1111.44 34.392C1108.15 33.7067 1110.96 33.9489 1110.25 33.6758C1109.54 33.3779 1099.94 32.1465 1099.47 32.04C1097.67 31.5512 1099.61 31.501 1099.43 31.4461C1097.22 30.7432 1084.36 28.7504 1080.76 28.0623C1080.83 28.353 1088.04 29.6181 1083.44 29.2756C1078.09 28.8944 1078.03 27.6453 1077.9 27.5649C1075.9 27.2284 1073.88 26.8958 1071.86 26.5658L1073.71 26.7668C1051.64 26.8131 1029.29 27.9633 1007.23 29.9645C1007.58 30.6637 1023.31 28.8123 1023.69 28.9274C1025.8 29.2639 999.189 31.4998 995.953 31.7117C998.446 31.6096 1000.9 31.5224 1003.4 31.4435C999.244 32.7436 989.845 32.6073 983.852 33.8218C981.926 34.2119 985.69 34.07 985.62 34.1058C983.465 34.7452 979.945 34.9574 982.513 34.1165C977.209 35.3184 977.968 34.7004 973.878 35.2798C973.673 35.3116 975.442 35.4137 972.285 36.0733C970.753 36.3678 962.856 37.7592 961.884 38.3195C961.498 38.5379 965.653 39.2693 965.974 37.9129C974.666 37.0329 968.634 36.8566 972.023 36.3219C972.552 36.2585 971.393 37.0946 979.915 35.5058C978.443 36.9626 968.498 37.5905 966.911 38.0631C963.536 38.9615 977.745 37.1972 980.299 35.9081C979.168 37.0666 981.358 35.8805 984.549 35.491C988.077 35.0649 986.59 35.5559 988.484 35.3113C993.7 34.6624 991.494 34.2543 995.858 34.3553C991.471 32.9538 1003.27 33.2732 1006.7 33.4391C1001.17 34.0818 995.659 34.7901 990.175 35.578C990.497 35.638 990.821 35.6981 991.144 35.7582C989.69 35.9253 988.27 36.0945 986.814 36.2728C987.037 36.1462 987.26 36.0197 987.483 35.8935C980.12 37.5064 978.256 37.1169 977.662 37.1879C969.925 38.2665 961.087 39.8452 953.766 41.562C952.678 41.8504 953.435 42.2 945.665 43.8159C943.251 44.3604 945.348 43.1698 942.717 44.0713C939.921 46.4994 939.717 45.4122 938.823 45.735C936.315 46.6995 935.382 47.6234 935.209 47.7085C934.296 48.1888 933.249 48.8867 933.335 48.9342C932.462 49.6986 932.046 50.2514 931.385 51.2958C931.372 51.3267 932.313 50.7204 931.475 51.7618C931.333 51.9535 930.213 52.7327 928.61 55.0147C927.015 57.2667 925.056 60.9009 923.81 64.7478C924.722 62.9095 925.671 61.0249 926.56 59.3459C925.515 61.0163 919.265 77.8062 921.407 73.981C922.722 71.5934 923.954 65.1451 925.358 65.0361C922.934 69.9344 910.738 101.504 909.35 103.689C909.172 103.996 909.638 101.81 909.397 102.24C909.241 102.52 906.267 109.709 905.717 110.549C905.389 111.061 906.495 107.843 906.242 108.038C906.07 108.184 902.044 116.934 902.295 117.688C903.07 115.406 905.888 109.41 904.895 112.826C904.755 113.288 903.54 115.201 903.381 115.741C901.97 120.629 907.825 106.822 908.765 104.579C905.66 113.639 899.008 126.689 894.828 136.878C892.559 140.72 896.919 130.606 894.497 134.983C889.386 144.181 893.904 137.81 893.827 138.118C893.184 140.673 887.156 147.605 888.91 148.398C887.162 151.477 887.346 150.54 885.594 154.682C885.5 154.905 885.401 155.144 885.294 155.401C885.451 155.189 885.608 154.978 885.764 154.768C886.029 154.404 886.293 154.041 886.557 153.68C886.449 154.087 886.311 154.515 886.146 154.96C884.248 160.528 876.584 170.167 876.783 169.182C877.667 166.355 881.515 160.571 881.713 160.076C881.963 159.5 881.622 157.592 883.683 153.721C884.396 152.38 885.373 150.811 886.702 149.009C886.908 146.893 884.879 150.732 883.333 153.545C882.109 155.768 881.266 157.222 882.468 153.744C880.904 158.18 867.865 180.564 865.211 183.892C864.976 184.292 867.439 183.471 862.709 188.33C860.431 190.621 865.268 184.568 864.091 185.523C862.488 187.05 851.828 199.871 838.73 209.426C825.833 219.228 811.817 226.864 807.314 229.297C806.738 229.604 806.747 229.093 806.18 229.397C804.413 230.358 798.281 234.229 795 235.568C801.925 233.126 789.103 239.449 785.892 240.753C780.792 242.918 780.885 241.976 778.669 242.771C772.515 244.971 764.855 249.091 758.107 251.648C755.451 252.656 753.068 253.379 751.041 253.616C752.065 255.168 739.773 257.116 734.577 259.07C730.516 260.615 724.985 263.998 730.762 262.606C723.693 265.205 716.28 268.302 709.472 270.772C708.349 271.179 709.74 270.118 707.805 270.834C707.631 270.902 707.552 271.503 705.911 272.117C692.042 277.157 698.51 273.784 695.766 274.31C694.216 274.584 693.081 274.819 692.247 275.03C700.672 272.475 709.738 269.074 712.18 268.2C709.797 267.839 694.482 274.435 689.362 275.407C689.19 275.443 689.607 274.635 689.434 274.679C689.43 274.68 689.427 274.681 689.423 274.682C687.716 275.221 675.539 278.327 678.195 278.503C678.943 278.569 684.704 277.306 691.009 275.404C689.314 276.041 690.803 276.392 690.505 276.509C686.966 277.957 677.317 279.556 673.562 280.038C672.737 280.161 672.869 280.625 672.729 280.651C669.307 281.09 670.571 279.523 667.12 281.393C663.764 280.878 666.912 280.55 670.412 280.034C673.931 279.528 677.749 278.797 677.069 278.374C676.513 278.005 668.99 279.881 658.471 280.2C649.332 280.5 639.361 280.62 639.377 281.353C639.264 281.202 638.814 281.005 637.854 280.758C635.742 280.249 626.206 279.784 624.524 279.857C624.242 279.883 624.225 281.226 623.878 281.208C622.99 281.216 611.372 278.934 606.859 278.99C609.207 279.531 611.552 280.037 613.913 280.514C599.534 278.609 601.684 279.132 606.418 280.324C606.658 280.363 606.884 280.448 607.112 280.487C610.79 281.338 615.541 282.178 615.598 282.287C615.827 282.986 591.221 279.259 596.199 278.731C596.877 278.743 608.091 281.148 602.644 279.353C601.692 279.066 594.407 277.992 594.051 277.796C591.654 276.735 607.567 278.675 605.782 277.366C601.824 277.656 597.004 276.33 592.613 275.651C590.611 275.341 589.974 275.894 589.727 275.854C586.037 275.221 588.249 274.977 587.029 274.72C586.375 274.61 578.837 274.313 580.731 272.61C557.088 267.502 573.711 272.726 588.326 275.894C583.535 275.652 574.674 272.952 570.67 271.916C569.233 271.556 569.868 272.487 567.42 271.889C562.235 270.884 539.631 261.593 534.137 258.726C537.768 260.018 537.046 258.865 534.307 257.736C531.559 256.591 533.424 258.542 532.846 258.411C532.201 258.316 519.843 252.084 517.762 251.152C527.271 255.289 525.479 253.596 517.624 249.705C518.861 250.061 520.113 250.418 521.349 250.762C516.549 248.848 507.537 242.905 504.825 241.849C504.39 241.685 505.545 243.037 505.301 242.944C504.661 242.692 503.664 242.176 502.532 241.545C499.69 239.95 495.913 237.641 495.633 237.688C495.258 237.705 498.031 239.759 496.777 239.418C496.463 239.32 494.056 237.069 491.047 235.819C489.962 235.37 490.31 236.242 490.029 236.143C487.632 235.301 489.474 235.015 485.261 233.171C482.187 231.844 479.516 231.73 475.433 229.519C488.633 237.037 477.367 231.16 471.376 229.004C470.43 228.669 470.782 230.034 465.448 227.177C478.104 230.329 462.502 224.683 459.341 223.47C459.172 223.395 459.408 222.672 457.869 222.051C457.736 221.999 457.74 222.548 456.277 222.018C442.461 217.149 451.419 219.949 448.994 218.489C447.95 217.858 440.965 216.135 439.169 215.558C438.75 215.417 439.123 214.978 437.485 214.446C434.627 213.524 431.82 213.216 429.944 212.67C429.718 212.604 429.99 211.79 426.265 210.929C425.236 210.695 424.011 210.639 425.374 211.305C429.929 213.501 439.371 215.148 444.432 217.825C449.043 220.207 433.683 214.904 432.878 214.728C432.582 214.633 435.733 215.222 432.691 214.142C430.08 213.217 424.875 213.116 421.032 211.664C420.722 211.545 417.968 209.462 418.121 209.433C418.268 209.412 423.169 210.563 422.576 210.019C422.499 209.95 419.425 209.061 419.102 208.694C418.706 208.242 418.256 204.797 417.605 204.531C415.942 203.86 416.854 204.87 415.773 204.518C413.466 203.743 405.447 200.699 404.885 201.721C406.246 202.126 407.595 202.536 408.932 202.949C401.309 201.13 404.443 202.427 403.317 202.356C402.111 202.295 402.678 201.424 400.127 200.725C399.568 200.535 388.786 198.373 388.891 198.847C394.963 199.457 392.508 200.185 392.774 200.259C393.805 200.563 395.286 200.197 396.674 200.526C406.451 202.909 396.308 201.637 398.562 202.445C399.341 202.72 401.061 202.535 401.39 202.645C402.46 203 402.296 203.738 403.034 203.855C404.754 204.131 403.045 202.611 403.19 202.59C404.862 202.298 410.626 204.634 406.631 204.813C408.745 205.784 409.336 204.48 410.964 205.493C414.174 207.506 408.998 205.824 407.556 205.655C402.29 205.016 400.92 204.1 393.663 202.667C391.017 202.149 387.825 202.192 386.589 201.982C385.833 201.837 379.04 198.101 378.152 201.77C375.444 200.907 371.431 197.722 368.494 197.386C365.85 197.085 366.482 198.529 366.231 198.542C365.852 198.565 362.725 198.004 361.624 198.046C360.495 198.088 360.787 198.547 359.505 198.616C359.326 198.626 359.116 198.628 358.867 198.621C353.786 198.481 354.082 197.167 353.576 197.012C347.684 195.285 350.089 197.523 348.739 197.522C347.499 197.46 330.134 195.052 326.423 195.358C327.931 195.192 329.459 195.034 330.969 194.881C328.358 193.819 325.416 195.004 325.478 193.482C324.756 195.89 319.363 193.899 317.69 193.879C317.035 193.87 317.064 194.291 316.248 194.267C313.044 194.159 305.902 193.563 304.163 193.742C296.712 194.441 315.659 196.535 317.155 196.8C314.131 196.532 297.238 196.601 304.961 198.003C306.16 198.219 308.301 197.19 308.985 197.173C313.569 197.07 309.936 197.914 310.291 198.021C310.887 198.194 313.931 197.374 314.728 197.529C314.989 197.581 313.249 198.38 317.593 198.627C315.404 199.334 303.225 198.168 301.645 198.38C301.082 198.458 304.57 200.307 294.264 198.412C294.383 198.585 294.501 198.757 294.62 198.929C291.877 198.951 289.129 199.001 286.393 199.083C283.467 199.171 280.558 199.29 277.659 199.448C278.237 199.027 281.357 198.11 277.407 198.436C275.167 198.633 276.871 199.44 276.667 199.474C275.798 199.63 268.223 199.916 260.365 200.823C252.594 201.515 244.559 203.994 246.061 203.412C247.208 202.729 247.048 202.761 246.961 202.82C246.834 202.895 246.596 203.059 246.369 203.223C245.332 203.919 240.133 208.868 239.747 209.196C237.284 211.223 227.623 218.335 225.76 219.906C224.608 220.889 226.19 220.543 225.12 221.338C224.121 222.079 224.698 220.766 224.389 220.971C221.875 222.721 203.638 237.726 198.612 240.522C201.536 238.682 214.422 227.297 213.77 227.153C213.691 227.133 210.058 229.277 209.527 229.989C208.066 230.382 205.276 234.678 202.92 235.998C202.663 236.139 202.958 234.715 199.09 237.363C197.728 238.301 194.771 241.402 190.768 243.261C186.055 247.352 158.341 264.817 156.958 266.681C156.938 266.755 160.97 264.514 158.61 266.52C155.448 269.189 157.521 265.772 153.391 268.272C152.806 268.654 141.582 275.976 141.248 276.273C138.346 279.175 148.538 273.291 148.436 273.472C148.287 273.912 140.078 279.192 139.71 279.323C139.356 279.468 145.38 274.316 137.538 279.68C138.56 279.227 139.577 278.776 140.59 278.328C136.942 280.895 136.038 280.45 135.105 280.957C133.234 281.971 131.58 283.515 129.177 284.899C127.786 285.701 126.167 286.436 124.163 286.971C122.718 287.357 124.48 285.795 124.294 285.833C122.504 286.271 121.552 288.498 118.684 288.947C118.489 288.969 123.266 285.414 114.258 290.72C114.928 290.445 115.601 290.167 116.278 289.887C115.178 290.81 106.059 296.236 104.861 296.837C101.134 298.79 103.91 296.417 100.318 298.557C103.186 298.033 92.1567 304.326 92.3719 303.302C91.4521 304.931 81.4133 309.56 76.9788 311.863C74.102 313.387 68.4931 316.709 67.5744 317.115C66.4553 317.622 66.4906 316.948 64.3836 317.882C63.7752 318.163 58.0719 321.493 52.4306 323.595C51.3826 323.975 48.7223 324.273 50.5424 323.13C53.5451 321.235 60.0673 318.768 59.7236 318.303C59.265 317.878 51.2683 322.334 48.9801 323.345C38.4507 328.077 44.138 324.676 43.7866 324.647C42.89 324.615 37.2154 327.359 37.0015 327.402C35.9607 327.715 39.7412 325.561 39.705 325.28C39.5839 324.972 33.8887 327.066 35.0607 326.381C36.7745 325.388 41.9663 323.374 42.262 323.197C46.22 320.824 40.1887 322.99 38.4742 323.43C37.9392 323.572 39.745 322.439 39.3259 322.613C33.1098 325.177 38.6542 324.167 34.5894 326.048C31.0185 327.671 35.308 325.055 35.1832 325.074C34.9621 325.159 30.7582 327.169 29.9909 327.342C29.6948 327.455 40.1037 321.178 39.3795 320.985C35.9636 322.883 32.6305 324.676 29.1297 326.481C28.5986 326.149 33.7747 324.029 34.2908 323.694C35.2901 323.055 32.2108 324.3 32.2674 324.073C32.2662 323.957 35.4939 321.843 32.3293 323.285C31.2755 323.761 29.2709 325.218 25.2009 326.772C38.3116 319.676 28.9546 323.993 28.4382 324.07C27.9565 324.109 34.1112 320.417 26.4542 324.449C25.6253 323.703 26.4578 324.085 28.5304 322.801C31.0877 321.183 24.8367 324.144 34.5536 319.222C33.834 319.041 26.0192 323.273 25.6162 323.407C25.4251 323.486 25.7447 323.244 26.0331 323.008C26.2975 322.786 26.5287 322.574 26.2109 322.694C18.4813 325.66 23.6807 323.44 21.2873 324.02C21.1055 324.073 14.0955 327.355 19.309 324.64C28.7842 319.56 32.959 317.905 33.7498 315.647C26.6038 319.061 18.6118 324.401 16.4126 325.451C13.139 327.096 16.4006 325.174 15.9703 325.296C15.8211 325.35 12.9769 326.771 12.9427 326.756C10.5123 326.915 25.5319 320.356 29.8577 317.545C28.5595 318.081 27.3119 318.588 25.9945 319.13C27.689 318.172 29.2056 317.297 30.896 316.312C22.9723 320.441 30.5831 316.377 31.9683 314.399C32.279 313.958 27.4885 317.25 32.89 313.319C28.6139 315.712 29.8228 314.776 26.1424 317.234C26.073 316.88 34.4352 311.375 37.6724 309.051C25.5778 316.009 33.0787 313.125 22.3333 318.561C20.6009 320.068 25.5551 317.136 25.1779 317.432C23.9044 318.474 20.2271 320.142 16.4718 323.136C15.8459 323.621 18.9718 322.517 14.6344 324.722C14.1816 324.954 11.2513 325.994 11.2591 325.956C11.5473 325.509 14.3017 324.239 14.3319 324.079C14.4119 323.916 11.4088 325.512 11.3667 325.489C11.1679 325.197 13.8135 324.104 13.4122 324.179C12.4783 324.367 1.32699 329.194 15.5391 322.143C3.96509 328.572 14.2365 323.409 18.671 320.72C19.7745 320.059 20.039 319.651 21.5732 318.678C23.6716 317.357 26.1539 316.023 27.1674 315.365C28.2929 314.619 21.4955 318.065 31.0066 312.495C25.9517 314.947 17.6649 320.518 12.6747 322.698C2.63089 327.167 19.0719 318.311 20.6239 317.085C21.0554 316.805 19.4288 317.401 19.7152 317.209C20.1607 316.95 29.4527 311.443 30.1146 310.643C30.8584 309.837 26.8198 312.738 26.3798 312.663C26.186 312.612 36.7449 305.355 30.8674 308.998C26.8008 311.572 19.5829 316.867 17.9483 316.896C23.9266 313.242 29.908 309.315 35.7313 305.35C32.3087 307.211 28.9353 309.033 25.5167 310.857C32.1743 306.425 37.9918 302.959 43.9551 298.186C28.4637 307.537 48.3582 293.996 48.4167 293.686C48.4517 293.549 42.0795 296.906 41.1162 297.392C46.0547 293.49 61.4782 281.75 51.7078 287.445C53.5709 286.424 57.0451 282.896 56.9927 282.863C56.1756 282.772 47.7648 289.587 48.9197 288.09C50.176 286.409 52.9918 285.276 55.3843 283.369C68.0361 273.273 62.7775 273.292 75.6726 263.62C75.3567 263.72 75.0418 263.821 74.7282 263.92C83.2881 257.183 91.8458 250.406 100.439 243.599C105.687 239.439 110.785 235.351 115.987 231.154C120.555 225.838 133.896 213.477 140.667 207.773C142.028 206.634 149.098 201.406 149.668 201.068C150.751 200.44 145.676 204.966 148.269 203.295C148.821 202.95 160.223 193.384 158.927 193.495C157.637 194.519 153.939 198.264 153.188 198.683C147.915 201.734 182.842 172.061 184.23 169.993C183.265 170.514 182.394 170.956 181.455 171.456C183.666 169.628 185.944 167.744 188.231 165.857ZM114.627 293.301C113.495 294.644 109.136 296.617 106.966 298.019C103.875 300.045 99.5734 304.908 100.708 301.761C105.397 298.971 110.006 296.17 114.627 293.301ZM182.871 251.43C179.631 253.199 180.961 250.341 183.846 249.117C184.17 248.978 187.292 248.993 182.871 251.43ZM150.319 272.195C150.444 272.094 153.15 270.418 153.253 270.379C156.015 269.333 147.835 274.378 150.319 272.195ZM288.706 197.574C285.078 197.702 287.745 199.292 289.963 198.602C290.104 198.558 288.942 197.567 288.706 197.574ZM286.127 197.568C283.292 196.145 277.802 199.303 282.217 198.864C282.648 198.817 286.25 197.634 286.127 197.568ZM171.676 258.357C171.698 257.759 175.027 255.774 176.415 254.963C176.669 255.334 172.937 257.444 171.676 258.357ZM246.264 202.454C246.238 202.202 244.639 203.171 242.23 205.073C239.922 206.886 237.358 209.12 237.23 209.578C237.883 208.911 240.541 206.865 242.729 205.23C245.011 203.512 246.404 202.586 246.264 202.454ZM262.194 199.245C261.874 199.193 258.331 199.733 258.487 200.113C260.248 200.386 263.442 199.459 262.194 199.245ZM321.741 198.815C321.976 198.738 319.004 196.044 326.314 198.175C327.382 198.489 323.458 198.864 323.836 198.981C324.637 199.208 325.266 199.332 325.777 199.383C322.313 199.342 318.745 199.236 318.402 199.067C316.816 198.265 321.642 198.844 321.741 198.815ZM354.256 199.985C354.829 199.748 357.531 200.135 359.253 200.478C359.811 200.589 360.265 200.695 360.509 200.769C360.678 200.824 359.778 201.767 361.787 201.964C363.397 202.125 361.162 200.712 364.253 201.33C367.364 201.962 363.06 202.111 363.325 202.208C363.675 202.323 368.626 202.577 368.375 203.182C368.185 203.616 363.032 202.524 361.727 202.453C360.054 202.352 361.955 203.394 359.208 202.855C359.11 202.836 359.02 202.814 358.94 202.79C357.587 202.384 358.6 201.286 358.256 201.175C357.952 201.071 351.648 201.084 354.265 199.99C354.262 199.989 354.259 199.987 354.256 199.985ZM326.713 199.389C326.45 199.416 326.144 199.419 325.777 199.383C326.091 199.386 326.403 199.387 326.713 199.389ZM123.453 287.656C125.237 286.985 120.738 290.081 118.583 290.857C118.385 290.591 123.179 287.761 123.453 287.656ZM330.001 198.516C335.095 199.275 331.292 199.42 326.713 199.389C328.175 199.237 328.286 198.268 330.001 198.516ZM209.527 229.989C209.772 229.923 209.983 229.95 210.154 230.128C209.501 230.288 209.365 230.21 209.527 229.989ZM220.102 222.393C223.086 219.099 216 224.676 216.409 225.029C216.543 225.187 219.997 222.515 220.102 222.393ZM293.367 197.63C292.994 197.555 298.73 195.137 290.413 196.957C294.866 197.225 290.163 197.502 290.243 197.716C290.424 198.306 297.869 197.74 299.526 198.049C300.841 196.978 294.568 197.876 293.376 197.63C293.373 197.63 293.37 197.63 293.367 197.63ZM410.722 211.478C409.561 211.817 406.523 210.812 404.414 210.249C405.57 209.886 408.605 210.871 410.722 211.478ZM930.774 53.2124C928.469 57.8601 926.343 62.4069 925.876 62.6682C925.334 63.2473 926.328 59.9187 929.128 54.9578C929.178 54.8718 929.657 54.1856 930.067 53.713C930.478 53.2353 930.845 52.9108 930.774 53.2124ZM873.162 179.106C871.452 180.18 874.619 174.961 876.742 171.774C877.235 171.058 879.514 168.669 877.919 171.976C877.085 171.351 873.949 176.11 873.162 179.106ZM332.96 198.031C334.527 197.402 339.086 198.349 341.495 198.707C339.955 199.171 335.09 198.439 332.96 198.031ZM910.491 98.8371C909.773 100.383 909.934 101.774 910.106 101.517C910.884 100.362 911.6 97.2161 910.491 98.8371ZM318.107 196.878C317.924 196.409 324.049 196.348 324.404 197.496C323.097 197.32 318.247 197.163 318.107 196.878ZM406.838 210.115C405.987 209.659 410.786 210.484 412.142 211.092C411.91 211.514 407.38 210.399 406.838 210.115ZM899.681 124.296C898.962 125.75 897.43 129.11 897.498 129.659C897.627 130.262 899.761 125.207 899.681 124.296ZM1104.84 34.974C1105 35.0788 1099.24 34.5781 1096.75 33.9901C1092.02 32.8415 1104.67 34.8548 1104.84 34.974ZM916.378 83.7414C918.811 79.4885 916.178 84.284 916.9 84.3124C918.166 81.2836 921.194 73.8886 918.513 78.7427C917.98 79.7106 917.002 82.3349 916.378 83.7414ZM914.477 87.7698C914.493 88.3113 913.802 91.8126 914.901 89.0186C915.386 87.773 915.561 85.3243 914.477 87.7698ZM1071.88 29.6741C1070.55 29.5534 1071.61 29.4695 1073.63 29.4263L1071.36 29.1789C1075.78 29.802 1084.71 31.3998 1085.08 31.5162C1085.36 31.6017 1085.54 31.6681 1085.64 31.7159C1086.38 31.7073 1089.98 32.3023 1090.33 32.6912C1089.26 32.4777 1086.31 32.0054 1085.96 31.9121C1085.82 31.872 1085.71 31.8391 1085.64 31.8118C1084.58 31.8566 1075.3 30.1957 1071.3 29.4712L1073.63 29.7238C1072.68 29.7051 1072.03 29.6882 1071.88 29.6741ZM1040.09 30.2935C1044.84 29.3693 1045.75 30.4737 1045.33 30.5265C1040.1 31.2562 1043.49 30.2459 1043.34 30.2147C1042.97 30.1652 1039.28 30.7551 1040.1 30.2927C1040.1 30.293 1040.09 30.2933 1040.09 30.2935ZM1065.38 29.5983C1065.6 29.5774 1069.55 29.5412 1069.75 29.5596C1073.03 29.8611 1061.68 29.9739 1065.38 29.5983ZM378.421 202.09C381.078 202.797 378.284 203.092 376.556 202.495C376.413 202.443 376.086 201.475 378.421 202.09ZM913.715 90.0066C913.371 90.6428 906.12 106.724 907.283 106.135C907.814 104.75 915.995 86.3195 913.715 90.0066ZM842.417 210.563C845.206 208.374 842.749 211.498 840.981 212.399C840.334 212.731 841.714 211.114 842.417 210.563ZM309.951 195.45C306.918 195.967 307.613 193.878 310.204 194.701C310.306 194.734 310.07 195.43 309.951 195.45ZM864.108 190.413C855.746 200.574 856.309 196.768 867.381 183.992C867.173 184.494 866.958 184.998 866.738 185.503C878.086 169.637 867.959 184.672 864.9 188.479C863.793 189.959 865.13 189.053 864.118 190.406C864.115 190.408 864.111 190.411 864.108 190.413ZM827.341 221.07C816.724 225.251 835.643 215.148 840.604 210.647C836.159 215.1 829.448 219.552 838.89 213.922C825.853 223.329 830.894 218.614 830.32 219.002C829.676 219.339 827.81 220.881 827.341 221.07ZM852.072 202.294C852.578 201.78 856.742 198.329 858.018 196.842C856.671 199.414 848.853 205.81 852.072 202.294ZM1006.81 33.146C1007.15 32.7271 1008.02 32.3518 1011.45 32.1824C1010.41 32.4692 1008.23 32.8401 1006.81 33.146ZM110.171 292.831C107.983 294.071 103.719 296.303 105.285 295.996C105.433 295.968 110.315 293.094 110.171 292.831ZM892.721 136.944C892.426 137.466 886.704 149.617 889.188 145.641C889.976 144.392 895.031 133.26 892.721 136.944ZM920.354 72.9136C919.941 73.9167 918.319 78.1467 918.378 78.2954C918.623 78.7198 920.518 73.4838 920.354 72.9136ZM99.1483 298.601C98.8811 298.701 92.3414 302.494 93.1945 302.265C94.8199 301.853 100.214 298.198 99.1483 298.601ZM388.56 202.425C389.133 202.518 389.723 203.402 389.916 203.451C390.358 203.522 400.749 205.58 396.598 205.616C395.929 205.559 381.151 202.101 379.185 201.721C378.632 200.571 384.828 202.728 386.394 202.952C386.672 202.989 387.023 202.185 388.555 202.428C388.556 202.427 388.558 202.426 388.56 202.425ZM1024.65 31.2149C1025.11 30.7975 1038.14 29.7393 1037.99 30.1872C1033.55 30.4913 1029.09 30.8341 1024.65 31.2149ZM1018.05 31.6702C1015.26 31.6438 1021.75 31.0302 1023.67 31.0059C1023.7 31.2376 1018.45 31.6696 1018.05 31.6702ZM909.106 95.7404C908.671 97.0585 910.934 93.4211 910.681 94.3506C910.516 94.9544 909.115 97.6263 908.932 98.5917C908.897 98.8484 910.63 96.3639 910.979 95.4636C911.444 94.2635 910.513 95.2057 911.049 93.9217C912.795 89.7331 914.702 86.0364 916.301 82.1053C916.45 81.7384 914.972 84.436 916.253 81.3258C916.446 80.8569 918.077 78.2118 919.472 74.5763C921.241 66.2298 925.134 60.108 928.395 52.6413C928.173 52.5871 924.903 58.5366 924.69 59.0938C921.099 66.5881 914.905 82.1311 911.094 91.1065C910.152 93.3534 910.918 92.4023 910.517 93.3886C910.193 94.1824 910.026 92.9627 909.106 95.7404ZM111.114 291.862C109.707 291.934 106.369 294.364 104.138 295.603C105.233 295.638 108.764 293.081 111.114 291.862ZM960.708 38.6914C959.519 38.9406 955.799 39.5577 955.542 39.7919C955.18 40.0813 960.509 39.0948 960.708 38.6914ZM445.96 218.947C446.084 218.964 448.832 220.019 448.918 220.083C451.12 221.644 442.931 218.499 445.96 218.947ZM510.581 248.574C512.832 249.595 515.243 250.486 515.669 251.476C514.296 250.689 510.08 248.873 510.581 248.574ZM616.832 282.211C616.408 281.296 624.094 282.636 625.539 282.8C624.977 283.174 617.153 282.914 616.832 282.211ZM1006.2 31.5192C1010.45 31.1498 1009.5 30.4344 1012.22 30.5599C1012.67 30.5856 1014.18 32.1155 1009.49 31.9163C1008.64 31.8824 1011.9 31.1755 1006.2 31.5192ZM868.99 181.755C869.369 180.369 871.782 176.957 873.214 174.586C873.243 175.302 870.141 180.093 868.99 181.755ZM87.0619 304.832C84.9604 305.345 76.7595 310.309 79.0485 309.479C79.3637 309.376 85.8907 305.468 87.0619 304.832ZM343.67 196.137C347.415 195.819 339.834 194.811 337.363 195.289C338.457 195.338 343.418 196.152 343.67 196.137ZM590.007 277.403C590.214 277.429 594.654 278.403 594.849 278.463C598.368 279.881 585.778 277.119 590.007 277.403ZM489.572 236.475C491.078 236.564 499.03 241.141 500.647 242.657C498.412 242.348 487.72 236.309 489.572 236.475ZM988.861 33.6509C991.853 33.2625 994.709 33.0356 997.491 32.8732C996.922 33.2022 989.19 33.8109 988.861 33.6509ZM606.418 280.324C606.658 280.363 606.884 280.448 607.112 280.487C606.876 280.433 606.644 280.377 606.418 280.324ZM931.345 47.3211C930.486 47.9712 931.075 48.2385 931.117 48.2076C931.707 47.8279 932.414 46.581 931.345 47.3211ZM107.941 292.613C106.794 292.62 103.347 295.142 100.977 296.358C101.908 296.333 106.192 293.714 107.941 292.613ZM816.389 226.103C813.012 227.254 824.989 219.334 827.836 217.894C828.248 218.251 816.938 226.001 816.389 226.103ZM332.375 193.879C332.181 193.224 326.82 193.577 327.925 193.961C328.625 194.199 332.489 194.279 332.375 193.879ZM834.152 214C835.206 213.084 838.188 211.527 837.417 212.464C836.434 213.671 833.863 214.258 834.152 214ZM901.082 113.278C900.816 113.722 898.182 120.773 899.85 118.173C901.033 116.311 900.569 115.732 900.773 115.269C900.994 114.794 906.541 104.141 901.082 113.278ZM745.675 257.892C748.184 256.678 751.413 255.658 754.148 254.549C753.14 255.315 746.923 257.885 745.675 257.892ZM352.791 195.769C352.196 195.382 334.828 193.438 344.62 195.231C345.193 195.315 354.631 196.753 352.791 195.769ZM1006.2 31.5192C1005.67 31.5664 1005.05 31.6091 1004.34 31.6444C1005.05 31.5884 1005.67 31.5527 1006.2 31.5192ZM958.937 38.076C959.828 37.6053 955.111 38.497 953.85 38.9517C953.458 39.3791 958.84 38.1206 958.937 38.076ZM754.156 253.954C755.134 253.401 756.762 252.812 758.331 252.233C759.136 251.936 759.913 251.645 760.573 251.369C760.491 251.558 759.579 252.024 758.439 252.516C756.757 253.245 754.638 254.004 754.156 253.954ZM631.373 281.392C634.937 281.852 639.332 281.908 639.412 281.43C639.482 281.507 639.65 281.593 639.931 281.683C640.213 281.776 644.037 281.668 645.666 281.855C655.607 283.432 607.251 280.437 635.383 280.729C634.056 280.958 632.718 281.179 631.373 281.392ZM478.883 230.063C477.555 228.764 472.671 227.445 473.754 228.194C474.495 228.69 480.235 231.363 478.883 230.063ZM545.361 261.482C544.827 261.166 539.564 259.469 539.306 259.697C542.088 261.241 547.741 262.964 545.361 261.482ZM466.683 223.919C465.692 223.401 463.957 223.769 464.074 223.865C464.993 224.637 468.187 225.156 466.683 223.919ZM997.318 30.8477C995.583 30.8555 990.179 31.8959 989.04 32.4365C988.813 32.3879 988.216 32.3606 987.122 32.3767C987.125 32.3763 987.129 32.3758 987.132 32.3754C985.407 31.9865 942.611 39.2197 971.413 35.0263C972.336 34.9076 971.029 34.7363 974.727 34.2353C974.973 34.203 975.13 34.4763 975.891 34.3773C977.618 34.1274 986.962 33.0514 988.827 32.6137C988.848 32.6647 988.974 32.7002 989.236 32.715C991.581 32.8289 998.647 30.8271 997.318 30.8477ZM555.69 265.295C554.695 264.76 551.306 263.683 550.821 263.94C552.367 264.756 558.007 266.556 555.69 265.295ZM352.469 193.925C350.508 193.323 345.347 193.436 346.845 193.96C347.762 194.269 354.728 194.605 352.469 193.925ZM523.178 251.942C534.606 257.802 525.964 253.2 528.011 253.474C526.41 252.978 524.799 252.468 523.178 251.942ZM1052.24 27.9368C1050.35 27.9287 1052.55 27.2017 1054.65 27.4877C1055.31 27.5778 1053.28 27.9395 1052.24 27.9368ZM1133.91 39.9436C1133.29 39.5029 1134.68 39.8935 1135.76 40.3354C1136.83 40.7757 1137.6 41.2468 1136.43 40.9574C1136.37 40.9313 1134.01 39.9839 1133.91 39.9436ZM1076.05 27.6022C1074.9 27.727 1074.13 27.6814 1071.73 27.2521L1073.69 27.4653C1073.26 27.4592 1072.78 27.4497 1072.24 27.438C1072.85 27.4233 1073.32 27.407 1073.69 27.3892L1071.74 27.1774C1074.64 27.5176 1071.35 26.7292 1076.05 27.6022ZM639.377 281.353C639.398 281.382 639.417 281.404 639.412 281.43C639.388 281.403 639.378 281.379 639.377 281.353ZM456.634 220.062C455.542 218.948 451.768 217.566 452.657 218.588C452.761 218.688 455.901 220.276 456.634 220.062ZM989.04 32.4365C989.241 32.4797 989.146 32.5348 988.827 32.6137C988.807 32.5656 988.886 32.5084 989.04 32.4365ZM476.698 227.922C476.394 228.292 481.86 230.997 482.089 231.055C485.576 231.79 479.04 228.927 476.698 227.922ZM311.839 189.939C311.521 189.976 313.501 191.311 314.783 190.884C315.777 190.553 313.029 189.795 311.839 189.939ZM1088.3 29.5517C1090.29 29.9046 1093.09 30.4139 1093.55 30.7741C1092.23 30.489 1088.21 29.74 1088.3 29.5517ZM1131.31 38.7891C1129.1 38.4184 1124.02 37.0996 1120.7 36.2834C1120.77 35.8681 1129.35 38.2419 1131.31 38.7891ZM1002.74 30.4895C1002.57 30.4808 997.565 30.8355 998.277 31.1153C999.302 31.5155 1004.17 30.5356 1002.74 30.4895ZM321.29 191.095C323.505 190.808 318.538 189.195 316.182 190.087C314.968 190.534 320.925 191.135 321.29 191.095ZM445.196 214.903C442.385 214.269 448.838 217.238 449.99 217.008C448.776 216.502 446.186 215.122 445.196 214.903ZM537.566 256.541C529.012 250.873 532.721 256.016 534.501 256.493C534.755 256.563 537.779 256.68 537.566 256.541ZM64.6993 314.357C63.5842 315.117 68.3277 313.235 68.7501 312.585C68.9811 312.199 65.3869 313.889 64.6993 314.357ZM692.247 275.03C691.828 275.158 691.416 275.283 691.009 275.404C691.308 275.29 691.709 275.166 692.247 275.03ZM421.138 204.56C426.535 208.834 426.434 206.759 426.969 206.926C428.096 207.298 430.582 208.801 432.728 209.373C430.22 208.871 427.606 208.36 425.09 207.905C427.023 208.583 443.483 215.022 443.947 214.834C444.641 214.442 439.339 212.794 439.193 212.698C438.997 212.553 438.704 210.708 438.226 210.481C437.497 210.065 423.335 205.553 421.138 204.56ZM518.295 247.967C519.653 248.846 519.797 249.625 520.539 249.814C520.793 249.879 521.1 249.351 521.953 249.586C520.739 249.056 519.504 248.508 518.295 247.967ZM409.512 203.773C407.959 202.564 415.715 204.926 415.912 205.089C417.102 205.952 410.775 204.736 409.512 203.773ZM474.147 226.184C473.88 226.005 468.278 223.329 468.174 223.753C469.574 224.67 477.109 228.094 474.147 226.184ZM522.939 250.012C525.088 251.125 529.003 253.602 528.907 252.548C528.904 252.546 528.9 252.545 528.897 252.543C526.924 251.724 524.905 250.864 522.939 250.012ZM328.925 189.596C324.96 187.781 326.75 189.83 330.321 190.597C331.466 190.002 329.577 189.892 328.925 189.596ZM315.948 187.638C314.806 187.269 303.137 187.152 304.888 188.032C305.516 188.325 312.242 187.847 312.547 187.928C313.013 188.032 310.831 188.823 314.419 188.811C314.222 188.499 316.334 187.748 315.948 187.638ZM325.623 188.38C321.631 186.949 320.593 189.032 323.636 189.231C324.828 189.313 326.189 188.587 325.623 188.38ZM342.172 189.961C340.739 189.613 336.872 188.949 334.131 189.432C337.71 189.797 341.285 190.197 344.858 190.631C345.314 190.275 343.428 190.264 342.162 189.96C342.165 189.961 342.168 189.961 342.172 189.961ZM1155.65 45.8866C1152.29 44.6346 1160.2 46.9079 1160.52 46.984C1161.45 47.4257 1157.15 46.4723 1155.65 45.8866ZM35.8593 317.962C34.9603 318.319 34.2048 318.289 32.5518 319.43C34.4359 318.731 36.5106 317.92 38.4186 317.205C39.4716 315.824 36.8364 317.577 35.8593 317.962ZM27.7502 319.691C27.9799 319.544 26.1798 319.42 29.7199 318.194C32.2031 317.379 20.2088 324.414 17.7599 325.093C20.1591 323.688 25.6031 321.033 27.7502 319.691ZM4.69844 327.132C4.54576 327.164 9.07973 324.936 9.64637 324.674C12.5206 323.537 5.623 327.189 4.69844 327.132ZM19.3613 319.813C17.1603 320.847 21.7735 318.107 23.2567 317.352C23.4643 317.447 19.7489 319.636 19.3613 319.813ZM1127.44 22.2737C1124.98 20.9365 1122.31 21.5309 1126.39 22.4166C1126.58 22.4578 1127.54 22.3335 1127.44 22.2737ZM8.85666 324.244C11.0527 323.322 6.34363 325.818 4.91729 326.324C4.7062 326.276 8.49416 324.42 8.85666 324.244ZM1125.97 20.3711C1122.6 18.9572 1123.44 20.7133 1123.87 20.89C1125.6 21.589 1131.88 22.877 1133.19 23.1853C1123.92 20.5233 1127.56 21.0721 1125.97 20.3711ZM1109.7 16.9757C1106.44 16.3408 1114.61 18.6619 1116.28 18.6858C1114.66 18.2818 1110.63 17.1546 1109.7 16.9757ZM1090.17 11.9319C1088.45 11.49 1083.28 10.229 1082.37 10.2977C1084.28 10.654 1089.39 12.0193 1090.17 11.9319ZM1086.38 10.329C1083.72 9.3972 1082.87 10.2392 1086.07 10.6285C1086.2 10.6436 1086.47 10.3694 1086.38 10.329ZM1069.76 7.29997C1067.92 6.81784 1065.83 7.75823 1068.79 7.88348C1069.65 7.91965 1069.96 7.35467 1069.76 7.29997ZM1121.99 17.6219C1119.47 16.7573 1116.04 16.4887 1121.47 18.0411C1119.53 17.6049 1117.59 17.1853 1115.65 16.7803C1122.7 19.0104 1122.4 18.0668 1124.45 18.676C1127.29 19.5506 1126.9 20.1825 1126.26 20.2271C1128.63 20.5023 1137.68 23.0411 1143.97 25.9136C1144.01 25.9357 1144.15 25.9949 1144.19 26.0186C1144.47 26.1582 1144.73 26.2935 1144.99 26.4232C1144.74 26.2818 1144.48 26.1348 1144.21 25.9834C1144.17 25.9595 1144.03 25.8999 1143.99 25.8777C1138.59 23.1507 1131.1 20.5813 1126.35 19.0651C1124.93 18.6125 1123.49 18.4077 1122.28 18.0453C1120.33 17.4666 1122.13 17.6708 1122 17.6247C1122 17.6238 1121.99 17.6228 1121.99 17.6219ZM1049.05 6.83959C1043.65 6.32288 1047.05 7.39264 1050.12 7.22416C1050.25 7.21076 1049.18 6.85242 1049.05 6.83959ZM1.95093 324.808C7.89156 322.255 3.86562 325.203 16.0569 317.341C11.0591 320.9 15.9075 317.882 14.9915 318.671C14.2973 319.286 11.0775 320.932 13.0316 320.221C10.5792 321.341 0.103232 326.622 0.0481218 326.298C0.0511566 326.297 0.0542105 326.296 0.0572838 326.295C-0.132736 326.323 0.0666986 325.528 1.95093 324.808ZM1090.65 9.4659C1089.13 7.92288 1088.08 9.58722 1084.82 7.86523C1079.96 8.22871 1097.48 10.7122 1099.34 12.3903C1080.64 7.91703 1111.47 16.4069 1098.76 11.6515C1109.39 14.8347 1102.34 12.2889 1104.04 12.4731C1105.86 12.6703 1111.9 14.4532 1111.69 13.9817C1111.69 13.9808 1111.69 13.9799 1111.68 13.9791C1107.95 13.0467 1104.21 12.1546 1100.48 11.2901C1103.93 13.0516 1096.39 10.9734 1093.95 9.6411C1092.84 9.57685 1091.76 9.52262 1090.65 9.4659ZM1111.55 15.3468C1111.19 15.2181 1103.07 13.3511 1103.55 13.6638C1104.6 14.0079 1116.12 16.7671 1111.55 15.3468ZM1147.55 27.2353C1146.66 26.7628 1145.59 26.1545 1144.43 25.5369C1144.39 25.5113 1144.24 25.4472 1144.19 25.4233C1141.76 24.2504 1139.42 23.39 1138.31 23.1936C1139.96 23.8032 1142.13 24.6977 1144.1 25.6231C1144.15 25.6463 1144.29 25.7084 1144.33 25.7332C1145.73 26.4556 1146.87 27.0281 1147.55 27.2353ZM993.694 7.4801C989.899 8.075 1001.68 7.44018 998.244 7.23809C998.079 7.22485 993.882 7.44795 993.694 7.4801ZM1082.17 7.75865C1078.47 6.57917 1080.02 8.10538 1082.88 8.41739C1083.05 8.43549 1082.34 7.81346 1082.17 7.75865ZM6.65766 322.371C6.78133 322.114 15.474 317.372 17.0031 316.381C16.261 317.21 6.53791 322.842 6.65766 322.371ZM1152.25 28.6577C1150.16 27.231 1147.61 25.7907 1144.94 24.5083C1144.89 24.4786 1144.72 24.4042 1144.66 24.3765C1141.21 22.9033 1138.71 22.3591 1138.21 22.1495C1137.33 21.8046 1138.85 21.9507 1138.65 21.8681C1138.15 21.5787 1128.91 18.5797 1128.48 18.5301C1128.15 18.4548 1129.67 19.4916 1127.72 19.0874C1130.29 19.6524 1138.45 22.0632 1144.43 24.899C1144.48 24.9248 1144.64 24.994 1144.69 25.0217C1147.27 26.4007 1148.9 27.2997 1149.16 27.4098C1149.73 27.6382 1145.77 25.0186 1152.24 28.6537C1152.24 28.655 1152.25 28.6564 1152.25 28.6577ZM1136.05 21.2549C1138.28 22.2603 1131.8 20.0727 1130.27 19.5466C1126.85 18.2724 1135.74 21.062 1136.05 21.2549ZM1120.63 16.3166C1119.91 16.0493 1113.33 14.2364 1112.71 14.3661C1115.73 15.4951 1122.26 16.8906 1120.63 16.3166ZM1044.79 4.65428C1043 4.68113 1038.17 4.43511 1037.89 4.71969C1039.66 4.66927 1044.51 4.92642 1044.79 4.65428ZM34.6543 302.191C32.2058 303.614 37.5824 299.741 39.176 298.74C39.3615 298.853 34.8702 302.072 34.6543 302.191ZM1082 5.21835C1081.68 5.12222 1079.34 4.59786 1076.19 3.92882C1075.82 3.84323 1074.72 3.75318 1074.34 3.72772C1067.47 3.37482 1056.93 3.19225 1054.9 3.24604C1056.91 3.41952 1067.56 3.77061 1074.33 4.14004C1074.69 4.16459 1075.76 4.25142 1076.11 4.33394C1079.1 4.97938 1081.31 5.45279 1081.6 5.48794C1081.88 5.52049 1082.13 5.25921 1082 5.21835ZM1126.83 16.4579C1128.83 16.7089 1129.99 17.4932 1130.21 17.5695C1132.56 18.3347 1137.57 19.9904 1136.38 19.9149C1132.16 18.2487 1122.87 15.9782 1126.83 16.4579ZM1043.23 2.79811C1035.99 2.90153 1049.93 3.43148 1048.08 3.00393C1047.97 2.97466 1043.99 2.78513 1043.23 2.79811ZM1084.34 5.63275C1085.95 5.63536 1106.6 10.8183 1109.93 11.7534C1106.84 11.4983 1104.52 10.5048 1100.52 9.55257C1099.44 9.29791 1099.68 9.58653 1099.56 9.55873C1097.68 9.11523 1099.14 9.20148 1097.99 8.92032C1097.27 8.70912 1082.07 5.5378 1084.34 5.63275ZM1127.99 16.565C1129.15 16.6027 1142.41 21.0631 1143.13 21.6566C1147 23.4065 1128.85 16.6307 1127.99 16.565ZM1082.53 4.7145C1084.89 4.56878 1095.09 7.39855 1087.98 6.07124C1087.31 5.94587 1084.52 5.01611 1082.53 4.7145ZM1044 2.13145C1043.63 2.09895 1036.07 1.91899 1035.94 2.15623C1037.04 2.22515 1048.07 2.39485 1044 2.13145ZM1047.91 1.42659C1047.72 1.43009 1049.5 1.88403 1045.96 1.77832C1045.67 1.77177 1045.1 1.26746 1040.64 1.40962C1039.74 1.4394 1038.34 1.7594 1038.44 1.78034C1043.09 2.52661 1057.11 1.34874 1047.91 1.42659ZM1128.31 16.3259C1127.65 15.9482 1129.49 15.9865 1130.95 16.7184C1131.58 17.0348 1130.27 16.9216 1128.31 16.3259ZM1019.98 2.05001C1024.37 1.56575 1010.53 1.79644 1009.83 1.95171C1010.29 2.17043 1019.54 2.08342 1019.98 2.05001ZM38.5443 295.757C38.5416 295.759 38.5388 295.761 38.5361 295.763C41.4773 293.706 39.8503 295.314 40.001 295.216C46.388 291.118 44.3498 291.66 45.2508 290.876C47.1602 289.189 47.4507 290.184 50.6107 287.3C45.2735 292.05 50.2873 287.974 50.6309 288.15C52.061 288.842 42.6238 293.291 39.9731 295.602C39.5924 295.927 42.7239 294.154 41.7752 294.999C38.6231 297.748 27.2888 303.56 38.5443 295.757ZM1132.15 17.0581C1133.79 17.0805 1147.14 22.6522 1143.5 21.4776C1142.7 20.9368 1129.52 16.579 1132.15 17.0581ZM642.721 233.395C645.571 233.006 639.056 231.975 637.836 232.296C637.216 232.47 641.468 233.576 642.721 233.395ZM598.726 224.413C595.59 223.731 591.663 225.084 595.678 225.799C596.109 225.876 599.012 224.825 598.726 224.413ZM807.136 178.876C803.882 180.015 804.787 181.036 806.866 179.752C807.618 179.281 807.237 178.839 807.136 178.876ZM678.767 229.582C678.411 229.63 674.654 230.648 674.887 230.938C676.324 230.83 680.994 229.376 678.767 229.582ZM807.933 178.153C806.398 179.395 809.794 178.445 811.269 176.313C810.288 177.066 808.1 178.022 807.933 178.153ZM1072.81 1.22761C1070.87 1.44678 1065.36 1.07975 1062.23 1.02389C1061.88 0.55552 1070.54 1.16134 1072.81 1.22761ZM611.946 228.296C608.814 228.306 615.238 229.98 614.767 229.098C614.688 229.046 612.068 228.298 611.946 228.296ZM869.036 89.4544C868.277 91.8684 872.225 84.9355 870.665 86.6248C870.6 86.6988 869.084 89.3102 869.036 89.4544ZM884.077 58.3719C883.135 60.1059 879.765 67.3919 881.416 64.7038C881.646 64.3481 884.311 58.652 884.077 58.3719ZM45.2238 290.435C44.1192 290.612 48.9389 287.126 49.6104 286.724C49.9136 286.555 46.6436 290.234 45.2238 290.435ZM787.433 189.462C785.887 190.329 781.412 192.227 780.85 192.911C782.803 191.946 788.38 189.884 787.433 189.462ZM625.877 230.441C623.285 229.211 618.752 228.617 619.709 229.976C624.767 230.615 619.205 228.855 625.877 230.441ZM816.309 171.404C815.201 172.157 815.022 173.5 815.161 173.46C816.566 173.004 817.6 170.915 816.309 171.404ZM715.551 217.582C715.308 217.178 710.69 218.987 711.419 219.053C711.658 219.08 715.747 217.914 715.551 217.582ZM1004.89 0.515166C1002.49 0.326993 1009.75 -0.192529 1011.91 0.0750322C1012.98 0.489864 1005.2 0.525383 1004.89 0.515166ZM839.159 145.957C838.729 145.573 835.586 151.358 837.377 149.407C837.826 148.943 839.3 146.133 839.159 145.957ZM872.593 79.5444C870.937 84.5633 880.868 64.808 877.625 69.7197C877.383 70.1199 872.781 79.0416 872.593 79.5444ZM888.656 46.6098C888.167 47.4699 886.724 46.313 889.209 42.8792C889.539 42.4165 888.796 44.951 889.104 44.576C889.206 44.3987 893.757 36.2139 894.163 35.6C894.378 35.138 893.584 35.3845 893.79 34.9067C893.985 34.3855 897.925 28.7866 900.954 25.3853C906.528 19.1892 907.482 18.5928 907.908 18.1043C908.37 17.7447 908.945 17.3453 909.61 16.9177C911.507 15.6617 913.986 14.3787 916.351 13.2323C932.906 5.57735 951.611 3.50317 962.133 2.99452C952.984 3.72101 944.45 5.34416 934.918 7.7138C937.635 5.93259 920.66 12.3981 930.569 8.45583C928.527 9.42423 921.942 9.88702 910.122 17.6092C893.33 30.7409 890.225 45.4149 888.661 46.5999C888.659 46.6032 888.658 46.6065 888.656 46.6098ZM586.656 220.225C588.789 220.044 579.068 217.018 577.922 217.6C579.149 218.225 586.401 220.275 586.656 220.225ZM632.849 227.531C633.814 227.472 634.821 225.968 639.783 227.17C639.788 227.17 639.792 227.171 639.797 227.171C641.261 227.516 639.556 227.792 639.819 227.953C639.914 228.024 644.495 229.13 640.65 229.009C634.788 228.782 640.158 227.768 637.065 227.51C636.677 227.493 630.791 227.821 631.11 228.036C631.141 228.064 632.916 228.055 633.197 228.161C634.265 228.567 633.695 229.024 633.847 229.063C634.341 229.209 643.706 229.037 645.079 229.823C645.468 230.177 630.103 229.566 629.561 229.267C629.196 229.147 629.486 227.753 629.118 227.571C628.919 227.497 622.848 227.271 622.094 227.01C621.874 226.94 621.708 226.875 621.586 226.823C622.433 227.402 617.031 226.544 617.279 226.065C617.397 225.894 621.082 226.585 621.216 226.631C621.272 226.654 621.32 226.681 621.365 226.702C620.637 226.128 633.316 227.695 630.652 226.56C634.388 226.51 630.02 227.671 632.849 227.531ZM650.999 227.843C650.602 227.977 650.207 228.109 649.812 228.242C652.483 228.201 655.336 228.306 658.333 228.433C660.164 228.649 663.629 228.601 667.428 227.915C669.05 227.621 666.978 227.103 669.198 226.929C670.965 226.786 673.213 227.119 672.255 227.52C672.019 227.629 668.22 227.875 666.575 228.184C661.744 229.085 663.215 229.573 662.901 229.655C662.58 229.728 659.86 229.415 658.891 229.401C658.683 229.405 658.5 229.408 658.336 229.411C653.71 229.438 651.073 229.757 644.394 228.835C648.597 228.538 646.332 227.329 650.999 227.843ZM852.908 116.394C852.699 115.946 855.128 112.035 855.898 110.408C856.111 110.853 853.656 114.838 852.908 116.394ZM208.437 150.263C208.127 151.049 209.171 150.193 214.429 147.159C219.138 144.613 223.355 142.942 220.575 143.648C219.956 143.823 217.149 144.934 214.115 146.602C212.356 147.577 211.081 148.425 210.281 148.961C209.851 149.252 209.457 149.527 209.142 149.751C208.862 149.951 208.624 150.124 208.437 150.263ZM273.623 133.671C275.256 133.334 268.611 133.084 268.674 133.776C268.681 133.984 273.448 133.703 273.623 133.671ZM731.23 208.332C731.49 208.215 735.296 207.032 735.444 207.018C738.224 206.874 725.632 210.884 731.23 208.332ZM338.171 134.206C332.707 134.287 348.98 136.032 344.07 134.842C343.824 134.776 338.438 134.196 338.171 134.206ZM360.823 136.462C359.526 136.32 353.804 135.357 353.698 135.619C353.538 136.026 360.08 137.101 360.823 136.462ZM815.366 168.823C814.526 168.506 819.351 165.508 820.652 164.163C821.57 164.431 816.927 167.59 815.366 168.823ZM780.725 187.894C805.169 175.119 800.72 179.499 779.405 188.935C779.143 188.478 779.17 188.652 780.725 187.894ZM810.731 171.545C810.328 172.438 807.777 173.953 806.119 174.928C806.218 174.465 809.705 172.375 810.731 171.545ZM195.831 159.101C196.701 157.248 204.432 151.896 203.453 153.176C202.989 153.594 195.474 159.96 195.831 159.101ZM733.333 206.81C732.637 206.414 737.1 204.845 739.836 203.993C740.801 203.694 741.528 203.493 741.714 203.477C742.89 203.373 741.794 203.85 740.024 204.482C737.48 205.391 733.706 206.564 733.333 206.81ZM836.291 144.112C836.474 142.679 838.726 139.239 840.102 136.675C839.905 138.081 837.361 142.324 836.291 144.112ZM826.632 157.047C826.71 156.948 828.639 154.74 828.729 154.646C830.734 153.141 825.25 159.413 826.632 157.047ZM32.5808 295.367C32.7138 295.256 35.0855 293.457 35.1857 293.399C37.5426 292.086 30.254 297.562 32.5808 295.367Z" fill="#613096"/>
</g>
<defs>
<filter id="filter0_n_2851_42" x="0" y="0" width="1165.16" height="327.433" filterUnits="userSpaceOnUse" color-interpolation-filters="sRGB">
<feFlood flood-opacity="0" result="BackgroundImageFix"/>
<feBlend mode="normal" in="SourceGraphic" in2="BackgroundImageFix" result="shape"/>
<feTurbulence type="fractalNoise" baseFrequency="0.33783784508705139 0.33783784508705139" stitchTiles="stitch" numOctaves="3" result="noise" seed="2140" />
<feColorMatrix in="noise" type="luminanceToAlpha" result="alphaNoise" />
<feComponentTransfer in="alphaNoise" result="coloredNoise1">
<feFuncA type="discrete" tableValues="1 1 1 1 1 1 1 1 1 1 1 1 1 1 1 1 1 1 1 1 1 1 1 1 1 1 1 1 1 1 1 1 1 1 1 1 1 1 1 1 1 1 1 1 1 1 1 1 1 1 1 0 0 0 0 0 0 0 0 0 0 0 0 0 0 0 0 0 0 0 0 0 0 0 0 0 0 0 0 0 0 0 0 0 0 0 0 0 0 0 0 0 0 0 0 0 0 0 0 0 "/>
</feComponentTransfer>
<feComposite operator="in" in2="shape" in="coloredNoise1" result="noise1Clipped" />
<feFlood flood-color="rgba(0, 0, 0, 0.25)" result="color1Flood" />
<feComposite operator="in" in2="noise1Clipped" in="color1Flood" result="color1" />
<feMerge result="effect1_noise_2851_42">
<feMergeNode in="shape" />
<feMergeNode in="color1" />
</feMerge>
</filter>
</defs>
</svg>
