<svg width="1246" height="267" viewBox="0 0 1246 267" fill="none" xmlns="http://www.w3.org/2000/svg">
<g filter="url(#filter0_n_2851_53)">
<path d="M108.412 47.9487C109.139 47.9585 111.985 48.4897 113.177 48.6678C111.811 49.0833 105.837 47.8775 108.412 47.9487ZM255.462 78.3489C254.272 77.8574 253.094 77.3734 251.923 76.8941C254.807 78.9073 258.971 81.3756 261.647 83.3489C262.087 83.6748 260.521 83.4526 261.595 84.1778C262.676 84.9079 262.963 84.0189 264.579 84.9407C266.387 85.9717 274.156 91.7292 276.918 93.501C287.398 100.208 298.241 106.653 308.428 113.84C297.272 107.31 307.745 115.043 310.915 116.79C311.574 117.153 312.318 115.887 320.572 121.485C321.267 121.958 322.014 122.477 322.818 123.048C326.926 125.944 325.014 126.128 326.816 127.706C327.652 128.433 329.388 129.521 332.953 131.193C325.788 124.777 333.644 129.869 340.001 133.345C341.093 133.997 349.83 138.951 353.81 140.657C355.159 141.263 357.605 141.381 359.376 142.12C360.62 142.64 361.353 143.493 363.194 144.215C371.782 147.572 380.247 150.193 389.106 152.335C383.385 153.425 393.004 154.223 393.428 154.356C395.467 155.433 385.678 153.567 389.451 154.772C394.853 155.868 400.346 156.701 405.982 157.307C401.417 156.473 412.279 156.091 414.264 156.941C413.809 155.645 423.907 157.451 433.303 158.339C432.845 158.611 434.191 158.761 435.404 158.652C436.658 158.556 437.896 158.295 438.452 158.027C438.76 157.878 437.79 157.817 437.99 157.55C438.242 157.244 439.314 156.986 445.206 155.371C446.496 155.009 446.224 155.74 446.871 155.467C447.265 155.302 449.092 152.64 452.193 152.658C453.387 152.596 447.184 156.407 461.431 150.387C454.81 150.983 481.406 141.094 486.67 139.183C485.566 139.377 484.508 139.549 483.396 139.742C488.554 138.28 489.164 137.274 490.288 136.822C491.526 136.321 492.877 135.813 494.33 135.272C497.578 134.115 501.191 132.751 503.74 131.398C507.85 129.189 507.268 128.138 512.297 125.849C511.025 126.266 509.754 126.67 508.489 127.058C511.824 125.305 515.159 123.442 518.492 121.48C511.677 127.448 520.191 120.569 520.775 120.12C521.72 119.46 520.669 120.893 522.26 119.796C522.421 119.675 521.845 119.324 524.318 117.654C529.486 114.122 529.092 115.271 531.294 113.782C531.493 113.636 530.472 113.685 534.2 110.952C546.044 102.079 534.389 111.374 533.965 111.723C533.409 112.199 538.914 111.337 528.115 117.604C531.73 115.522 532.664 116.1 533.07 115.859C533.43 115.66 539.365 111.347 539.675 111.064C542.426 108.673 539.415 109.968 539.917 109.455C540.323 109.067 548.107 104.508 548.534 101.554C553.169 100.473 547.604 104.494 541.974 108.921C541.36 109.867 547.975 105.515 548.312 105.245C556.555 99.0646 551.022 101.225 552.204 99.0704C552.824 97.9383 556.841 96.2276 552.873 97.4713C560.258 91.6329 556.232 95.7438 556.789 95.4737C557.628 95.0553 560.004 92.7029 560.366 92.4885C560.9 92.1749 559.522 93.866 561.538 92.5173C561.871 92.2892 564.419 89.2385 560.206 92.0079C565.574 87.9794 564.696 87.7441 567.407 87.4526C569.368 82.4379 571.091 86.6035 572.638 85.5764C576.766 82.8244 574.299 82.0503 574.438 81.808C575.19 80.569 581.881 75.6587 586.249 72.2941C587.823 71.0744 589.119 70.0746 589.83 69.4484C589.717 70.2235 588.38 71.4251 586.637 72.7783C583.935 74.8637 580.098 77.189 579.145 78.1839C574.13 83.404 587.588 72.5033 584.696 77.2371C585.602 76.0849 586.519 74.9258 587.434 73.7728C588.009 73.0864 588.587 72.4048 589.168 71.728C593.612 69.9671 588.567 74.185 598.466 66.5962C599.506 64.5314 591.37 71.852 592.656 69.918C593.354 68.7445 599.275 64.477 599.287 64.1956C599.193 63.8521 593.991 67.9272 594.563 66.9538C595.558 64.5837 617.168 52.436 601.537 62.8183C605.91 59.9745 609.28 60.3558 612.918 57.5906C615.426 55.8883 598.944 61.1017 621.801 50.0361C622.673 50.6066 612.819 54.7719 612.664 55.0367C612.382 55.3106 615.107 56.3124 615.448 56.2559C616.35 55.6182 639.568 44.3742 645.155 44.4836C642.78 43.6283 663.358 39.6415 665.377 39.2203C665.943 39.0158 663.621 38.6563 664.23 38.4681C668.06 37.2426 678.634 37.1682 683.274 36.804C688.5 36.3504 687.782 35.7954 688.074 35.7653C690.372 35.6176 688.582 36.1984 689.972 36.0892C692.154 35.8483 706.37 35.226 707.035 35.1633C707.243 35.1283 704.89 34.4775 707.978 34.2338C708.517 34.2039 708.227 35.0257 717.209 34.4733C727.985 33.8588 709.675 33.5327 714.127 32.5569C721.144 33.7085 720.832 32.465 722.727 32.5413C723.253 32.5643 726.173 33.1803 729.919 33.4378C731.17 33.5133 732.486 33.5641 733.816 33.5654C732.528 33.6035 731.23 33.6522 729.923 33.7116C727.311 33.8375 724.821 33.9706 722.196 34.1194C724.212 34.198 727.102 34.1584 729.931 34.1443C732.639 34.1258 735.153 34.1711 736.679 34.3088C738.329 34.4593 736.974 35.2846 740.517 35.3934C741.259 35.4393 744.321 33.3272 734.99 34.0406C734.241 33.257 738.67 33.8445 740.74 33.7298C741.065 33.7118 742.271 32.4779 744.944 33.4335C745.571 33.7667 738.447 36.6172 756.45 35.6912C757.04 35.6737 755.067 34.9776 755.644 34.9483C756.038 34.914 760.646 35.6955 761.14 35.716C761.667 35.7193 759.521 34.9077 760.148 34.896C763.375 34.8349 767.304 37.4785 760.771 36.3313C762.894 36.8825 765.098 37.4841 767.195 38.1103C765.098 36.2143 770.733 38.2948 773.713 38.9271C793.089 43.4221 780.407 39.2952 783.854 39.6428C789.435 40.4627 784.664 41.5769 792.726 43.4497C793.438 43.744 784.468 38.9827 802.519 46.6292C799.828 45.5419 797.148 44.5426 794.401 43.6024C795.529 45.4516 804.138 47.2849 804.744 47.5936C811.784 50.6249 806.985 48.7373 817.317 53.302C818.221 53.7174 819.991 55.0923 821.9 56.0093C829.922 59.8352 811.934 49.8162 811.472 49.2719C811.56 48.629 830.872 59.7679 831.135 60.4881C833.508 62.6789 822.664 55.4047 824.381 57.378C825.549 57.7582 850.337 74.9213 853.914 78.7621C858.688 83.1067 859.613 86.3082 860.951 84.7252C861.024 87.4324 863.061 87.3331 863.649 87.8454C867.875 91.5319 869.512 92.9499 871.481 94.5428C872.917 95.7004 874.5 96.9388 877.117 98.9935C878.533 100.106 879.374 101.583 879.933 101.913C880.261 102.105 880.12 101.15 881.665 102.172C883.785 103.557 895.194 113.992 895.819 114.998C896.478 116.01 890.759 110.927 891.44 112.259C895.647 115.871 899.773 119.184 903.943 122.832C905.691 124.364 904.531 123.895 905.286 124.552C905.609 124.829 911.86 129.754 911.701 129.429C911.322 128.602 892.464 112.818 897.833 116.476C898.889 117.193 901.666 120.773 901.839 119.447C918.39 133.916 934.734 148.718 950.732 163.615C940.946 155.769 930.828 145.76 920.808 137.078C919.464 135.908 914.896 131.786 915.097 132.702C923.525 140.206 934.117 149.217 941.915 156.72C942.166 156.962 940.901 156.473 941.821 157.403C943.53 159.124 949.851 163.805 950.691 164.844C950.806 165.01 947.126 162.521 947.859 163.727C949.721 166.799 951.949 165.752 954.099 167.755C955.844 169.368 966.536 180.65 969.812 182.765C973.288 184.998 961.735 174.737 962.918 175.029C971.112 181.765 978.416 189.459 985.639 195.992C985.767 196.107 984.945 194.744 986.615 196.19C989.415 198.609 989.716 199.728 990.972 200.987C991.535 201.559 992.94 202.82 994.174 203.892C995.388 204.97 996.404 205.713 995.559 205.298C995.596 205.343 995.626 205.384 995.641 205.418C995.65 205.437 995.548 205.481 995.422 205.53C995.653 205.879 995.451 206.033 995.405 206.008C994.964 205.812 994.274 205.07 993.97 204.587C993.677 204.113 993.57 203.751 993.483 203.669C992.758 203.007 991.958 202.711 991.238 202.052C990.215 201.099 989.712 200.266 988.267 198.919C987.223 197.947 987.864 199.28 986.882 198.352C986.555 198.046 983.383 193.4 982.113 194.003C982.034 194.061 983.783 195.823 986.581 198.501C987.983 199.841 989.614 201.38 991.318 202.94C992.164 203.714 993.065 204.521 993.832 205.192C994.27 205.57 994.569 205.833 994.898 206.108C995.154 206.335 995.422 206.523 994.976 206.281C999.93 209.862 1014.2 213.544 1015.91 213.796C1012.46 212.77 1009.07 211.671 1005.95 210.504C1012.28 212.963 1021.36 214.029 1021.64 215.566C1048.83 221.734 1077.92 225.708 1106.73 229.757C1111.9 230.557 1108.95 230.972 1117.51 231.862C1115.32 231.322 1113.15 230.781 1111 230.237C1115.29 231.004 1134.66 233.868 1137.77 234.11C1138.17 234.142 1138.84 233.536 1143.66 234.111C1147.96 234.624 1148.61 235.216 1150.88 235.608C1152.8 235.937 1154.99 236.09 1155.56 236.192C1155.7 236.217 1155.81 236.266 1155.93 236.327C1156.18 236.461 1156.47 236.654 1157.19 236.782C1160.43 237.357 1157.87 236.184 1161.03 237.553C1160.24 237.494 1159.43 237.431 1158.64 237.369C1162.58 238.01 1167.95 239.054 1162.1 238.594C1161.09 238.513 1161.98 238.326 1161.24 238.238C1159.17 237.994 1157.39 237.776 1155.8 237.583C1140.85 235.76 1147.26 236.844 1155.77 237.906C1159.15 238.331 1162.84 238.723 1165.58 238.912C1168.2 239.692 1182.9 240.803 1183.38 240.862C1184.06 241.028 1181.53 241.172 1184.81 241.691C1185.56 241.959 1204.91 242.372 1197.96 242.684C1196.53 242.808 1187.18 242.261 1184.91 242.081C1190.25 243.386 1202.64 242.468 1203.93 242.406C1209.46 242.485 1193.33 243.188 1205.79 243.181C1215.2 242.866 1206.35 242.717 1209.93 242.314C1210.91 242.198 1213.99 242.113 1216.61 241.773C1219.21 241.46 1220.97 240.873 1220.73 240.552C1221.88 240.167 1221.99 240.165 1222.04 240.252C1222.07 240.34 1221.89 240.519 1222.01 240.488C1222.12 240.468 1223.01 240.042 1223.31 239.797C1223.47 239.669 1223.54 239.624 1223.7 239.432C1223.86 239.25 1224.12 238.826 1224.41 238.309C1224.5 238.157 1224.57 238.023 1224.64 237.908C1224.76 237.708 1224.78 238.519 1224.91 238.317C1225.37 237.87 1226.93 233.05 1226.84 232.61C1226.85 232.473 1226.24 233.732 1226.28 233.177C1226.33 232.819 1226.76 230.699 1226.96 228.704C1227.11 227.381 1227.2 226.199 1227.18 226.048C1227.14 225.821 1227.01 227.23 1226.81 228.691C1226.56 230.663 1226.11 232.567 1226.03 231.888C1226.23 231.009 1226.4 229.896 1226.52 228.665C1226.84 225.509 1226.88 221.607 1226.78 219.732C1226.83 220.382 1226.61 224.183 1226.47 225.438C1226.04 224.877 1226.51 216.679 1226.75 219.49C1226.63 217.692 1226.45 218.915 1226.3 217.899C1226.27 217.634 1226.37 215.062 1226.3 214.56C1226.29 214.498 1225.99 217.153 1225.91 216.618C1225.78 215.678 1226.13 207.783 1226.19 207.117C1226.39 205.287 1226.32 211.767 1226.5 212.294C1226.54 212.378 1227.13 206.882 1227.17 206.791C1227.56 206.477 1227.08 212.595 1227.45 211.895C1227.57 210.387 1227.7 208.874 1227.82 207.354C1228.01 213.25 1227.38 223.861 1227.51 226.389C1228.04 218.267 1228.2 209.04 1229.11 209.093C1229.49 209.102 1229.61 212.836 1229.71 212.691C1230.07 212.149 1229.83 206.954 1229.85 206.758C1229.88 206.6 1229.9 206.528 1229.92 206.528C1230.12 206.537 1230.08 213.933 1230.15 214.293C1230.3 214.917 1231.07 211.64 1231.21 211.645C1231.24 211.763 1231.27 217.01 1231.58 215.243C1231.89 213.46 1231.99 208.843 1232.01 208.68C1232.19 207.803 1232.17 215.869 1232.25 216.101C1232.3 216.232 1232.68 211.911 1232.77 211.783C1232.85 211.676 1232.97 214.968 1233.21 216.264C1233.38 217.232 1233.59 214.422 1233.61 214.916C1233.64 215.278 1233.43 222.86 1233.42 223.221C1233.45 223.775 1233.76 222.017 1233.81 222.276C1233.89 222.647 1233.69 225.073 1233.79 224.762C1233.92 224.551 1235 215.053 1235.19 215.105C1235.57 215.22 1234.5 225.321 1236.16 215.929C1236.17 215.864 1236.09 213.566 1236.1 213.502C1236.37 212.085 1236.73 219.456 1236.72 210.448C1237.03 227.215 1237.27 212.54 1237.87 215.025C1238.11 215.983 1238.11 222.512 1238.13 222.547C1238.46 221.92 1238.26 219.83 1238.42 219.126C1238.52 218.733 1238.72 224.607 1238.96 223.295C1239.11 222.607 1239.15 216.391 1239.16 216.138C1239.36 213.688 1239.57 216.698 1239.71 216.161C1239.81 215.802 1239.81 212.064 1239.82 211.967C1239.86 211.808 1240.25 216.89 1240.37 217.96C1240.48 218.77 1240.65 215.74 1240.69 216.304C1240.98 219.693 1240.14 226.977 1241.22 219.981C1241.29 219.553 1241.27 216.912 1241.28 216.834C1241.55 215.208 1241.58 220.066 1241.79 220.955C1242.17 222.467 1241.99 215.43 1242.23 221.285C1242.52 216.896 1242.47 214.471 1242.34 209.41C1242.68 223.449 1243.64 228.594 1243.54 212.822C1243.58 217.8 1244.13 217.267 1244.15 218.765C1244.19 219.676 1243.51 227.077 1244.84 223.716C1245.02 223.281 1244.82 218.802 1245.14 220.211C1244.98 231.043 1245.37 220.421 1245.39 220.434C1245.67 220.522 1245.87 224.587 1245.54 230.314C1245.36 234.857 1244.05 241.846 1241.72 246.495C1240.88 248.416 1239.31 251.075 1237.67 252.816C1236.03 254.607 1234.55 255.655 1233.71 256.246C1226.49 260.894 1221.5 261.71 1220.08 262.176C1220.07 262.179 1220.05 262.182 1220.04 262.184C1215.94 262.933 1219.29 261.986 1218.36 262.029C1217.36 262.231 1206.17 264.08 1205.67 263.977C1203.51 263.971 1205.68 263.421 1205.45 263.415C1202.76 263.467 1188.27 264.042 1184.3 263.777C1184.43 264.079 1192.47 264.148 1187.43 264.563C1181.53 265.023 1181.28 263.746 1181.12 263.694C1171.76 263.449 1162.54 262.907 1153.32 262.213C1136.44 260.943 1119.65 259.679 1102.73 258.286C1102.97 259.086 1120.01 259.867 1120.38 259.991C1122.6 260.757 1093.91 258.479 1090.4 257.862C1093.08 258.263 1095.72 258.653 1098.38 259.04C1093.75 259.564 1083.71 257.54 1077.05 257.327C1074.89 257.263 1078.96 257.991 1078.88 258.007C1076.41 258.146 1072.62 257.521 1075.54 257.304C1069.61 257.219 1070.54 256.791 1066.02 256.312C1065.79 256.287 1067.69 256.855 1064.08 256.659C1062.43 256.579 1053.47 255.649 1052.2 255.843C1051.67 255.934 1056.07 257.903 1056.77 256.681C1066.46 258.29 1059.96 256.421 1063.73 256.829C1064.29 256.886 1062.94 257.488 1072.44 258.041C1070.46 259.136 1059.67 257.154 1057.73 257.093C1053.8 257.035 1069.72 259.262 1072.76 258.524C1071.27 259.376 1073.88 258.761 1077.41 259.114C1081.32 259.5 1079.59 259.639 1081.67 259.819C1087.41 260.31 1085.14 259.442 1089.77 260.435C1085.38 258.182 1097.89 260.863 1101.56 261.613C1095.5 261.239 1089.5 260.858 1083.43 260.447C1083.77 260.575 1084.1 260.703 1084.44 260.831C1082.84 260.685 1081.27 260.539 1079.68 260.39C1079.95 260.317 1080.22 260.242 1080.48 260.168C1072.18 260.089 1070.26 259.188 1069.59 259.12C1060.96 258.247 1051.02 257.256 1042.18 256.209C1040.83 256.036 1041.71 256.869 1032.09 255.097C1029 254.51 1032.01 254.391 1028.5 253.986C1023.87 254.781 1024.12 253.646 1022.83 253.452C1019.02 252.872 1016.7 252.841 1016.31 252.781C1011.63 252.064 1004.67 250.693 999.266 249.449C999.181 249.436 1001.86 250.538 998.369 249.571C997.038 249.018 987.378 245.604 975.179 239.652C975.006 239.557 974.839 239.465 974.678 239.375C974.834 239.474 974.995 239.576 975.163 239.679C978.13 241.523 981.023 242.926 983.6 244.064C982.512 243.554 979.277 242.401 974.954 240.032C971.551 238.009 970.499 237.14 968.847 235.991C967.404 234.963 966.187 234.085 965.148 233.35C963.245 232.021 962.179 231.375 963.378 232.582C965.491 234.662 971.168 237.853 974.476 240.837C974.552 240.941 974.603 241.038 974.625 241.127C974.55 241.081 974.471 241.033 974.39 240.982C963.029 233.314 939.91 213.428 937.251 211.106C936.99 210.831 939.038 211.987 938.678 211.617C938.401 211.329 932.233 206.312 931.524 205.509C931.108 205.034 933.981 207.088 933.858 206.784C933.759 206.556 926.218 200.03 925.432 200.09C927.474 201.499 932.563 205.983 929.531 204.052C929.148 203.807 927.54 202.017 927.051 201.705C922.6 198.873 934.668 208.683 936.545 210.269C928.531 204.465 917.466 194.247 908.405 187.466C905.161 184.223 914.095 191.197 910.357 187.651C902.555 180.258 907.698 186.309 907.424 186.161C905.072 184.852 899.654 177.212 898.405 178.686C895.534 176.001 896.719 176.637 892.263 173.391C892.743 173.948 893.221 174.503 893.696 175.056C888.214 172.104 879.983 161.94 880.856 162.344C883.299 163.523 887.923 168.375 888.402 168.731C889.084 169.233 892.198 169.179 898.275 176.348C902.082 177.723 887.364 166.412 894.537 171.03C890.026 167.546 872.296 152.292 869.22 150.688C868.851 150.501 869.479 152.712 865.364 148.633C863.405 146.691 868.635 150.738 867.838 149.725C866.609 148.16 855.453 139.343 843.475 130.361C831.034 120.874 819.279 111.926 815.455 109.392C814.962 109.045 815.407 108.811 814.919 108.473C813.415 107.402 807.63 104.316 805.093 102.554C810.125 106.659 799.454 100.088 796.759 98.7284C792.676 96.4565 793.28 95.917 791.536 94.897C784.737 90.8521 772.873 89.1791 767.37 86.2797C767.353 88.0499 757.247 83.4211 752.088 83.0486C748.144 82.646 742.259 83.6168 747.568 84.6424C742.127 84.2266 736.34 84.3775 730.84 84.7048C729.343 84.7872 727.893 84.8677 726.495 84.9407C725.325 85.0025 726.938 84.3912 724.921 84.5155C724.739 84.5312 724.49 85.0802 722.772 85.2058C708.703 86.3162 715.494 84.8711 712.853 84.6555C711.383 84.546 710.305 84.5158 709.501 84.5338C717.654 83.9143 727.22 83.3844 729.808 83.2898C727.576 82.1305 711.409 84.2237 706.83 84.275C706.669 84.2738 707.189 83.5725 707.027 83.5786C707.023 83.5788 707.02 83.579 707.017 83.5793C705.22 83.6028 694.336 84.7895 696.645 85.3989C697.276 85.5527 702.231 85.0801 708.294 84.6251C706.67 84.8798 707.928 85.5444 707.642 85.5948C704.146 86.1714 695.664 86.1642 692.741 86.411C692.062 86.4632 692.158 86.9375 692.048 86.9509C689.378 87.1475 690.332 85.6448 687.763 87.3982C682.764 86.2773 696.753 86.0707 695.707 85.1288C694.534 83.8987 664.673 89.3109 665.608 91.1754C665.478 91.0588 665.055 90.9815 664.221 90.9968C662.345 90.9641 654.911 93.5611 653.795 94.3365C653.602 94.4639 654.149 95.6883 653.896 95.7991C653.244 95.99 644.246 98.7486 641.571 101.246C643.314 100.516 645.072 99.8332 646.839 99.2013C636.751 104.308 638.616 104.106 642.062 102.554C642.228 102.467 642.412 102.426 642.572 102.346C645.262 101.216 648.714 99.9266 648.808 100.007C649.011 99.9198 632.702 109.582 635.211 106.775C635.55 106.258 643.496 102.282 639.257 103.704C638.491 103.923 633.728 107.21 633.426 107.331C631.3 107.805 641.692 100.427 639.97 100.475C637.693 102.74 634.072 104.404 631.192 106.642C629.893 107.651 629.943 108.458 629.783 108.584C627.406 110.494 628.388 108.919 627.569 109.531C627.106 109.842 623.191 114.78 622.83 112.412C621.893 113.272 621.053 114.065 620.307 114.786C611.677 123.014 614.897 120.715 621.055 115.719C623.444 113.78 626.302 111.527 629.076 109.503C627.337 111.349 624.113 113.816 621.353 116.091C619.695 117.447 618.172 118.692 617.153 119.611C616.105 120.557 617.189 120.577 615.441 122.201C611.907 125.51 592.907 140.101 587.684 143.886C590.587 141.263 589.216 141.361 586.888 143.27C584.551 145.179 587.178 144.433 586.784 144.885C586.399 145.381 574.789 153.703 572.888 155.215C581.323 148.414 578.917 149.276 571.51 154.692C572.448 153.721 573.38 152.748 574.306 151.773C570.231 155.274 560.247 160.911 557.804 162.954C557.426 163.281 559.266 162.823 559.054 163.007C556.951 164.832 548.613 169.462 548.334 169.869C548.117 170.234 551.846 168.506 550.719 169.552C550.481 169.774 546.703 171.139 543.48 173.341C542.282 174.16 543.348 174.247 543.054 174.467C540.58 176.288 541.622 174.48 536.858 177.416C533.347 179.545 531.138 181.954 525.83 184.261C543.119 176.596 529.009 183.702 521.911 187.488C521.053 187.947 521.699 188.392 518.937 189.759C518.131 190.158 517.005 190.637 515.432 191.206C516.844 190.3 517.897 189.601 518.632 189.084C521.061 187.426 520.337 187.559 518.337 188.43C515.439 189.681 509.559 192.666 507.631 193.515C507.434 193.595 507.053 192.938 505.317 193.702C505.167 193.769 505.6 194.137 503.989 194.899C488.692 202.045 498.335 197.159 495.204 197.982C493.864 198.341 486.529 202.25 484.412 203.123C483.925 203.324 483.977 202.729 482.094 203.517C478.802 204.896 475.985 206.606 473.721 207.511C473.449 207.61 473.186 206.838 468.902 208.687C467.685 209.207 466.404 209.975 468.237 209.584C474.449 208.261 484.425 202.761 490.752 200.908C496.608 199.232 479.055 206.679 477.982 207.006C477.645 207.142 481.018 205.363 477.392 206.701C474.287 207.846 469.061 211.388 463.882 212.761C463.529 212.867 459.03 212.993 459.189 212.857C459.426 212.759 465.478 210.496 464.47 210.44C464.358 210.445 460.446 211.734 459.84 211.631C459.078 211.53 456.471 208.985 455.571 209.158C453.303 209.595 454.943 209.89 453.456 210.246C450.591 211.156 437.722 212.424 436.788 213.303C439.306 213.201 441.584 212.966 443.749 212.669C437.733 213.707 435.229 213.753 434.782 213.96C434.229 214.133 435.334 214.275 434.239 214.406C433.463 214.495 433.005 214.437 432.563 214.322C432.032 214.089 431.534 213.626 429.456 213.53C428.813 213.555 415.707 213.285 415.898 213.648C423.228 213.359 420.454 214.41 420.795 214.456C422.064 214.585 423.724 213.966 425.412 214.025C437.301 214.374 425.295 215.208 428.092 215.537C429.059 215.65 430.992 215.101 431.401 215.135C431.963 215.182 432.29 215.344 432.547 215.511C433.162 215.741 433.557 215.98 434.445 215.926C437.873 215.659 433.858 214.744 434.108 214.666C437.522 214.116 447.26 213.372 441.277 215.443C445.13 215.32 445.228 213.824 448.001 213.835C453.378 213.766 445.699 215.262 443.188 215.762C439.349 216.651 436.299 216.969 432.528 216.931C430.006 216.886 427.275 216.742 422.372 216.678C419.153 216.637 415.255 217.119 413.727 217.06C412.761 217.063 403.922 213.952 403.269 217.622C399.718 216.926 394.423 213.792 390.753 213.343C387.439 212.941 388.273 214.406 387.957 214.411C387.47 214.423 383.471 213.636 382.079 213.555C380.445 213.47 381.139 214.127 378.569 213.824C372.148 213.01 372.633 211.652 372.007 211.43C364.818 208.623 367.588 211.267 365.898 211.001C364.217 210.983 343.274 203.418 338.93 201.849C340.794 202.311 342.65 202.746 344.51 203.158C341.671 201.183 337.837 201.097 338.37 199.668C336.787 201.701 331.035 197.433 329.16 196.608C328.412 196.292 328.293 196.7 327.359 196.283C323.683 194.691 315.873 190.313 313.937 189.475C305.3 185.917 325.591 198.389 327.501 199.086C323.913 197.64 304.872 188.099 312.944 193.749C314.181 194.619 317.12 194.902 317.887 195.242C323.189 197.595 318.673 196.428 319.03 196.714C319.67 197.212 323.512 198.034 324.383 198.566C324.675 198.737 322.309 198.637 327.368 201.008C324.393 200.732 310.831 193.034 309.023 192.146C308.387 191.834 311.323 195.761 300.835 187.614C300.878 187.839 300.922 188.065 300.966 188.29C297.893 186.519 294.915 184.738 291.96 182.912C288.979 181.071 286.08 179.216 283.155 177.284C282.956 177.153 282.757 177.021 282.558 176.89C282.724 176.905 283.002 176.976 283.307 177.058C284.464 177.404 285.967 177.902 283.733 176.423C283.507 176.272 283.239 176.1 282.924 175.904C280.638 174.477 281.798 176.324 281.58 176.208C279.427 175.145 244.516 150.746 237.82 145.987C235.466 144.365 228.733 140.404 228.233 140.056C225.296 138.046 215.304 130.252 213.185 128.81C211.875 127.927 212.688 129.395 211.572 128.535C210.54 127.737 212.011 127.975 211.716 127.723C209.23 125.658 189.023 111.661 184.725 107.492C187.471 109.89 202.479 119.512 202.48 118.886C202.485 118.808 199.241 115.767 198.409 115.452C197.572 114.112 192.539 112.519 190.483 110.526C190.253 110.302 191.802 110.259 187.965 107.124C186.627 106.035 182.678 103.956 179.568 100.483C177.649 99.1719 172.928 95.4187 167.501 90.8957C164.842 88.6723 161.916 86.1919 159.034 83.6539C155.976 80.8737 153.788 79.2384 148.97 73.9457C146.265 70.6138 144.334 68.3281 143.748 68.009C143.66 67.9783 146.371 71.9343 144.083 69.6701C141.07 66.6836 144.714 68.4877 141.806 64.5763C141.259 63.7961 133.281 54.2136 133.214 54.4288C131.897 53.629 132.565 54.8687 133.67 56.5465C134.779 58.222 136.358 60.3956 136.273 60.3773C136.05 60.3242 134.5 58.5602 133.12 57.009C131.72 55.4283 130.633 54.2357 130.586 54.1339C130.52 54.0086 131.543 54.6834 132.097 54.9331C132.369 55.0507 132.49 55.0177 132.231 54.6408C131.997 54.2908 131.294 53.504 130.407 52.6945C130.668 53.2024 131.019 53.8125 131.406 54.4816C130.304 53.438 130.051 52.9548 129.953 52.5672C129.868 52.195 129.944 51.9424 129.898 51.8311C129.834 51.6341 129.819 51.6715 130.358 51.9768C130.457 52.0591 129.063 51.4893 127.025 49.584C126.229 48.8587 127.833 48.9791 127.734 48.8805C126.801 47.9451 125.009 48.8422 123.315 47.2647C123.123 47.1754 127.935 47.6552 119.802 45.6761C120.355 45.8985 120.931 46.1311 121.465 46.3649C120.399 46.2145 111.574 44.8406 110.27 44.7457C106.653 44.221 109.836 43.8281 106.142 43.6025C108.55 44.6565 97.2231 44.1567 97.7853 43.495C97.1377 43.8929 95.0786 43.9696 92.5098 44.0098C88.6888 44.0785 83.8451 44.0632 80.9425 44.2407C77.8202 44.4099 71.4705 45.3271 70.4698 45.3844C69.2405 45.4464 69.5035 44.8294 67.2839 44.93C66.6408 44.9631 60.1779 46.0538 54.3004 46.3288C53.146 46.3791 50.5969 45.8606 52.6177 45.3221C56.0897 44.3692 62.9853 44.2301 62.7824 43.6991C62.5572 43.092 53.5675 44.7082 51.1008 45.0562C39.7322 46.6205 46.1063 44.9814 45.7661 44.8386C44.9299 44.535 38.7245 45.7612 38.4839 45.782C37.371 45.8404 41.6558 44.6401 41.649 44.383C41.6473 44.0233 35.5298 44.718 36.8538 44.3292C38.744 43.7397 44.3618 43.1054 44.6926 43.0301C49.1339 41.8288 42.7313 42.2578 40.9294 42.281C40.3832 42.2791 42.3871 41.6528 41.9514 41.7109C35.2574 42.6483 40.8644 43.0387 36.4728 43.8958C32.5952 44.675 37.4121 43.0859 37.2752 43.088C37.0637 43.0984 32.4245 44.1429 31.6556 44.1641C31.2538 44.1497 43.0788 40.446 42.4683 40.142C38.6289 41.0917 34.7985 42.0942 30.9783 43.1477C30.543 42.6909 36.1574 41.7174 36.7327 41.5364C37.8627 41.1464 34.5499 41.6477 34.6494 41.4476C34.6811 41.3263 38.3665 40.0046 34.8987 40.6904C33.7234 40.9312 31.3463 41.9027 26.9863 42.6898C41.71 38.3041 31.297 40.7022 30.8246 40.6388C30.3355 40.5774 37.2962 38.2153 28.7156 40.634C28.0467 39.7427 28.7935 40.2645 31.1992 39.412C34.1274 38.3903 27.092 39.8749 38.1554 37.2343C37.4006 36.8569 28.5559 39.329 28.1004 39.4466C27.6895 39.5287 29.5647 38.738 28.8469 38.8599C20.3464 40.4077 26.1159 39.1401 23.5553 39.3041C23.3492 39.2931 15.4997 41.6208 21.3834 39.6252C32.1162 36.0285 36.8927 35.6212 38.3193 33.5579C30.0422 35.1305 20.6486 39.2285 18.2493 40.0427C14.5577 41.3132 18.3165 39.7476 17.8237 39.8311C17.6662 39.854 14.4934 40.9723 14.4337 40.974C11.8267 40.7476 28.5978 36.1078 33.8318 34.5308C32.3915 34.7677 30.9076 35.0316 29.48 35.2932C31.3628 34.7048 33.2733 34.1241 35.1968 33.5563C25.9874 35.9346 34.8339 33.5142 36.8497 31.9206C37.2962 31.5572 31.4071 33.6961 38.0895 31.0842C32.9964 32.4452 34.5547 31.7784 30.0714 33.4587C30.0897 33.0402 40.2406 29.4459 44.2891 28.1371C29.7754 31.9209 38.3318 30.7932 25.8012 34.0614C23.6464 35.2495 29.4901 33.2252 29.0424 33.4606C27.3828 34.2713 23.2421 35.2024 18.7076 37.7374C17.9699 38.1479 21.4211 37.4184 16.5125 39.1049C15.9639 39.2876 12.7308 40.0637 12.781 40.0234C13.0788 39.6069 16.2025 38.5877 16.297 38.4283C16.3724 38.2738 12.9555 39.5909 12.9439 39.5662C12.7099 39.2691 15.7679 38.3829 15.2934 38.4374C14.2758 38.5176 1.6975 42.4606 17.882 36.6346C4.63085 42.0035 16.2674 37.584 21.4885 35.6232C22.7993 35.1237 23.1005 34.774 24.9753 34.0479C27.4168 33.103 30.3379 32.2737 31.6278 31.818C33.0046 31.3326 24.9641 33.2609 36.3979 29.835C30.4327 31.0217 20.4151 35.0956 14.7424 36.8775C3.26272 40.5545 22.3178 32.9826 24.3355 32.3069C24.8643 32.0961 22.9786 32.4332 23.33 32.288C23.9022 31.9996 34.9766 28.3945 36.0058 27.8159C37.0205 27.1855 31.9369 29.1483 31.5221 28.9934C31.225 28.842 44.5849 24.1927 37.2518 26.3859C32.2032 27.8923 23.2758 31.8614 21.5252 31.7023C28.7575 28.9276 36.0742 26.3692 43.4921 24.0342C39.3391 24.9366 35.208 25.9377 31.1044 27.0355C39.3132 24.0516 46.6466 22.204 54.5558 19.4869C35.0478 23.9271 60.5884 16.7128 60.9128 16.6488C60.9861 16.5081 53.1364 17.6423 51.8834 17.8689C58.4758 15.371 79.4273 10.2071 66.9444 11.9136C69.2225 11.6247 74.517 9.65946 74.4433 9.62457C73.65 9.15434 61.9312 12.5005 63.7626 11.5389C65.8829 10.3729 69.1274 10.3458 72.5747 9.47248C81.7093 7.17355 84.7943 5.7232 88.1254 4.26311C91.3971 2.95382 94.8823 1.52864 104.497 0.877317C104.099 0.791666 103.687 0.70826 103.296 0.626301C118.831 -0.160351 132.366 -1.69052 153.758 7.07843C165.783 13.6857 169.141 18.3186 174.21 22.897C178.216 25.7364 184.71 31.5011 190.495 36.7816C189.946 36.0709 190.035 36.1016 190.227 36.1778C190.448 36.2882 190.76 36.4765 191.176 36.7486C191.935 37.2302 192.877 37.8506 193.861 38.5023C195.719 39.7191 197.699 41.0381 199.194 42.0616C200.629 43.0625 207.807 48.558 208.387 49.0761C209.299 49.9488 203.385 46.2139 205.758 48.2782C206.276 48.7458 219.211 57.4254 218.775 56.2357C217.302 55.1896 212.444 52.5209 211.825 51.9115C207.105 47.4396 247.732 74.5035 250.142 75.4217C249.364 74.6198 248.595 73.8245 247.834 73.036C250.345 74.7818 252.937 76.5859 255.462 78.3489ZM118.574 47.8833C117.104 48.1672 113.442 47.0458 111.154 46.9314C108.011 46.7295 102.578 48.5399 104.888 46.4995C109.624 46.6953 114.264 47.146 118.574 47.8833ZM168.969 94.7689C166.148 91.972 169.449 92.6073 171.588 95.1592C171.809 95.4287 172.815 98.549 168.969 94.7689ZM137.656 61.993C137.759 62.0878 139.638 64.5307 139.695 64.6429C140.959 67.2102 135.315 59.8579 137.656 61.993ZM295.247 183.228C291.32 180.866 293.243 184.012 296.059 184.951C296.235 185.009 295.507 183.386 295.247 183.228ZM292.515 181.466C290.282 178.34 282.78 176.913 287.645 179.766C288.089 180.031 292.628 181.631 292.515 181.466ZM158.162 84.9703C158.827 84.9142 162.048 87.9551 163.291 89.1341C162.995 89.4777 159.669 86.2114 158.162 84.9703ZM238.804 145.832C239.178 145.577 228.039 137.686 227.01 137.625C228.85 138.663 238.457 146.07 238.804 145.832ZM267.738 165.233C267.489 164.971 263.575 162.421 263.477 162.822C265.054 164.527 268.829 166.398 267.738 165.233ZM332.262 203.13C332.589 203.141 329.818 199.344 337.981 204.505C339.184 205.256 334.321 203.959 334.742 204.221C335.64 204.787 336.373 205.175 336.979 205.438C332.76 203.947 328.525 202.136 328.169 201.807C326.551 200.301 332.13 203.137 332.262 203.13ZM372.653 214.525C373.639 214.359 379.335 215.785 380.619 216.178C380.839 216.25 379.652 217.109 382.274 217.515C384.375 217.825 381.451 216.213 385.481 217.09C389.557 217.942 383.942 217.795 384.285 217.901C384.763 218.08 391.198 218.598 390.907 219.173C390.694 219.635 383.9 218.243 382.196 218.001C380.006 217.722 382.492 218.99 378.891 218.124C376.634 217.567 378.173 216.479 377.707 216.315C377.316 216.214 369.238 215.196 372.664 214.532C372.66 214.53 372.656 214.528 372.653 214.525ZM338.121 205.836C337.788 205.752 337.414 205.627 336.979 205.438C337.36 205.574 337.738 205.703 338.121 205.836ZM126.343 49.5765C127.498 50.3274 123.779 49.4162 122.181 48.6077C122.261 48.2514 126.238 49.4379 126.343 49.5765ZM342.388 206.31C348.51 208.949 343.717 207.752 338.121 205.836C339.969 206.296 340.364 205.408 342.388 206.31ZM198.409 115.452C198.549 115.675 198.588 115.891 198.464 116.104C198.104 115.501 198.141 115.349 198.409 115.452ZM209.033 123.867C213.198 125.982 205.633 120.468 205.341 120.918C205.273 121.121 208.855 123.776 209.033 123.867ZM300.246 186.357C299.902 186.053 307.306 187.685 297.414 183.854C302.005 186.968 296.872 184.171 296.831 184.387C296.677 185.039 305.073 189.348 306.822 190.588C308.778 190.458 301.426 187.393 300.256 186.364C300.253 186.362 300.249 186.359 300.246 186.357ZM451.214 219.105C449.893 220.075 444.754 220.984 440.547 221.387C442.529 220.574 448.009 219.86 451.214 219.105ZM994.898 248.831C985.516 246.611 979.276 243.355 978.472 242.623C977.584 241.813 982.399 244.172 991.014 247.072C991.416 247.234 996.07 248.974 994.898 248.831ZM872.52 158.152C871.824 156.501 876.048 159.629 878.488 162.008C879.036 162.542 880.724 164.984 878.057 163.105C878.816 162.368 875.091 158.923 872.52 158.152ZM346.157 206.944C348.203 206.907 353.664 209.346 356.634 210.36C354.622 210.41 348.653 208.13 346.157 206.944ZM941.68 213.711C940.382 212.546 938.986 212.281 939.187 212.525C940.087 213.621 942.936 215.274 941.68 213.711ZM328.585 199.613C328.523 199.118 335.779 201.837 335.88 203.05C334.342 202.346 328.638 199.965 328.585 199.613ZM444.623 220.088C443.106 220.159 450.904 218.296 452.9 217.934C452.981 218.456 445.821 220.116 444.623 220.088ZM919.621 195.667C918.442 194.613 915.391 192.078 914.874 192.031C914.211 191.955 918.776 195.544 919.621 195.667ZM1212.65 265.214C1212.88 265.297 1206.11 266.57 1203.17 266.551C1197.56 266.627 1212.33 265.362 1212.65 265.214ZM954.881 224.306C958.409 228.083 954.402 223.932 954.166 224.619C956.78 226.843 963.395 232.317 959.281 228.077C958.429 227.206 956.089 225.373 954.881 224.306ZM951.451 221.142C950.907 220.974 947.592 219.108 950.084 221.129C951.229 222.055 953.486 222.934 951.451 221.142ZM1172.28 266.283C1167.66 265.743 1188.96 266.581 1189.65 266.503C1189.98 266.539 1190.19 266.574 1190.31 266.603C1191.1 266.477 1195.21 266.392 1195.69 266.695C1194.46 266.705 1191.08 266.778 1190.7 266.74C1190.53 266.726 1190.41 266.712 1190.33 266.698C1188.83 267.079 1173.14 266.466 1172.28 266.283ZM1137.67 263.672C1142.86 263.371 1143.69 264.565 1143.23 264.569C1137.57 264.639 1141.32 264.061 1141.15 264.011C1140.76 263.917 1136.76 264.026 1137.69 263.673C1137.68 263.672 1137.68 263.672 1137.67 263.672ZM1165.09 265.775C1165.3 265.777 1169.74 266.025 1169.93 266.046C1173.54 266.577 1160.99 265.882 1165.09 265.775ZM403.65 217.928C407.078 218.459 403.622 218.958 401.344 218.43C401.156 218.379 400.627 217.44 403.65 217.928ZM949.425 219.639C948.957 219.113 935.162 207.005 935.434 208.365C936.64 209.233 952.422 223.034 949.425 219.639ZM843.37 134.22C845.929 136.157 842.575 134.772 841.404 133.469C840.971 132.986 842.724 133.731 843.37 134.22ZM319.682 194.18C316.054 193.037 317.716 191.52 320.27 193.628C320.372 193.711 319.823 194.224 319.682 194.18ZM863.399 150.149C854.308 143.844 858.147 143.16 868.917 152.746C868.48 152.564 868.042 152.382 867.613 152.208C880.443 162.759 868.381 153.04 865.087 150.7C863.829 149.802 864.557 150.962 863.406 150.158C863.403 150.155 863.401 150.152 863.399 150.149ZM829.636 123.649C822.885 115.914 836.232 127.732 842.161 132.042C842.439 132.244 842.696 132.426 842.928 132.585C842.653 132.435 842.376 132.28 842.098 132.122C837.057 129.201 832.127 125.32 839.45 131.956C827.263 122.848 832.885 126.086 832.411 125.646C831.901 125.154 829.938 123.995 829.636 123.649ZM852.358 140.941C852.881 141.263 856.302 144.396 857.677 145.368C855.37 144.463 848.868 138.793 852.358 140.941ZM1101.73 261.344C1102.16 260.991 1103.13 260.784 1106.85 261.215C1105.67 261.317 1103.28 261.299 1101.73 261.344ZM116.033 44.7195C113.994 44.3146 109.727 43.6406 111.017 44.3086C111.172 44.3431 116.028 44.9884 116.033 44.7195ZM908.848 185.392C908.464 184.984 897.73 176.221 901.078 179.665C902.089 180.692 911.952 188.638 908.848 185.392ZM964.763 231.93C963.731 231.099 959.896 228.063 959.763 228.095C959.226 228.158 964.048 231.835 964.763 231.93ZM105.24 42.999C104.963 42.8882 98.1536 42.7375 98.9046 43.0069C100.37 43.4245 106.237 43.219 105.24 42.999ZM416.197 217.24C416.906 217.252 417.805 218.04 418.05 218.06C418.66 218.154 431.495 218.208 426.569 219.036C425.815 219.295 407.083 217.998 404.562 217.511C403.708 216.426 411.716 218.069 413.669 218.049C414.014 218.048 414.295 217.213 416.191 217.243C416.193 217.242 416.195 217.241 416.197 217.24ZM1121.07 262.402C1121.64 262.09 1135.64 262.889 1135.45 263.289C1130.66 262.997 1125.86 262.7 1121.07 262.402ZM1113.96 261.814C1110.99 261.336 1118 261.782 1120.05 262.045C1120.04 262.282 1114.42 261.887 1113.96 261.814ZM945.149 213.386C944 212.565 946.859 215.846 946.033 215.32C945.539 215.011 943.218 212.727 942.363 212.285C942.087 212.14 944.15 214.696 944.873 215.267C945.895 216.078 945.257 214.898 946.34 215.803C950.027 218.891 953.041 221.882 956.524 224.776C956.848 225.045 954.574 222.697 957.313 224.992C957.736 225.343 959.841 227.771 963.241 230.448C965.22 231.597 966.948 232.738 968.741 234.016C970.609 235.298 971.876 236.466 975.667 238.829C981.718 242.346 987.309 244.553 994.222 246.202C993.896 246.073 984.221 242.542 983.456 242.059C981.404 241.182 978.832 240.024 975.956 238.343C963.303 229.582 956.106 222.428 949.143 216.796C947.145 215.11 947.883 216.177 947.01 215.457C946.338 214.903 947.565 215.114 945.149 213.386ZM117.162 44.5482C116.246 43.7108 112.703 43.5877 110.39 43.3205C111.181 43.9699 115.043 44.0065 117.162 44.5482ZM1050.81 255.832C1049.48 255.711 1045.14 255.048 1044.79 255.173C1044.28 255.337 1050.5 256.178 1050.81 255.832ZM492.936 200.563C493.043 200.493 496.208 199.178 496.32 199.157C499.383 198.606 489.974 202.509 492.936 200.563ZM566.925 160.652C569.023 159.023 571.008 157.234 572.132 157.278C570.725 158.189 566.958 161.236 566.925 160.652ZM649.57 99.4273C648.827 98.7538 654.606 96.9349 655.718 96.6573C655.42 97.1392 650.077 99.8513 649.57 99.4273ZM1101.37 259.633C1105.93 260.029 1105.06 259.153 1107.94 259.748C1108.4 259.846 1109.79 261.627 1104.78 260.609C1103.89 260.424 1107.46 260.311 1101.37 259.633ZM870.76 154.213C871.989 154.552 874.689 156.851 876.609 158.413C875.937 158.342 872.152 155.254 870.76 154.213ZM92.8058 42.2942C92.6709 42.2582 92.5041 42.228 92.3106 42.2034C89.5287 41.8498 81.5534 42.7208 83.7707 42.9364C84.0898 42.9494 90.2059 42.3943 92.3223 42.3096C92.5264 42.3004 92.6906 42.2952 92.8058 42.2942ZM359.773 208.412C364.442 209.059 355.256 206.133 352.171 205.753C353.474 206.173 359.444 208.385 359.773 208.412ZM631.012 109.499C631.131 109.368 634.147 107.402 634.302 107.354C637.106 106.284 628.604 111.846 631.012 109.499ZM543.035 175.061C544.257 173.735 553.898 168.175 556.23 167.232C554.774 169.302 541.615 176.808 543.035 175.061ZM1082.44 258.279C1085.72 258.55 1088.81 258.916 1091.81 259.309C1091.14 259.535 1082.76 258.524 1082.44 258.279ZM642.062 102.554C642.228 102.467 642.412 102.426 642.572 102.346C642.399 102.417 642.228 102.485 642.062 102.554ZM1008.15 248.75C1005.27 248.037 1005.76 248.72 1005.93 248.775C1008.08 249.418 1011.35 249.521 1008.15 248.75ZM114.675 43.1793C113.938 42.4734 110.012 42.4403 107.723 42.1401C108.399 42.6189 112.913 42.9577 114.675 43.1793ZM821.568 115.805C819.367 113.229 830.593 120.727 832.697 122.975C832.548 123.393 821.848 116.091 821.568 115.805ZM346.46 202.7C346.37 202.02 339.929 200.33 341.126 201.112C341.885 201.634 346.491 203.141 346.46 202.7ZM838.145 127.563C839.304 128.263 841.517 130.577 840.441 130.139C839.055 129.576 837.84 127.385 838.145 127.563ZM930.097 200.213C929.685 199.773 923.504 195.228 925.63 197.605C927.102 199.249 927.784 198.963 928.197 199.306C928.674 199.704 937.579 208.2 930.097 200.213ZM761.276 87.1712C763.738 87.3576 766.605 88.1635 769.104 88.7306C767.994 88.777 762.247 87.7461 761.276 87.1712ZM371.131 210.049C370.341 209.842 349.359 203.43 361.085 207.758C361.738 208.083 373.328 211.424 371.131 210.049ZM1101.37 259.633C1100.8 259.583 1100.12 259.511 1099.35 259.413C1100.12 259.489 1100.8 259.569 1101.37 259.633ZM1049.09 254.683C1050.2 254.529 1044.81 253.834 1043.22 253.79C1042.7 254.08 1048.91 254.706 1049.09 254.683ZM769.428 88.2413C770.913 88.3503 773.467 89.2565 775.195 89.7358C774.814 89.9771 769.963 88.719 769.428 88.2413ZM659.425 93.4455C662.237 92.7616 665.718 91.7148 665.657 91.2403C665.735 91.297 665.893 91.3371 666.142 91.3541C666.387 91.3633 669.434 90.3687 670.85 90.2283C675.073 89.8161 667.082 91.5727 661.371 93.2309C655.692 94.9255 651.545 95.8091 662.272 91.64C661.306 92.2309 660.353 92.8341 659.425 93.4455ZM529.125 181.523C526.912 182.012 521.7 185.449 523.245 184.956C524.352 184.64 531.375 181.059 529.125 181.523ZM595.562 135.311C595.029 135.608 590.968 139.419 591.048 139.759C593.764 138.023 598.015 133.968 595.562 135.311ZM513.856 188.097C512.653 188.542 511.602 190.12 511.754 190.099C513.071 189.904 516.007 187.729 513.856 188.097ZM1092.03 257.287C1090.18 256.96 1084.23 256.858 1082.89 257.131C1082.66 257.034 1082.03 256.878 1080.86 256.654C1080.87 256.654 1080.87 256.655 1080.88 256.655C1079.33 256.513 1031.29 251.212 1063.43 255.416C1064.44 255.542 1063.08 255.045 1067.21 255.52C1067.48 255.552 1067.58 255.858 1068.41 255.952C1070.3 256.177 1080.58 257.316 1082.63 257.258C1082.64 257.312 1082.76 257.374 1083.04 257.445C1085.53 258.082 1093.44 257.536 1092.03 257.287ZM603.958 128.349C603 128.911 600.398 131.255 600.376 131.809C601.856 130.866 606.189 127.044 603.958 128.349ZM370.901 208.147C368.549 207.23 362.247 206.175 364.001 207.031C365.078 207.608 373.615 209.25 370.901 208.147ZM576.283 150.633C587.135 142.956 578.782 148.677 580.027 146.95C578.788 148.18 577.541 149.407 576.283 150.633ZM1150.9 262.817C1148.96 262.6 1151.14 262.162 1153.28 262.587C1153.37 262.605 1153.46 262.624 1153.55 262.644C1153.83 262.709 1153.65 262.768 1153.26 262.809C1152.67 262.872 1151.59 262.893 1150.9 262.817ZM1245.26 237.218C1244.83 238.277 1245.21 236.104 1245.46 234.338C1245.72 232.568 1245.97 231.099 1245.95 233.042C1245.98 233.192 1245.35 237.034 1245.26 237.218ZM1179.12 263.98C1177.69 264.301 1176.75 264.327 1172.78 264.068C1178.68 264.199 1173.22 263.67 1179.12 263.98ZM665.608 91.1754C665.633 91.198 665.654 91.2142 665.657 91.2403C665.631 91.2207 665.616 91.1994 665.608 91.1754ZM502.799 193.292C501.062 193.373 496.875 195.262 498.381 195.299C498.524 195.303 502.378 193.995 502.799 193.292ZM1082.89 257.131C1083.09 257.216 1082.98 257.25 1082.63 257.258C1082.61 257.207 1082.71 257.168 1082.89 257.131ZM525.48 182.226C525.547 182.749 532.309 179.408 532.529 179.193C535.908 176.41 528.281 180.824 525.48 182.226ZM324.025 190.109C323.654 189.983 325.342 192.211 326.934 192.426C328.165 192.595 325.405 190.586 324.025 190.109ZM1192.78 264C1195.02 263.987 1198.2 263.904 1198.79 264.153C1197.26 264.174 1192.72 264.211 1192.78 264ZM1243.93 241.422C1243.66 242.756 1243.02 244.772 1242.19 246.717C1241.22 249.79 1236.7 255.493 1233.36 257.19C1233.24 257.083 1234.83 256.166 1236.92 254.13C1239.06 252.156 1241.18 248.637 1242 246.629C1242.93 244.593 1243.66 242.459 1243.93 241.422ZM1097.86 257.979C1097.67 257.944 1092.31 257.331 1093 257.739C1094.04 258.342 1099.35 258.293 1097.86 257.979ZM334.261 195.626C336.885 196.314 331.753 192.657 328.813 192.358C327.273 192.221 333.797 195.53 334.261 195.626ZM489.291 198.259C486.386 199.872 494.169 197.242 494.953 196.201C493.552 196.756 490.335 197.685 489.291 198.259ZM587.415 139.805C578.204 144.807 584.601 143.88 585.88 142.516C586.062 142.323 587.641 139.681 587.415 139.805ZM68.7933 41.767C67.4644 42.0641 72.6245 42.0499 73.2176 41.6323C73.5792 41.3584 69.6529 41.5628 68.7933 41.767ZM709.501 84.5338C709.093 84.5642 708.691 84.5949 708.294 84.6251C708.59 84.579 708.982 84.5453 709.501 84.5338ZM459.458 206.996C467.829 206.982 466.297 205.296 466.953 205.101C468.355 204.634 471.696 204.15 474.162 203.074C471.403 204.447 468.599 205.797 465.699 207.116C468.347 206.579 488.038 199.729 488.163 199.12C488.5 198.341 482.601 200.998 482.41 201.009C482.136 201.041 480.562 199.897 479.985 200.062C479.142 200.393 462.664 206.593 459.458 206.996ZM570.268 153.301C571.745 152.451 572.508 152.678 573.048 152.085C573.232 151.883 572.906 151.366 573.543 150.693C572.457 151.565 571.366 152.435 570.268 153.301ZM445.024 213.107C442.387 212.915 453.837 210.735 453.967 210.64C455.949 210.67 447.552 213.388 445.024 213.107ZM521.86 183.41C521.654 183.483 519.071 184.626 517.044 185.568C515.792 186.154 514.805 186.673 514.895 186.819C515.346 186.7 516.218 186.375 517.223 185.964C520.524 184.615 524.94 182.357 521.86 183.41ZM574.419 149.984C576.486 148.525 580.625 146.113 579.638 145.716C579.635 145.718 579.632 145.721 579.629 145.723C577.905 147.149 576.17 148.569 574.419 149.984ZM343.525 197.3C339.462 194.028 340.921 196.72 344.869 198.779C346.359 198.619 344.195 197.833 343.525 197.3ZM329.454 189.97C328.285 189.225 315.704 183.079 317.25 184.752C317.749 185.379 325.276 188.424 325.603 188.613C326.074 188.933 323.364 188.609 327.315 190.332C327.21 189.949 329.842 190.257 329.454 189.97ZM340.08 194.857C335.983 191.885 334.162 193.385 337.548 194.859C338.891 195.437 340.664 195.279 340.08 194.857ZM358.996 201.911C357.351 201.198 352.939 199.441 349.626 198.983C353.733 200.532 357.874 201.955 362.089 203.258C362.691 203.017 360.433 202.548 358.985 201.907C358.988 201.909 358.992 201.91 358.996 201.911ZM1243.72 211.807C1243.54 215.375 1243.33 207.155 1243.37 206.82C1243.54 205.793 1243.8 210.208 1243.72 211.807ZM39.7872 36.3278C38.8255 36.4465 38.0625 36.2325 36.0561 36.9811C38.2147 36.704 40.4015 36.4508 42.5859 36.2302C44.0426 35.1628 40.8571 36.1907 39.7872 36.3278ZM31.1189 36.2028C31.4104 36.1033 29.516 35.6197 33.5272 35.1367C36.2442 34.8004 22.3059 39.3517 19.7202 39.8536C22.4351 38.7459 28.5999 37.0598 31.1189 36.2028ZM5.5765 40.9843C5.39634 40.9794 10.6039 38.797 11.2051 38.6261C14.4908 37.6307 6.53426 40.9436 5.5765 40.9843ZM22.4006 34.8231C19.8579 35.522 25.3386 33.4724 27.0221 33.0338C27.236 33.1471 22.8095 34.7012 22.4006 34.8231ZM1226.84 243.022C1226.07 243.359 1225.47 243.913 1225.3 244.254C1225.11 244.582 1225.65 244.689 1226.68 243.733C1226.78 243.641 1226.91 242.991 1226.84 243.022ZM10.3979 38.1483C12.9021 37.3379 7.50489 39.5762 5.86323 40.164C5.68014 40.0709 10.0113 38.2672 10.3979 38.1483ZM1225.09 242.61C1224.15 242.964 1223.84 243.335 1223.94 243.647C1224.02 243.956 1224.48 244.161 1224.63 244.114C1225.18 243.952 1226.07 243.382 1226.63 242.68C1227.2 241.998 1227.62 241.01 1228 240.005C1228.14 239.619 1228.24 239.32 1228.3 239.138C1228.18 239.429 1228.05 239.706 1227.93 239.972C1227.16 241.614 1226.77 241.962 1226.41 242.302C1226.07 242.6 1225.85 242.683 1225.72 242.696C1225.44 242.716 1225.51 242.443 1225.09 242.61ZM1211.69 246.594C1208.84 246.954 1214.83 246.774 1217.35 246.12C1217.74 246.026 1218.04 245.932 1218.23 245.842C1217.99 245.888 1217.69 245.939 1217.32 245.992C1215.49 246.278 1212.47 246.5 1211.69 246.594ZM1191.3 246.331C1189.47 246.217 1184.06 245.781 1183.12 245.966C1185.11 246.06 1190.54 246.57 1191.3 246.331ZM1187.19 245.388C1184.36 244.885 1183.61 245.844 1186.93 245.733C1187.06 245.728 1187.3 245.413 1187.19 245.388ZM1171.14 243.818C1169.28 243.23 1167.08 244.027 1170.1 244.343C1171.02 244.434 1171.33 243.884 1171.14 243.818ZM1221.86 242.396C1220.01 242.813 1217.4 244.059 1221.76 243C1220.4 243.531 1218.78 243.969 1217.04 244.325C1217.02 244.33 1217 244.334 1216.97 244.339C1217 244.336 1217.02 244.334 1217.04 244.332C1223.48 243.532 1222.27 242.5 1223.56 242.096C1224.31 241.75 1224.6 241.745 1224.83 241.848C1225.05 241.953 1225.13 242.186 1225.07 242.364C1225.23 242.139 1225.49 241.854 1225.75 241.482C1226.03 241.097 1226.33 240.631 1226.87 239.471C1228.38 236.436 1229.14 232.732 1229.46 229.344C1228.98 232.624 1228.13 236.147 1226.34 239.222C1225.33 241.035 1225.02 241.015 1224.31 241.496C1223.78 241.806 1223.07 242.351 1222.22 242.623C1220.83 243.043 1221.97 242.371 1221.87 242.394C1221.86 242.395 1221.86 242.396 1221.86 242.396ZM1149.86 241.481C1144.34 240.338 1147.75 241.806 1150.92 241.986C1151.06 241.987 1150 241.51 1149.86 241.481ZM2.55652 38.7519C9.70568 36.0234 4.66748 38.5233 19.3713 31.8899C13.231 34.8579 19.1532 32.3882 17.9829 33.0777C17.0393 33.6195 13.3147 34.9375 15.5766 34.412C12.5987 35.1052 0.579564 40.3602 0.07371 40.5844C0.0784712 40.5823 0.0832355 40.5801 0.0880032 40.578C-0.236839 40.6928 0.285749 39.6562 2.55652 38.7519ZM1191.34 243.819C1189.56 242.564 1188.77 244.397 1185.22 243.198C1180.39 244.364 1198.42 243.94 1200.51 244.945C1181.14 244.506 1213.3 246.178 1199.79 244.354C1210.82 244.911 1203.38 244.119 1205.07 243.891C1206.89 243.666 1212.92 243.537 1212.56 243.119C1212.56 243.119 1212.55 243.119 1212.55 243.12C1208.94 243.455 1205.18 243.59 1201.38 243.612C1205.12 244.521 1197.31 244.271 1194.65 243.38C1193.54 243.532 1192.45 243.678 1191.34 243.819ZM1212.87 244.454C1212.56 244.54 1204.39 245.05 1204.91 245.169C1206.09 245.399 1217.49 244.316 1212.87 244.454ZM1229.22 226.744C1229.16 227.404 1229.08 228.138 1228.99 228.88C1228.7 231.466 1228.13 233.986 1228.08 234.988C1228.54 233.42 1229.03 230.908 1229.18 228.896C1229.25 228.012 1229.27 227.241 1229.22 226.744ZM1092.83 233.646C1088.85 233.498 1100.96 235.139 1097.5 234.282C1097.36 234.244 1093.01 233.654 1092.83 233.646ZM1182.54 243.482C1178.59 242.825 1180.43 244.134 1183.35 244.031C1183.53 244.026 1182.71 243.512 1182.54 243.482ZM8.21353 36.1578C8.36645 35.7867 18.7652 31.7099 20.626 31.0493C19.6288 31.6442 7.99287 36.4964 8.21353 36.1578ZM1228.68 221.468C1228.22 223.834 1227.99 226.51 1227.8 228.776C1227.52 232.283 1227.21 234.668 1227.07 235.052C1226.85 235.683 1226.79 234.586 1226.73 234.729C1226.66 234.945 1226.13 236.755 1225.14 238.656C1224.71 239.519 1224.48 239.84 1224.33 240.02C1224.18 240.195 1224.09 240.268 1224.07 240.292C1224.01 240.374 1224.79 240.432 1224.47 240.93C1224.7 240.585 1224.86 240.629 1225.71 238.922C1227.24 236.029 1228.05 232.29 1228.41 228.829C1228.63 226.865 1228.73 225.367 1228.73 225.132C1228.73 224.434 1227.86 229.596 1228.68 221.478C1228.68 221.475 1228.68 221.471 1228.68 221.468ZM1226.42 236.579C1226.96 235.553 1226.48 237.197 1225.61 238.878C1225.18 239.73 1224.92 240.058 1224.78 240.189C1224.51 240.43 1224.51 240.358 1224.61 240.202C1224.72 240.031 1224.96 239.688 1225.41 238.783C1225.99 237.643 1226.38 236.663 1226.42 236.579ZM1220.45 241.882C1220.16 241.934 1218.5 242.304 1216.74 242.567C1215.25 242.803 1213.8 243 1213.58 243.145C1214.49 243.162 1215.67 243.067 1216.8 242.902C1219.41 242.542 1221.32 241.726 1220.45 241.882ZM1145.69 238.808C1143.85 238.625 1138.91 237.772 1138.57 238.013C1140.42 238.198 1145.37 239.047 1145.69 238.808ZM43.4334 20.6802C40.3697 21.4212 47.3151 19.0728 49.3907 18.5879C49.5436 18.734 43.7024 20.6021 43.4334 20.6802ZM1182 240.992C1180.97 240.951 1159.37 238.91 1156.3 238.558C1159.26 239.234 1180.68 241.45 1181.64 241.314C1181.92 241.308 1182.13 241.015 1182 240.992ZM1222.73 239.381C1222.83 239.138 1222.87 239.143 1222.96 239.159C1223.04 239.18 1223.16 239.213 1223.17 239.202C1223.27 239.14 1223.48 238.922 1223.93 238.08C1224.66 236.702 1225.08 235.681 1225.1 236.174C1224.86 236.711 1224.55 237.385 1224.14 238.182C1223.73 238.998 1223.52 239.279 1223.4 239.393C1223.29 239.504 1223.21 239.549 1223.06 239.63C1222.91 239.703 1222.73 239.763 1222.66 239.732C1222.58 239.705 1222.64 239.578 1222.73 239.381ZM1144.31 236.777C1136.83 235.991 1151.15 238.218 1149.3 237.559C1149.19 237.52 1145.08 236.858 1144.31 236.777ZM1184.4 241.063C1186.08 241.063 1207.27 242.097 1210.31 241.558C1207.47 242.24 1205.03 241.914 1201.01 241.913C1199.92 241.91 1200.22 242.135 1200.1 242.135C1198.2 242.117 1199.61 241.881 1198.45 241.854C1197.75 241.953 1182.13 241.392 1184.4 241.063ZM1222.76 239.108C1222.76 239.062 1222.79 239.022 1222.82 238.977C1222.87 238.913 1222.98 238.846 1223.47 237.865C1224.2 236.411 1224.68 235.166 1225.01 233.941C1225.35 232.736 1225.54 231.66 1225.58 231.536C1225.87 230.479 1225.82 231.392 1225.53 232.909C1225.21 234.469 1224.65 236.131 1223.68 237.963C1223.15 238.971 1223 239.019 1222.92 239.066C1222.85 239.094 1222.79 239.104 1222.76 239.108ZM1182.46 240.418C1184.78 239.99 1195.37 241.034 1188.11 240.927C1187.4 240.916 1184.49 240.438 1182.46 240.418ZM1145.18 236.208C1144.81 236.141 1137.06 235.007 1136.89 235.216C1138.02 235.45 1149.33 236.966 1145.18 236.208ZM1149.3 235.972C1149.11 235.953 1150.89 236.614 1147.25 236.093C1146.95 236.049 1146.41 235.49 1141.82 235.079C1140.89 234.996 1139.42 235.135 1139.52 235.169C1144.2 236.536 1158.74 236.932 1149.3 235.972ZM1222.57 238.855C1222.48 238.802 1222.4 238.659 1222.34 238.584C1222.28 238.502 1222.22 238.529 1222.38 238.561C1222.52 238.574 1222.66 238.849 1222.57 238.855ZM1120.54 232.848C1125.1 233.05 1110.93 231.127 1110.22 231.129C1110.63 231.437 1120.11 232.831 1120.54 232.848ZM49.8261 15.5332C49.8225 15.5344 49.8189 15.5355 49.8153 15.5366C53.67 14.4293 51.3651 15.4936 51.5486 15.4452C59.8344 13.4686 57.534 13.4067 58.7928 12.9338C61.531 11.9593 61.2491 13.0081 65.8813 11.3854C58.2255 14.0158 65.2444 11.8971 65.5295 12.1908C66.6404 13.3164 55.0964 14.2826 51.3663 15.8092C50.8391 16.0032 54.8563 15.2407 53.5181 15.7669C49.1627 17.3774 35.1276 19.9882 49.8261 15.5332ZM1222.49 238.363C1222.5 238.263 1222.58 238.1 1222.84 237.567C1223.52 236.187 1224.22 234.608 1224.67 232.972C1225.13 231.361 1225.4 230.096 1225.3 231.305C1225.29 231.452 1225.09 232.768 1224.72 234.05C1224.36 235.339 1223.79 236.614 1223.16 237.72C1222.86 238.257 1222.72 238.407 1222.62 238.467C1222.53 238.518 1222.48 238.495 1222.49 238.363ZM655.222 44.234C658.779 42.836 650.066 44.2019 648.594 45.1129C647.869 45.5187 653.689 44.8111 655.222 44.234ZM597.26 67.7101C593.62 70.4014 591.364 75.0951 595.56 71.5202C595.986 71.1488 597.864 67.6796 597.26 67.7101ZM863.171 90.975C860.564 87.8549 859.895 89.0561 862.162 90.9205C862.96 91.576 863.252 91.0729 863.171 90.975ZM706.22 37.2408C705.802 37.1976 700.892 37.5081 701.088 37.8495C702.954 37.9543 708.969 37.4965 706.22 37.2408ZM864.258 91.6309C862.299 90.3157 864.81 93.6765 867.571 94.7176C866.421 93.8741 864.46 91.7673 864.258 91.6309ZM1174.52 237.909C1172.56 238.054 1167.09 237.356 1163.92 237.029C1163.6 236.556 1172.28 237.782 1174.52 237.909ZM614.23 58.2395C610.687 60.8428 619.125 56.7966 618.032 56.55C617.901 56.5572 614.359 58.1271 614.23 58.2395ZM962.291 176.43C960.059 174.894 966.005 181.04 964.715 178.958C964.658 178.869 962.424 176.523 962.291 176.43ZM989.044 201.301C987.74 199.985 981.49 194.312 983.664 196.784C984.013 197.186 988.755 201.497 989.044 201.301ZM58.9484 12.5064C57.7427 12.2951 64.1495 10.6224 65.1002 10.4896C65.4623 10.4326 60.5112 12.7655 58.9484 12.5064ZM842.199 73.7979C840.371 72.4969 835.644 68.823 834.536 68.5494C836.944 70.1118 842.343 74.8794 842.199 73.7979ZM632.421 49.7409C628.48 50.2476 622.48 53.0925 624.486 53.5052C631.082 50.5203 623.178 52.7599 632.421 49.7409ZM875.03 99.3734C873.763 98.2554 872.139 98.2141 872.259 98.3725C873.411 99.8851 876.087 100.738 875.03 99.3734ZM752.688 37.3928C752.613 36.8957 746.486 36.5981 747.293 36.9743C747.534 37.0763 752.746 37.7605 752.688 37.3928ZM1105.45 228.87C1103.06 228.268 1110.49 229.018 1112.64 229.623C1113.67 230.217 1105.73 228.943 1105.45 228.87ZM910.762 129.766C911.33 129.454 904.706 124.206 906.909 126.764C907.446 127.389 910.57 129.865 910.762 129.766ZM971.367 183.25C966.829 179.958 983.762 196.24 979.769 191.443C979.539 191.153 971.753 183.532 971.367 183.25ZM996.039 206.092C995.845 205.936 996.025 205.503 996.397 205.3C996.8 205.108 997.299 205.112 998.315 205.99C998.572 206.218 997.018 205.962 997.215 206.178C997.267 206.241 998.424 206.935 999.963 207.646C1001.49 208.361 1003.21 209.029 1003.39 209.07C1003.74 209.147 1003.51 208.47 1003.88 208.532C1004.21 208.601 1008.4 210.507 1010.86 211.187C1015.46 212.486 1016.11 212.129 1016.51 212.238C1017.61 212.517 1019.49 213.319 1021.81 213.856C1033.6 216.644 1052.81 219.594 1062.63 222.042C1053.79 220.269 1045.4 219.241 1036.71 217.709C1039.35 217.304 1023.98 215.899 1033 216.621C1028.55 216.531 994.569 207.544 996.044 206.095C996.043 206.094 996.041 206.093 996.039 206.092ZM583.386 77.3342C584.718 75.1918 575.228 82.9315 575.071 84.3257C576.399 83.4495 583.198 77.6018 583.386 77.3342ZM640.163 43.1132C641.423 42.5838 642.209 40.5054 649.398 39.4622C649.404 39.4606 649.411 39.459 649.417 39.4573C651.51 39.1726 649.299 40.1439 649.708 40.1859C649.872 40.1849 656.335 39.4528 651.166 40.8441C643.28 43.1171 650.106 39.8443 645.835 40.99C645.3 41.0822 637.525 44.4464 638.066 44.5175C638.122 44.5176 640.471 43.5469 640.896 43.5024C642.496 43.316 641.919 44.0328 642.138 43.989C642.835 43.7066 655.277 39.5142 657.272 39.9878C657.922 39.8047 637.396 45.9767 636.586 46.498C636.053 46.6016 635.778 45.195 635.201 45.253C634.883 45.2307 626.815 48.9559 625.735 49.3567C625.413 49.4553 625.162 49.5209 624.976 49.5659C626.367 49.3962 619.074 52.7152 619.087 52.2055C619.116 51.9476 624.183 49.7048 624.39 49.6761C624.475 49.6539 624.553 49.6414 624.623 49.6253C623.257 49.3798 640.83 42.7295 636.782 43.4544C641.8 41.3168 636.438 44.7805 640.163 43.1132ZM664.615 36.2891C664.115 36.5251 663.617 36.7629 663.121 37.0024C671.973 35.023 682.07 34.5834 691.696 33.9147C694.152 33.7481 691.276 33.0451 694.485 33.0834C697.055 33.1184 699.93 33.8018 698.565 34.0545C698.221 34.113 693.017 33.8699 690.368 34.1312C682.591 34.9075 684.641 35.5517 684.189 35.5999C683.681 35.6624 678.678 35.6214 675.922 36.0005C669.013 36.977 665.937 37.8245 656.101 39.2699C661.584 37.5958 658.315 37.1007 664.615 36.2891ZM938.747 152.022C939.232 151.928 942.769 155.583 944.199 156.8C943.725 156.897 940.163 153.215 938.747 152.022ZM275.188 92.6254C273.394 92.4825 283.019 98.9814 280.853 96.7206C280.394 96.2327 276.379 93.4007 275.188 92.6254ZM318.448 121.618C319.878 122.278 315.011 118.285 314.651 118.862C314.533 119.043 318.258 121.529 318.448 121.618ZM775.411 37.5015C775.777 37.5405 780.688 38.92 780.853 39.0214C783.963 40.5417 767.663 36.269 775.411 37.5015ZM367.943 146.728C363.487 145.743 376.233 150.518 372.541 148.447C372.364 148.366 368.146 146.789 367.943 146.728ZM385.923 152.056C384.869 151.853 380.346 150.347 380.218 150.572C380 150.98 385.222 152.67 385.923 152.056ZM877.538 98.029C877.517 96.992 883.139 102.412 885.226 104.032C885.246 105.058 879.659 99.645 877.538 98.029ZM839.346 66.3233C867.221 87.3048 860.6 83.892 837.367 65.3873C837.626 64.9312 837.469 65.0131 839.346 66.3233ZM872.386 93.167C871.224 92.8689 868.635 90.5306 866.814 88.9496C867.374 88.9601 871.04 92.1853 872.386 93.167ZM264.341 84.0688C266.444 84.4914 273.379 90.0903 271.868 89.5034C271.533 89.3678 263.466 84.0108 264.341 84.0688ZM778.704 37.5367C778.001 36.428 789.251 39.8926 789.991 40.437C793.228 42.1717 779.71 37.4382 778.704 37.5367ZM913.174 127.348C914.836 128.032 918.342 131.485 920.694 133.563C919.32 132.999 915.172 129.097 913.174 127.348ZM896.216 112.184C896.387 112.298 899.669 115.16 899.819 115.324C902.2 118.097 892.837 109.947 896.216 112.184ZM43.6252 13.4995C43.7527 13.4345 47.0594 12.3114 47.1663 12.2944C50.173 11.6647 40.3452 14.9986 43.6252 13.4995Z" fill="#A07ACA"/>
</g>
<defs>
<filter id="filter0_n_2851_53" x="0" y="0" width="1245.96" height="266.821" filterUnits="userSpaceOnUse" color-interpolation-filters="sRGB">
<feFlood flood-opacity="0" result="BackgroundImageFix"/>
<feBlend mode="normal" in="SourceGraphic" in2="BackgroundImageFix" result="shape"/>
<feTurbulence type="fractalNoise" baseFrequency="0.33783784508705139 0.33783784508705139" stitchTiles="stitch" numOctaves="3" result="noise" seed="2140" />
<feColorMatrix in="noise" type="luminanceToAlpha" result="alphaNoise" />
<feComponentTransfer in="alphaNoise" result="coloredNoise1">
<feFuncA type="discrete" tableValues="1 1 1 1 1 1 1 1 1 1 1 1 1 1 1 1 1 1 1 1 1 1 1 1 1 1 1 1 1 1 1 1 1 1 1 1 1 1 1 1 1 1 1 1 1 1 1 1 1 1 1 0 0 0 0 0 0 0 0 0 0 0 0 0 0 0 0 0 0 0 0 0 0 0 0 0 0 0 0 0 0 0 0 0 0 0 0 0 0 0 0 0 0 0 0 0 0 0 0 0 "/>
</feComponentTransfer>
<feComposite operator="in" in2="shape" in="coloredNoise1" result="noise1Clipped" />
<feFlood flood-color="rgba(0, 0, 0, 0.25)" result="color1Flood" />
<feComposite operator="in" in2="noise1Clipped" in="color1Flood" result="color1" />
<feMerge result="effect1_noise_2851_53">
<feMergeNode in="shape" />
<feMergeNode in="color1" />
</feMerge>
</filter>
</defs>
</svg>
